<svg xmlns:xlink="http://www.w3.org/1999/xlink" width="982" xmlns="http://www.w3.org/2000/svg" height="491" viewBox="0 0 982 491"><defs/><g transform="translate(-37.00,-39.00)"><g transform="translate(107.844000,49.217000)" id="shape1"><path d="M87.2,33.9L107.2,65.9" stroke-width="2.666670083999634" fill="none" stroke="#323232"/><text style="fill:#191919;font-family:HarmonyOS Sans;font-size:10.00pt;font-weight:bold" xml:space="preserve"><tspan y="7.9" x="1.2">Proximal Policy Optimization</tspan><tspan y="25.9" x="70.2">(PPO)</tspan></text></g><g transform="translate(239.439539,157.803500)" id="shape2"><path d="M78.3,6.9L102.3,-30.1" stroke-width="2.666670083999634" fill="none" stroke="#323232"/><text style="fill:#191919;font-family:HarmonyOS Sans;font-size:10.00pt;font-weight:bold" xml:space="preserve"><tspan y="24.9" x="-11.7">Data-Regularized Actor Critic</tspan><tspan y="42.9" x="58.3">(DrAC)</tspan></text></g><g transform="translate(361.156000,49.217600)" id="shape3"><path d="M87.2,33.9L107.2,65.9" stroke-width="2.666670083999634" fill="none" stroke="#323232"/><text style="fill:#191919;font-family:HarmonyOS Sans;font-size:10.00pt;font-weight:bold" xml:space="preserve"><tspan y="7.9" x="20.7">Phasic Policy Gradient</tspan><tspan y="25.9" x="70.7">(PPG)</tspan></text></g><g transform="translate(492.813000,157.803500)" id="shape4"><path d="M78.2,6.9L102.2,-30.1" stroke-width="2.666670083999634" fill="none" stroke="#323232"/><text style="fill:#191919;font-family:HarmonyOS Sans;font-size:10.00pt;font-weight:bold" xml:space="preserve"><tspan y="24.9" x="70.2">......</tspan></text></g><g transform="translate(108.852000,214.704000)" id="shape5"><path d="M86.6,38.2L106.6,70.2" stroke-width="2.666670083999634" fill="none" stroke="#323232"/><text style="fill:#191919;font-family:HarmonyOS Sans;font-size:10.00pt;font-weight:bold" xml:space="preserve"><tspan y="12.2" x="-18.9">Deep Deterministic Policy Gradient</tspan><tspan y="30.2" x="64.1">(DDPG)</tspan></text></g><g transform="translate(240.509000,323.289900)" id="shape6"><path d="M77.6,11.2L101.6,-25.8" stroke-width="2.666670083999634" fill="none" stroke="#323232"/><text style="fill:#191919;font-family:HarmonyOS Sans;font-size:10.00pt;font-weight:bold" xml:space="preserve"><tspan y="29.2" x="26.1">Soft Actor Critic</tspan><tspan y="47.2" x="61.1">(SAC)</tspan></text></g><g transform="translate(362.165000,214.704000)" id="shape7"><path d="M86.6,38.2L106.6,70.2" stroke-width="2.666670083999634" fill="none" stroke="#323232"/><text style="fill:#191919;font-family:HarmonyOS Sans;font-size:10.00pt;font-weight:bold" xml:space="preserve"><tspan y="12.2" x="24.6">Data-Regularized Q</tspan><tspan y="30.2" x="69.6">(DrQ)</tspan></text></g><g transform="translate(493.821000,323.289900)" id="shape8"><path d="M77.6,11.2L101.6,-25.8" stroke-width="2.666670083999634" fill="none" stroke="#323232"/><text style="fill:#191919;font-family:HarmonyOS Sans;font-size:10.00pt;font-weight:bold" xml:space="preserve"><tspan y="29.2" x="6.6">Data-Regularized Q v2</tspan><tspan y="47.2" x="50.1">(DrQ-v2)</tspan></text></g><g transform="translate(45.206000,103.846000)" id="group9"><path d="M.0,17.0L17.0,.0L17.0,11.2L844.4,11.2L844.4,22.8L17.0,22.8L17.0,34.0L.0,17.0z" transform="matrix(-1.000000,0.000000,0.000000,-1.000000,972.000000,34.015700)" stroke-width="1" fill="#000000" stroke="#b4bff3" id="shape10" fill-rule="nonzero"/><g id="shape11"><path d="M.0,.0L120.0,.0L120.0,35.0L.0,35.0L.0,.0z" fill="#ffc000" fill-rule="nonzero"/><text style="fill:#ffffff;font-family:微软雅黑;font-size:10.00pt;font-weight:bold" xml:space="preserve"><tspan y="23.0" x="17.5">On-Policy RL</tspan></text></g></g><g transform="translate(109.245000,395.762000)" id="shape12"><path d="M86.2,27.0L106.2,59.0" stroke-width="2.666670083999634" fill="none" stroke="#323232"/><text style="fill:#191919;font-family:HarmonyOS Sans;font-size:10.00pt;font-weight:bold" xml:space="preserve"><tspan style="fill:#000000" y="1.0" x="-66.3">Importance Weighted Actor-Learner Architecture</tspan><tspan y="19.0" x="58.2">(IMPALA)</tspan></text></g><g transform="translate(240.901000,504.348500)" id="shape13"><path d="M77.2,.0L101.2,-37.0" stroke-width="2.666670083999634" fill="none" stroke="#323232"/><text style="fill:#191919;font-family:HarmonyOS Sans;font-size:10.00pt;font-weight:bold" xml:space="preserve"><tspan y="18.0" x="67.2">......</tspan></text></g><g transform="translate(44.814000,273.691000)" id="group14"><path d="M.0,17.0L17.0,.0L17.0,11.2L844.4,11.2L844.4,22.8L17.0,22.8L17.0,34.0L.0,17.0z" transform="matrix(-1.000000,0.000000,0.000000,-1.000000,972.785000,34.015700)" stroke-width="1" fill="#000000" stroke="#b4bff3" id="shape15" fill-rule="nonzero"/><g id="shape16"><path d="M.0,.0L120.0,.0L120.0,35.0L.0,35.0L.0,.0z" fill="#00b050" fill-rule="nonzero"/><text style="fill:#ffffff;font-family:微软雅黑;font-size:10.00pt;font-weight:bold" xml:space="preserve"><tspan y="23.0" x="16.5">Off-Policy RL</tspan></text></g></g><g transform="translate(44.812000,443.537600)" id="group17"><path d="M.0,17.0L17.0,.0L17.0,11.2L844.4,11.2L844.4,22.8L17.0,22.8L17.0,34.0L.0,17.0z" transform="matrix(-1.000000,0.000000,0.000000,-1.000000,972.787000,34.015700)" stroke-width="1" fill="#000000" stroke="#b4bff3" id="shape18" fill-rule="nonzero"/><g transform="translate(0.000000,0.000800)" id="shape19"><path d="M.0,.0L120.0,.0L120.0,35.0L.0,35.0L.0,.0z" fill="#7030a0" fill-rule="nonzero"/><text style="fill:#ffffff;font-family:微软雅黑;font-size:10.00pt;font-weight:bold" xml:space="preserve"><tspan y="23.0" x="13.0">Distributed RL</tspan></text></g></g><g transform="translate(679.068000,225.916200)" id="shape20"><path d="M23.0,27.0L43.0,59.0" stroke-width="2.666670083999634" fill="none" stroke="#323232"/><text style="fill:#191919;font-family:HarmonyOS Sans;font-size:10.00pt;font-weight:bold" xml:space="preserve"><tspan y="19.0" x="15.0">......</tspan></text></g></g></svg>