<svg viewBox="0 0 982 491" xmlns:xlink="http://www.w3.org/1999/xlink" height="491" xmlns="http://www.w3.org/2000/svg" width="982"><defs/><g transform="translate(-67.00,-138.00)"><g id="shape1" transform="translate(137.844000,148.217300)"><path fill="none" stroke-width="2.666666746139526" stroke="#323232" d="M87.2,33.9L107.2,65.9"/><text xml:space="preserve" style="fill:#191919;font-family:HarmonyOS Sans;font-size:10.00pt;font-weight:bold"><tspan x="13.7" y="7.9">Proximal Policy Gradient</tspan><tspan x="70.2" y="25.9">(PPO)</tspan></text></g><g id="shape2" transform="translate(227.282000,256.803200)"><path fill="none" stroke-width="2.666666746139526" stroke="#323232" d="M78.2,6.9L102.2,-30.1"/><text xml:space="preserve" style="fill:#191919;font-family:HarmonyOS Sans;font-size:10.00pt;font-weight:bold"><tspan x="-11.8" y="24.9">Data-Regularized Actor Critic</tspan><tspan x="58.2" y="42.9">(DrAC)</tspan></text></g><g id="shape3" transform="translate(306.719000,148.217300)"><path fill="none" stroke-width="2.666666746139526" stroke="#323232" d="M87.2,33.9L107.2,65.9"/><text xml:space="preserve" style="fill:#191919;font-family:HarmonyOS Sans;font-size:10.00pt;font-weight:bold"><tspan x="20.7" y="7.9">Phasic Policy Gradient</tspan><tspan x="70.7" y="25.9">(PPG)</tspan></text></g><g id="shape4" transform="translate(396.157000,256.803200)"><path fill="none" stroke-width="2.666666746139526" stroke="#323232" d="M78.2,6.9L102.2,-30.1"/><text xml:space="preserve" style="fill:#191919;font-family:HarmonyOS Sans;font-size:10.00pt;font-weight:bold"><tspan x="70.2" y="24.9">......</tspan></text></g><g id="shape5" transform="translate(138.852000,313.704400)"><path fill="none" stroke-width="2.666670083999634" stroke="#323232" d="M86.6,38.2L106.6,70.2"/><text xml:space="preserve" style="fill:#191919;font-family:HarmonyOS Sans;font-size:10.00pt;font-weight:bold"><tspan x="37.1" y="12.2">Soft Actor Critic</tspan><tspan x="70.1" y="30.2">(SAC)</tspan></text></g><g id="shape6" transform="translate(228.290000,422.290400)"><path fill="none" stroke-width="2.666670083999634" stroke="#323232" d="M77.6,11.2L101.6,-25.8"/><text xml:space="preserve" style="fill:#191919;font-family:HarmonyOS Sans;font-size:10.00pt;font-weight:bold"><tspan x="18.1" y="29.2">Data-Regularized Q</tspan><tspan x="60.6" y="47.2">(DrQ)</tspan></text></g><g id="shape7" transform="translate(307.727000,313.704400)"><path fill="none" stroke-width="2.666670083999634" stroke="#323232" d="M86.6,38.2L106.6,70.2"/><text xml:space="preserve" style="fill:#191919;font-family:HarmonyOS Sans;font-size:10.00pt;font-weight:bold"><tspan x="15.6" y="12.2">Data-Regularized Q v2</tspan><tspan x="59.1" y="30.2">(DrQ-v2)</tspan></text></g><g id="shape8" transform="translate(397.165000,422.290400)"><path fill="none" stroke-width="2.666670083999634" stroke="#323232" d="M77.6,11.2L101.6,-25.8"/><text xml:space="preserve" style="fill:#191919;font-family:HarmonyOS Sans;font-size:10.00pt;font-weight:bold"><tspan x="69.6" y="29.2">......</tspan></text></g><g id="group9" transform="translate(75.206500,202.845733)"><path id="shape10" fill="#000000" fill-rule="nonzero" stroke-width="1" transform="matrix(-1.000000,0.000000,0.000000,-1.000000,972.000000,34.015650)" stroke="#b4bff3" d="M.0,17.0L17.0,.0L17.0,11.2L844.4,11.2L844.4,22.8L17.0,22.8L17.0,34.0L.0,17.0z"/><g id="shape11"><path fill="#ffc000" fill-rule="nonzero" d="M.0,.0L120.0,.0L120.0,35.0L.0,35.0L.0,.0z"/><text xml:space="preserve" style="fill:#ffffff;font-family:微软雅黑;font-size:10.00pt;font-weight:bold"><tspan x="17.5" y="23.0">On-Policy RL</tspan></text></g></g><g id="shape12" transform="translate(139.245500,494.762000)"><path fill="none" stroke-width="2.666670083999634" stroke="#323232" d="M86.2,27.0L106.2,59.0"/><text xml:space="preserve" style="fill:#191919;font-family:HarmonyOS Sans;font-size:10.00pt;font-weight:bold"><tspan x="-66.3" y="1.0" style="fill:#000000">Importance Weighted Actor-Learner Architecture</tspan><tspan x="58.2" y="19.0">(IMPALA)</tspan></text></g><g id="shape13" transform="translate(228.683500,603.348000)"><path fill="none" stroke-width="2.666670083999634" stroke="#323232" d="M77.2,.0L101.2,-37.0"/><text xml:space="preserve" style="fill:#191919;font-family:HarmonyOS Sans;font-size:10.00pt;font-weight:bold"><tspan x="67.2" y="18.0">......</tspan></text></g><g id="group14" transform="translate(74.814250,372.691467)"><path id="shape15" fill="#000000" fill-rule="nonzero" stroke-width="1" transform="matrix(-1.000000,0.000000,0.000000,-1.000000,972.784500,34.015700)" stroke="#b4bff3" d="M.0,17.0L17.0,.0L17.0,11.2L844.4,11.2L844.4,22.8L17.0,22.8L17.0,34.0L.0,17.0z"/><g id="shape16"><path fill="#00b050" fill-rule="nonzero" d="M.0,.0L120.0,.0L120.0,35.0L.0,35.0L.0,.0z"/><text xml:space="preserve" style="fill:#ffffff;font-family:微软雅黑;font-size:10.00pt;font-weight:bold"><tspan x="16.5" y="23.0">Off-Policy RL</tspan></text></g></g><g id="group17" transform="translate(74.813000,542.537200)"><path id="shape18" fill="#000000" fill-rule="nonzero" stroke-width="1" transform="matrix(-1.000000,0.000000,0.000000,-1.000000,972.787000,34.015650)" stroke="#b4bff3" d="M.0,17.0L17.0,.0L17.0,11.2L844.4,11.2L844.4,22.8L17.0,22.8L17.0,34.0L.0,17.0z"/><g id="shape19" transform="translate(0.000000,0.000800)"><path fill="#7030a0" fill-rule="nonzero" d="M.0,.0L120.0,.0L120.0,35.0L.0,35.0L.0,.0z"/><text xml:space="preserve" style="fill:#ffffff;font-family:微软雅黑;font-size:10.00pt;font-weight:bold"><tspan x="13.0" y="23.0">Distributed RL</tspan></text></g></g></g></svg>