<svg width="937" xmlns="http://www.w3.org/2000/svg" viewBox="0 0 937 573" xmlns:xlink="http://www.w3.org/1999/xlink" height="573" xmlns:ev="http://www.w3.org/2001/xml-events"><defs/><g transform="translate(5.5,5.5)" id="page1"><rect width="927" x="0" height="563" y="0" fill="none"/><path stroke="#454545" stroke-linecap="round" transform="translate(523.19,287.50)" id="shape1" d="M2.6,.0L26.2,.0C27.9,.0,30.2,.0,32.2,.0C33.1,.0,34.1,.0,35.2,.0L65.6,.0" stroke-width="4" fill="none"/><path stroke="#454545" stroke-linecap="round" transform="translate(523.19,213.93)" id="shape2" d="M2.6,73.6L26.2,73.6C27.9,73.6,29.2,72.2,29.2,70.6L29.2,-64.6C29.2,-66.2,29.0,-68.7,29.9,-70.5C31.0,-72.3,32.9,-73.6,35.2,-73.6L65.6,-73.6" stroke-width="4" fill="none"/><path stroke="#454545" stroke-linecap="round" transform="translate(523.19,361.08)" id="shape3" d="M2.6,-73.6L26.2,-73.6C27.9,-73.6,29.2,-72.2,29.2,-70.6L29.2,64.6C29.2,66.2,29.0,68.7,29.9,70.5C31.0,72.3,32.9,73.6,35.2,73.6L65.6,73.6" stroke-width="4" fill="none"/><path stroke="#454545" stroke-linecap="round" transform="translate(704.30,267.02)" id="shape4" d="M-12.5,20.5L-0.3,20.5C1.4,20.5,2.7,19.1,2.7,17.5L2.7,-11.5C2.7,-13.1,2.5,-15.6,3.4,-17.4C4.5,-19.2,6.4,-20.5,8.7,-20.5L12.5,-20.5" stroke-width="4" fill="none"/><path stroke="#454545" stroke-linecap="round" transform="translate(704.30,287.50)" id="shape5" d="M-12.5,.0L-0.3,.0C1.4,.0,3.7,.0,5.7,.0C6.6,.0,7.6,.0,8.7,.0L12.5,.0" stroke-width="4" fill="none"/><path stroke="#454545" stroke-linecap="round" transform="translate(704.30,307.98)" id="shape6" d="M-12.5,-20.5L-0.3,-20.5C1.4,-20.5,2.7,-19.1,2.7,-17.5L2.7,11.5C2.7,13.1,2.5,15.6,3.4,17.4C4.5,19.2,6.4,20.5,8.7,20.5L12.5,20.5" stroke-width="4" fill="none"/><path stroke="#454545" stroke-linecap="round" transform="translate(391.97,384.77)" id="shape7" d="M-2.6,-97.3L-26.2,-97.3C-27.9,-97.3,-29.2,-95.9,-29.2,-94.3L-29.2,88.3C-29.2,89.9,-29.0,92.4,-29.9,94.1C-31.0,96.0,-32.9,97.3,-35.2,97.3L-65.6,97.3" stroke-width="4" fill="none"/><path stroke="#454545" stroke-linecap="round" transform="translate(391.97,245.59)" id="shape8" d="M-2.6,41.9L-26.2,41.9C-27.9,41.9,-29.2,40.6,-29.2,38.9L-29.2,-32.9C-29.2,-34.6,-29.0,-37.0,-29.9,-38.8C-31.0,-40.6,-32.9,-41.9,-35.2,-41.9L-65.6,-41.9" stroke-width="4" fill="none"/><path stroke="#454545" stroke-linecap="round" transform="translate(391.97,311.19)" id="shape9" d="M-2.6,-23.7L-26.2,-23.7C-27.9,-23.7,-29.2,-22.3,-29.2,-20.7L-29.2,14.7C-29.2,16.3,-29.0,18.8,-29.9,20.6C-31.0,22.4,-32.9,23.7,-35.2,23.7L-65.6,23.7" stroke-width="4" fill="none"/><path stroke="#454545" stroke-linecap="round" transform="translate(709.30,119.88)" id="shape10" d="M-12.5,20.5L-0.3,20.5C1.4,20.5,2.7,19.1,2.7,17.5L2.7,-11.5C2.7,-13.1,2.5,-15.6,3.4,-17.4C4.5,-19.2,6.4,-20.5,8.7,-20.5L12.5,-20.5" stroke-width="4" fill="none"/><path stroke="#454545" stroke-linecap="round" transform="translate(709.30,140.35)" id="shape11" d="M-12.5,.0L-0.3,.0C1.4,.0,3.7,.0,5.7,.0C6.6,.0,7.6,.0,8.7,.0L12.5,.0" stroke-width="4" fill="none"/><path stroke="#454545" stroke-linecap="round" transform="translate(709.30,160.82)" id="shape12" d="M-12.5,-20.5L-0.3,-20.5C1.4,-20.5,2.7,-19.1,2.7,-17.5L2.7,11.5C2.7,13.1,2.5,15.6,3.4,17.4C4.5,19.2,6.4,20.5,8.7,20.5L12.5,20.5" stroke-width="4" fill="none"/><path stroke="#454545" stroke-linecap="round" transform="translate(733.30,414.18)" id="shape13" d="M-12.5,20.5L-0.3,20.5C1.4,20.5,2.7,19.1,2.7,17.5L2.7,-11.5C2.7,-13.1,2.5,-15.6,3.4,-17.4C4.5,-19.2,6.4,-20.5,8.7,-20.5L12.5,-20.5" stroke-width="4" fill="none"/><path stroke="#454545" stroke-linecap="round" transform="translate(733.30,455.13)" id="shape14" d="M-12.5,-20.5L-0.3,-20.5C1.4,-20.5,2.7,-19.1,2.7,-17.5L2.7,11.5C2.7,13.1,2.5,15.6,3.4,17.4C4.5,19.2,6.4,20.5,8.7,20.5L12.5,20.5" stroke-width="4" fill="none"/><path stroke="#454545" stroke-linecap="round" transform="translate(234.86,461.56)" id="shape15" d="M12.5,20.5L.3,20.5C-1.4,20.5,-2.7,19.1,-2.7,17.5L-2.7,-11.5C-2.7,-13.1,-2.5,-15.6,-3.4,-17.4C-4.5,-19.2,-6.4,-20.5,-8.7,-20.5L-12.5,-20.5" stroke-width="4" fill="none"/><path stroke="#454545" stroke-linecap="round" transform="translate(733.30,434.65)" id="shape16" d="M-12.5,.0L-0.3,.0C1.4,.0,3.7,.0,5.7,.0C6.6,.0,7.6,.0,8.7,.0L12.5,.0" stroke-width="4" fill="none"/><path stroke="#454545" stroke-linecap="round" transform="translate(150.86,193.45)" id="shape17" d="M12.5,10.2L.3,10.2C-1.4,10.2,-2.7,8.9,-2.7,7.2L-2.7,-1.2C-2.7,-2.9,-2.5,-5.3,-3.4,-7.1C-4.5,-9.0,-6.4,-10.2,-8.7,-10.2L-12.5,-10.2" stroke-width="4" fill="none"/><path stroke="#454545" stroke-linecap="round" transform="translate(150.86,213.93)" id="shape18" d="M12.5,-10.2L.3,-10.2C-1.4,-10.2,-2.7,-8.9,-2.7,-7.2L-2.7,1.2C-2.7,2.9,-2.5,5.3,-3.4,7.1C-4.5,9.0,-6.4,10.2,-8.7,10.2L-12.5,10.2" stroke-width="4" fill="none"/><path stroke="#454545" stroke-linecap="round" transform="translate(153.86,314.41)" id="shape19" d="M12.5,20.5L.3,20.5C-1.4,20.5,-2.7,19.1,-2.7,17.5L-2.7,-11.5C-2.7,-13.1,-2.5,-15.6,-3.4,-17.4C-4.5,-19.2,-6.4,-20.5,-8.7,-20.5L-12.5,-20.5" stroke-width="4" fill="none"/><path stroke="#454545" stroke-linecap="round" transform="translate(153.86,334.89)" id="shape20" d="M12.5,.0L.3,.0C-1.4,.0,-3.7,.0,-5.7,.0C-6.6,.0,-7.6,.0,-8.7,.0L-12.5,.0" stroke-width="4" fill="none"/><path stroke="#454545" stroke-linecap="round" transform="translate(153.86,355.36)" id="shape21" d="M12.5,-20.5L.3,-20.5C-1.4,-20.5,-2.7,-19.1,-2.7,-17.5L-2.7,11.5C-2.7,13.1,-2.5,15.6,-3.4,17.4C-4.5,19.2,-6.4,20.5,-8.7,20.5L-12.5,20.5" stroke-width="4" fill="none"/><path stroke="#454545" stroke-linecap="round" transform="translate(234.86,482.04)" id="shape22" d="M12.5,.0L.3,.0C-1.4,.0,-3.7,.0,-5.7,.0C-6.6,.0,-7.6,.0,-8.7,.0L-12.5,.0" stroke-width="4" fill="none"/><path stroke="#454545" stroke-linecap="round" transform="translate(234.86,502.51)" id="shape23" d="M12.5,-20.5L.3,-20.5C-1.4,-20.5,-2.7,-19.1,-2.7,-17.5L-2.7,11.5C-2.7,13.1,-2.5,15.6,-3.4,17.4C-4.5,19.2,-6.4,20.5,-8.7,20.5L-12.5,20.5" stroke-width="4" fill="none"/><path stroke="#454545" stroke-linecap="round" transform="translate(391.97,190.23)" id="shape24" d="M-2.6,97.3L-26.2,97.3C-27.9,97.3,-29.2,95.9,-29.2,94.3L-29.2,-88.3C-29.2,-89.9,-29.0,-92.4,-29.9,-94.1C-31.0,-96.0,-32.9,-97.3,-35.2,-97.3L-65.6,-97.3" stroke-width="4" fill="none"/><path stroke="#454545" stroke-linecap="round" transform="translate(168.86,82.73)" id="shape25" d="M12.5,10.2C.1,10.2,.5,-10.2,-12.5,-10.2" stroke-width="4" fill="none"/><path stroke="#454545" stroke-linecap="round" transform="translate(168.86,103.20)" id="shape26" d="M12.5,-10.2C.1,-10.2,.5,10.2,-12.5,10.2" stroke-width="4" fill="none"/><g transform="translate(389.361000,253.000000)" id="shape27"><path stroke="#303030" d="M34.5,.0L101.9,.0C121.0,.0,136.4,15.4,136.4,34.5C136.4,53.6,121.0,69.0,101.9,69.0L34.5,69.0C15.4,69.0,.0,53.6,.0,34.5C.0,15.4,15.4,.0,34.5,.0z" fill="#0053d6" fill-rule="nonzero" stroke-width="4"/><text xml:space="preserve" style="fill:#ffffff;font-family:微软雅黑;font-size:18.00pt;font-weight:bold"><tspan x="34.3" y="42.5">RLLTE</tspan></text></g><g transform="translate(588.801000,262.500000)" id="shape28"><path stroke="#454545" d="M4.0,.0L99.0,.0C101.2,.0,103.0,1.8,103.0,4.0L103.0,46.0C103.0,48.2,101.2,50.0,99.0,50.0L4.0,50.0C1.8,50.0,.0,48.2,.0,46.0L.0,4.0C.0,1.8,1.8,.0,4.0,.0z" fill="#ffffff" fill-rule="nonzero" stroke-width="4"/><text xml:space="preserve" style="fill:#303030;font-family:微软雅黑;font-size:14.00pt;font-weight:bold"><tspan x="25.3" y="30.0">Xploit</tspan></text></g><g transform="translate(588.801000,115.350000)" id="shape29"><path stroke="#454545" d="M4.0,.0L104.0,.0C106.2,.0,108.0,1.8,108.0,4.0L108.0,46.0C108.0,48.2,106.2,50.0,104.0,50.0L4.0,50.0C1.8,50.0,.0,48.2,.0,46.0L.0,4.0C.0,1.8,1.8,.0,4.0,.0z" fill="#ffffff" fill-rule="nonzero" stroke-width="4"/><text xml:space="preserve" style="fill:#303030;font-family:微软雅黑;font-size:14.00pt;font-weight:bold"><tspan x="24.8" y="30.0">Xplore</tspan></text></g><g transform="translate(588.801000,409.650000)" id="shape30"><path stroke="#454545" d="M4.0,.0L128.0,.0C130.2,.0,132.0,1.8,132.0,4.0L132.0,46.0C132.0,48.2,130.2,50.0,128.0,50.0L4.0,50.0C1.8,50.0,.0,48.2,.0,46.0L.0,4.0C.0,1.8,1.8,.0,4.0,.0z" fill="#ffffff" fill-rule="nonzero" stroke-width="4"/><text xml:space="preserve" style="fill:#303030;font-family:微软雅黑;font-size:14.00pt;font-weight:bold"><tspan x="25.5" y="30.0">Common</tspan></text></g><g transform="translate(716.801000,214.300000)" id="shape31"><path d="M.0,.0L85.0,.0L85.0,32.3L.0,32.3L.0,.0z" fill="#ffffff" fill-rule="nonzero"/><path stroke="#454545" d="M.0,32.3L85.0,32.3" stroke-width="4" fill="none"/><text xml:space="preserve" style="fill:#303030;font-family:微软雅黑;font-size:11.00pt;font-weight:bold"><tspan x="14.4" y="19.4">Encoder</tspan></text></g><g transform="translate(716.801000,255.250000)" id="shape32"><path d="M.0,.0L69.0,.0L69.0,32.3L.0,32.3L.0,.0z" fill="#ffffff" fill-rule="nonzero"/><path stroke="#454545" d="M.0,32.3L69.0,32.3" stroke-width="4" fill="none"/><text xml:space="preserve" style="fill:#303030;font-family:微软雅黑;font-size:11.00pt;font-weight:bold"><tspan x="13.6" y="19.4">Agent</tspan></text></g><g transform="translate(716.801000,296.200000)" id="shape33"><path d="M.0,.0L82.0,.0L82.0,32.3L.0,32.3L.0,.0z" fill="#ffffff" fill-rule="nonzero"/><path stroke="#454545" d="M.0,32.3L82.0,32.3" stroke-width="4" fill="none"/><text xml:space="preserve" style="fill:#303030;font-family:微软雅黑;font-size:11.00pt;font-weight:bold"><tspan x="14.1" y="19.4">Storage</tspan></text></g><g transform="translate(247.361000,457.037500)" id="shape34"><path stroke="#454545" d="M4.0,.0L75.0,.0C77.2,.0,79.0,1.8,79.0,4.0L79.0,46.0C79.0,48.2,77.2,50.0,75.0,50.0L4.0,50.0C1.8,50.0,.0,48.2,.0,46.0L.0,4.0C.0,1.8,1.8,.0,4.0,.0z" fill="#ffffff" fill-rule="nonzero" stroke-width="4"/><text xml:space="preserve" style="fill:#303030;font-family:微软雅黑;font-size:14.00pt;font-weight:bold"><tspan x="24.8" y="30.0">Env</tspan></text></g><g transform="translate(163.361000,178.687500)" id="shape35"><path stroke="#454545" d="M4.0,.0L159.0,.0C161.2,.0,163.0,1.8,163.0,4.0L163.0,46.0C163.0,48.2,161.2,50.0,159.0,50.0L4.0,50.0C1.8,50.0,.0,48.2,.0,46.0L.0,4.0C.0,1.8,1.8,.0,4.0,.0z" fill="#ffffff" fill-rule="nonzero" stroke-width="4"/><text xml:space="preserve" style="fill:#303030;font-family:微软雅黑;font-size:14.00pt;font-weight:bold"><tspan x="26.0" y="30.0">Deployment</tspan></text></g><g transform="translate(166.361000,309.887500)" id="shape36"><path stroke="#454545" d="M4.0,.0L156.0,.0C158.2,.0,160.0,1.8,160.0,4.0L160.0,46.0C160.0,48.2,158.2,50.0,156.0,50.0L4.0,50.0C1.8,50.0,.0,48.2,.0,46.0L.0,4.0C.0,1.8,1.8,.0,4.0,.0z" fill="#ffffff" fill-rule="nonzero" stroke-width="4"/><text xml:space="preserve" style="fill:#303030;font-family:微软雅黑;font-size:14.00pt;font-weight:bold"><tspan x="25.5" y="30.0">Pre-training</tspan></text></g><g transform="translate(721.801000,67.150000)" id="shape37"><path d="M.0,.0L144.0,.0L144.0,32.3L.0,32.3L.0,.0z" fill="#ffffff" fill-rule="nonzero"/><path stroke="#454545" d="M.0,32.3L144.0,32.3" stroke-width="4" fill="none"/><text xml:space="preserve" style="fill:#303030;font-family:微软雅黑;font-size:11.00pt;font-weight:bold"><tspan x="13.9" y="19.4">Intrinsic Reward</tspan></text></g><g transform="translate(721.801000,108.100000)" id="shape38"><path d="M.0,.0L133.0,.0L133.0,32.3L.0,32.3L.0,.0z" fill="#ffffff" fill-rule="nonzero"/><path stroke="#454545" d="M.0,32.3L133.0,32.3" stroke-width="4" fill="none"/><text xml:space="preserve" style="fill:#303030;font-family:微软雅黑;font-size:11.00pt;font-weight:bold"><tspan x="14.9" y="19.4">Augmentation</tspan></text></g><g transform="translate(721.801000,149.050000)" id="shape39"><path d="M.0,.0L112.0,.0L112.0,32.3L.0,32.3L.0,.0z" fill="#ffffff" fill-rule="nonzero"/><path stroke="#454545" d="M.0,32.3L112.0,32.3" stroke-width="4" fill="none"/><text xml:space="preserve" style="fill:#303030;font-family:微软雅黑;font-size:11.00pt;font-weight:bold"><tspan x="13.4" y="19.4">Distribution</tspan></text></g><g transform="translate(745.801000,361.450000)" id="shape40"><path d="M.0,.0L75.0,.0L75.0,32.3L.0,32.3L.0,.0z" fill="#ffffff" fill-rule="nonzero"/><path stroke="#454545" d="M.0,32.3L75.0,32.3" stroke-width="4" fill="none"/><text xml:space="preserve" style="fill:#303030;font-family:微软雅黑;font-size:11.00pt;font-weight:bold"><tspan x="13.9" y="19.4">Engine</tspan></text></g><g transform="translate(745.801000,443.350000)" id="shape41"><path d="M.0,.0L65.0,.0L65.0,32.3L.0,32.3L.0,.0z" fill="#ffffff" fill-rule="nonzero"/><path stroke="#454545" d="M.0,32.3L65.0,32.3" stroke-width="4" fill="none"/><text xml:space="preserve" style="fill:#303030;font-family:微软雅黑;font-size:11.00pt;font-weight:bold"><tspan x="14.4" y="19.4">······</tspan></text></g><g transform="translate(108.361000,408.837500)" id="shape42"><path d="M.0,.0L114.0,.0L114.0,32.3L.0,32.3L.0,.0z" fill="#ffffff" fill-rule="nonzero"/><path stroke="#454545" d="M.0,32.3L114.0,32.3" stroke-width="4" fill="none"/><text xml:space="preserve" style="fill:#303030;font-family:微软雅黑;font-size:11.00pt;font-weight:bold"><tspan x="13.6" y="19.4">Atari Games</tspan></text></g><g transform="translate(745.801000,402.400000)" id="shape43"><path d="M.0,.0L76.0,.0L76.0,32.3L.0,32.3L.0,.0z" fill="#ffffff" fill-rule="nonzero"/><path stroke="#454545" d="M.0,32.3L76.0,32.3" stroke-width="4" fill="none"/><text xml:space="preserve" style="fill:#303030;font-family:微软雅黑;font-size:11.00pt;font-weight:bold"><tspan x="13.9" y="19.4">Logger</tspan></text></g><g transform="translate(60.361000,150.962500)" id="shape44"><path d="M.0,.0L78.0,.0L78.0,32.3L.0,32.3L.0,.0z" fill="#ffffff" fill-rule="nonzero"/><path stroke="#454545" d="M.0,32.3L78.0,32.3" stroke-width="4" fill="none"/><text xml:space="preserve" style="fill:#303030;font-family:微软雅黑;font-size:11.00pt;font-weight:bold"><tspan x="14.1" y="19.4">Python</tspan></text></g><g transform="translate(83.361000,191.912500)" id="shape45"><path d="M.0,.0L55.0,.0L55.0,32.3L.0,32.3L.0,.0z" fill="#ffffff" fill-rule="nonzero"/><path stroke="#454545" d="M.0,32.3L55.0,32.3" stroke-width="4" fill="none"/><text xml:space="preserve" style="fill:#303030;font-family:微软雅黑;font-size:11.00pt;font-weight:bold"><tspan x="12.9" y="19.4">C++</tspan></text></g><g transform="translate(88.361000,261.687500)" id="shape46"><path d="M.0,.0L53.0,.0L53.0,32.3L.0,32.3L.0,.0z" fill="#ffffff" fill-rule="nonzero"/><path stroke="#454545" d="M.0,32.3L53.0,32.3" stroke-width="4" fill="none"/><text xml:space="preserve" style="fill:#303030;font-family:微软雅黑;font-size:11.00pt;font-weight:bold"><tspan x="12.9" y="19.4">ICM</tspan></text></g><g transform="translate(90.361000,302.637500)" id="shape47"><path d="M.0,.0L51.0,.0L51.0,32.3L.0,32.3L.0,.0z" fill="#ffffff" fill-rule="nonzero"/><path stroke="#454545" d="M.0,32.3L51.0,32.3" stroke-width="4" fill="none"/><text xml:space="preserve" style="fill:#303030;font-family:微软雅黑;font-size:11.00pt;font-weight:bold"><tspan x="13.1" y="19.4">RE3</tspan></text></g><g transform="translate(76.361000,343.587500)" id="shape48"><path d="M.0,.0L65.0,.0L65.0,32.3L.0,32.3L.0,.0z" fill="#ffffff" fill-rule="nonzero"/><path stroke="#454545" d="M.0,32.3L65.0,32.3" stroke-width="4" fill="none"/><text xml:space="preserve" style="fill:#303030;font-family:微软雅黑;font-size:11.00pt;font-weight:bold"><tspan x="14.4" y="19.4">······</tspan></text></g><g transform="translate(81.361000,449.787500)" id="shape49"><path d="M.0,.0L141.0,.0L141.0,32.3L.0,32.3L.0,.0z" fill="#ffffff" fill-rule="nonzero"/><path stroke="#454545" d="M.0,32.3L141.0,32.3" stroke-width="4" fill="none"/><text xml:space="preserve" style="fill:#303030;font-family:微软雅黑;font-size:11.00pt;font-weight:bold"><tspan x="15.1" y="19.4">Procgen Games</tspan></text></g><g transform="translate(157.361000,490.737500)" id="shape50"><path d="M.0,.0L65.0,.0L65.0,32.3L.0,32.3L.0,.0z" fill="#ffffff" fill-rule="nonzero"/><path stroke="#454545" d="M.0,32.3L65.0,32.3" stroke-width="4" fill="none"/><text xml:space="preserve" style="fill:#303030;font-family:微软雅黑;font-size:11.00pt;font-weight:bold"><tspan x="14.4" y="19.4">······</tspan></text></g><g transform="translate(181.361000,67.962500)" id="shape51"><path stroke="#454545" d="M4.0,.0L141.0,.0C143.2,.0,145.0,1.8,145.0,4.0L145.0,46.0C145.0,48.2,143.2,50.0,141.0,50.0L4.0,50.0C1.8,50.0,.0,48.2,.0,46.0L.0,4.0C.0,1.8,1.8,.0,4.0,.0z" fill="#ffffff" fill-rule="nonzero" stroke-width="4"/><text xml:space="preserve" style="fill:#303030;font-family:微软雅黑;font-size:14.00pt;font-weight:bold"><tspan x="26.0" y="30.0">Evaluation</tspan></text></g><g transform="translate(70.361000,40.237500)" id="shape52"><path d="M.0,.0L86.0,.0L86.0,32.3L.0,32.3L.0,.0z" fill="#ffffff" fill-rule="nonzero"/><path stroke="#454545" d="M.0,32.3L86.0,32.3" stroke-width="4" fill="none"/><text xml:space="preserve" style="fill:#303030;font-family:微软雅黑;font-size:11.00pt;font-weight:bold"><tspan x="12.6" y="19.4">IQM, OG</tspan></text></g><g transform="translate(91.361000,81.187500)" id="shape53"><path d="M.0,.0L65.0,.0L65.0,32.3L.0,32.3L.0,.0z" fill="#ffffff" fill-rule="nonzero"/><path stroke="#454545" d="M.0,32.3L65.0,32.3" stroke-width="4" fill="none"/><text xml:space="preserve" style="fill:#303030;font-family:微软雅黑;font-size:11.00pt;font-weight:bold"><tspan x="9.9" y="19.4">······</tspan></text></g></g></svg>