<svg width="826" xmlns:xlink="http://www.w3.org/1999/xlink" viewBox="0 0 826 531" height="531" xmlns:ev="http://www.w3.org/2001/xml-events" xmlns="http://www.w3.org/2000/svg"><defs/><g id="page1" transform="translate(5.5,5.5)"><rect width="816" fill="none" height="521" y="0" x="0"/><path fill="#eef4ff" fill-rule="nonzero" id="shape1" d="M740.3,162.0L740.3,11.0C740.3,4.9,735.4,.0,729.3,.0L11.0,.0C4.9,.0,.0,4.9,.0,11.0L.0,162.0C.0,168.1,4.9,173.0,11.0,173.0L729.3,173.0C735.4,173.0,740.3,168.1,740.3,162.0z" transform="translate(37.656000,219.958000)"/><g id="shape2" transform="translate(37.654900,219.958100)"><path fill="#fd6969" fill-rule="nonzero" d="M115.9,162.0L115.9,11.0C115.9,4.9,111.0,.0,104.9,.0L11.0,.0C4.9,.0,.0,4.9,.0,11.0L.0,162.0C.0,168.1,4.9,173.0,11.0,173.0L104.9,173.0C111.0,173.0,115.9,168.1,115.9,162.0z"/><text style="fill:#ffffff;font-family:HarmonyOS Sans;font-size:22.00pt;font-weight:bold" xml:space="preserve"><tspan y="96.0" x="25.2">Core</tspan></text></g><path fill="#eef4ff" fill-rule="nonzero" id="shape3" d="M740.3,71.6L740.3,11.0C740.3,4.9,735.4,.0,729.3,.0L11.0,.0C4.9,.0,.0,4.9,.0,11.0L.0,71.6C.0,77.7,4.9,82.6,11.0,82.6L729.3,82.6C735.4,82.6,740.3,77.7,740.3,71.6z" transform="translate(37.655000,400.377800)"/><g id="shape4" transform="translate(37.653900,400.377750)"><path fill="#3ca057" fill-rule="nonzero" d="M115.9,71.6L115.9,11.0C115.9,4.9,111.0,.0,104.9,.0L11.0,.0C4.9,.0,.0,4.9,.0,11.0L.0,71.6C.0,77.7,4.9,82.6,11.0,82.6L104.9,82.6C111.0,82.6,115.9,77.7,115.9,71.6z"/><text style="fill:#ffffff;font-family:HarmonyOS Sans;font-size:22.00pt;font-weight:bold" xml:space="preserve"><tspan y="50.8" x="25.2">App.</tspan></text></g><path fill="none" stroke-width="2" id="shape5" d="M21.6,12.7L10.2,12.7L10.2,17.0L.0,8.5L10.2,.0L10.2,4.2L21.6,4.2L21.6,12.7z" transform="matrix(0.000000,-1.000000,1.000000,0.000000,443.641050,414.628400)" stroke="#101843"/><path fill="none" stroke-width="2" id="shape6" d="M21.6,12.7L10.2,12.7L10.2,17.0L.0,8.5L10.2,.0L10.2,4.2L21.6,4.2L21.6,12.7z" transform="matrix(0.000000,-1.000000,1.000000,0.000000,640.500050,414.628400)" stroke="#101843"/><path fill="none" stroke-width="2" id="shape7" d="M21.6,12.7L10.2,12.7L10.2,17.0L.0,8.5L10.2,.0L10.2,4.2L21.6,4.2L21.6,12.7z" transform="matrix(0.000000,-1.000000,1.000000,0.000000,248.641050,414.628400)" stroke="#101843"/><g id="shape8" transform="translate(248.974500,280.118300)"><path fill="none" stroke-width="1" d="M110.4,29.3C111.9,29.3,113.2,28.1,113.2,26.6L113.2,2.8C113.2,1.2,111.9,.0,110.4,.0L2.8,.0C1.2,.0,.0,1.2,.0,2.8L.0,26.6C.0,28.1,1.2,29.3,2.8,29.3L110.4,29.3z" stroke="#454545"/><text style="fill:#282f37;font-family:HarmonyOS Sans;font-size:10.00pt;font-weight:bold" xml:space="preserve"><tspan style="fill:#303030" y="18.2" x="16.1">Base Classes</tspan></text></g><g id="shape9" transform="translate(166.140700,225.118700)"><path fill="#ff9189" fill-rule="nonzero" d="M111.2,45.7C113.7,45.7,115.7,43.7,115.7,41.2L115.7,4.4C115.7,2.0,113.7,.0,111.2,.0L4.4,.0C2.0,.0,.0,2.0,.0,4.4L.0,41.2C.0,43.7,2.0,45.7,4.4,45.7L111.2,45.7z"/><text style="fill:#282f37;font-family:HarmonyOS Sans;font-size:12.00pt;font-weight:bold" xml:space="preserve"><tspan y="27.3" x="24.1">Common</tspan></text></g><g id="shape10" transform="translate(248.974500,318.785300)"><path fill="none" stroke-width="1" d="M110.4,29.3C111.9,29.3,113.2,28.1,113.2,26.6L113.2,2.8C113.2,1.2,111.9,.0,110.4,.0L2.8,.0C1.2,.0,.0,1.2,.0,2.8L.0,26.6C.0,28.1,1.2,29.3,2.8,29.3L110.4,29.3z" stroke="#454545"/><text style="fill:#282f37;font-family:HarmonyOS Sans;font-size:10.00pt;font-weight:bold" xml:space="preserve"><tspan y="18.2" x="33.3">Logger</tspan></text></g><g id="shape11" transform="translate(248.974500,357.451300)"><path fill="none" stroke-width="1" d="M110.4,29.3C111.9,29.3,113.2,28.1,113.2,26.6L113.2,2.8C113.2,1.2,111.9,.0,110.4,.0L2.8,.0C1.2,.0,.0,1.2,.0,2.8L.0,26.6C.0,28.1,1.2,29.3,2.8,29.3L110.4,29.3z" stroke="#454545"/><text style="fill:#282f37;font-family:HarmonyOS Sans;font-size:10.00pt;font-weight:bold" xml:space="preserve"><tspan y="18.2" x="51.3">...</tspan></text></g><g id="shape12" transform="translate(223.974000,270.785000)"><path fill="none" stroke-width="1" d="M.0,.0L.0,24.0L16.3,24.0" stroke="#454545"/><path fill="none" stroke-width="1.33333" stroke-linejoin="round" stroke-linecap="round" d="M25.0,20.5L18.1,24.0L25.0,27.5" stroke="#454545"/></g><g id="shape13" transform="translate(223.974000,270.785000)"><path fill="none" stroke-width="1" d="M.0,.0L.0,62.7L16.3,62.7" stroke="#454545"/><path fill="none" stroke-width="1.33333" stroke-linejoin="round" stroke-linecap="round" d="M25.0,59.2L18.1,62.7L25.0,66.1" stroke="#454545"/></g><g id="shape14" transform="translate(223.974000,270.785000)"><path fill="none" stroke-width="1" d="M.0,.0L.0,101.3L16.3,101.3" stroke="#454545"/><path fill="none" stroke-width="1.33333" stroke-linejoin="round" stroke-linecap="round" d="M25.0,97.9L18.1,101.3L25.0,104.8" stroke="#454545"/></g><g id="shape15" transform="translate(248.974500,280.118300)"><path fill="none" stroke-width="1" d="M110.4,29.3C111.9,29.3,113.2,28.1,113.2,26.6L113.2,2.8C113.2,1.2,111.9,.0,110.4,.0L2.8,.0C1.2,.0,.0,1.2,.0,2.8L.0,26.6C.0,28.1,1.2,29.3,2.8,29.3L110.4,29.3z" stroke="#454545"/><text style="fill:#282f37;font-family:HarmonyOS Sans;font-size:10.00pt;font-weight:bold" xml:space="preserve"><tspan y="18.2" x="16.1">Base Classes</tspan></text></g><g id="shape16" transform="translate(452.823500,280.118300)"><path fill="none" stroke-width="1" d="M110.4,29.3C111.9,29.3,113.2,28.1,113.2,26.6L113.2,2.8C113.2,1.2,111.9,.0,110.4,.0L2.8,.0C1.2,.0,.0,1.2,.0,2.8L.0,26.6C.0,28.1,1.2,29.3,2.8,29.3L110.4,29.3z" stroke="#454545"/><text style="fill:#282f37;font-family:HarmonyOS Sans;font-size:10.00pt;font-weight:bold" xml:space="preserve"><tspan y="18.2" x="30.1">Encoder</tspan></text></g><g id="shape17" transform="translate(369.989500,225.117700)"><path fill="#ff9189" fill-rule="nonzero" d="M111.2,45.7C113.7,45.7,115.7,43.7,115.7,41.2L115.7,4.4C115.7,2.0,113.7,.0,111.2,.0L4.4,.0C2.0,.0,.0,2.0,.0,4.4L.0,41.2C.0,43.7,2.0,45.7,4.4,45.7L111.2,45.7z"/><text style="fill:#282f37;font-family:HarmonyOS Sans;font-size:13.00pt;font-weight:bold" xml:space="preserve"><tspan y="27.8" x="32.6">Xploit</tspan></text></g><g id="shape18" transform="translate(452.823500,318.784300)"><path fill="none" stroke-width="1" d="M110.4,29.3C111.9,29.3,113.2,28.1,113.2,26.6L113.2,2.8C113.2,1.2,111.9,.0,110.4,.0L2.8,.0C1.2,.0,.0,1.2,.0,2.8L.0,26.6C.0,28.1,1.2,29.3,2.8,29.3L110.4,29.3z" stroke="#454545"/><text style="fill:#282f37;font-family:HarmonyOS Sans;font-size:10.00pt;font-weight:bold" xml:space="preserve"><tspan y="18.2" x="37.8">Policy</tspan></text></g><g id="shape19" transform="translate(452.823500,357.451300)"><path fill="none" stroke-width="1" d="M110.4,29.3C111.9,29.3,113.2,28.1,113.2,26.6L113.2,2.8C113.2,1.2,111.9,.0,110.4,.0L2.8,.0C1.2,.0,.0,1.2,.0,2.8L.0,26.6C.0,28.1,1.2,29.3,2.8,29.3L110.4,29.3z" stroke="#454545"/><text style="fill:#282f37;font-family:HarmonyOS Sans;font-size:10.00pt;font-weight:bold" xml:space="preserve"><tspan y="18.2" x="31.3">Storage</tspan></text></g><g id="shape20" transform="translate(427.823000,270.785000)"><path fill="none" stroke-width="1" d="M.0,.0L.0,24.0L16.3,24.0" stroke="#454545"/><path fill="none" stroke-width="1.33333" stroke-linejoin="round" stroke-linecap="round" d="M25.0,20.5L18.1,24.0L25.0,27.5" stroke="#454545"/></g><g id="shape21" transform="translate(427.823000,270.785000)"><path fill="none" stroke-width="1" d="M.0,.0L.0,62.7L16.3,62.7" stroke="#454545"/><path fill="none" stroke-width="1.33333" stroke-linejoin="round" stroke-linecap="round" d="M25.0,59.2L18.1,62.7L25.0,66.1" stroke="#454545"/></g><g id="shape22" transform="translate(427.823000,270.785000)"><path fill="none" stroke-width="1" d="M.0,.0L.0,101.3L16.3,101.3" stroke="#454545"/><path fill="none" stroke-width="1.33333" stroke-linejoin="round" stroke-linecap="round" d="M25.0,97.9L18.1,101.3L25.0,104.8" stroke="#454545"/></g><g id="shape23" transform="translate(656.976500,280.118300)"><path fill="none" stroke-width="1" d="M110.4,29.3C111.9,29.3,113.2,28.1,113.2,26.6L113.2,2.8C113.2,1.2,111.9,.0,110.4,.0L2.8,.0C1.2,.0,.0,1.2,.0,2.8L.0,26.6C.0,28.1,1.2,29.3,2.8,29.3L110.4,29.3z" stroke="#454545"/><text style="fill:#282f37;font-family:HarmonyOS Sans;font-size:10.00pt;font-weight:bold" xml:space="preserve"><tspan y="18.2" x="18.3">Distribution</tspan></text></g><g id="shape24" transform="translate(574.142500,225.117700)"><path fill="#ff9189" fill-rule="nonzero" d="M111.2,45.7C113.7,45.7,115.7,43.7,115.7,41.2L115.7,4.4C115.7,2.0,113.7,.0,111.2,.0L4.4,.0C2.0,.0,.0,2.0,.0,4.4L.0,41.2C.0,43.7,2.0,45.7,4.4,45.7L111.2,45.7z"/><text style="fill:#282f37;font-family:HarmonyOS Sans;font-size:13.00pt;font-weight:bold" xml:space="preserve"><tspan y="27.8" x="30.3">Xplore</tspan></text></g><g id="shape25" transform="translate(656.976500,318.784300)"><path fill="none" stroke-width="1" d="M110.4,29.3C111.9,29.3,113.2,28.1,113.2,26.6L113.2,2.8C113.2,1.2,111.9,.0,110.4,.0L2.8,.0C1.2,.0,.0,1.2,.0,2.8L.0,26.6C.0,28.1,1.2,29.3,2.8,29.3L110.4,29.3z" stroke="#454545"/><text style="fill:#282f37;font-family:HarmonyOS Sans;font-size:10.00pt;font-weight:bold" xml:space="preserve"><tspan y="18.2" x="10.6">Augmentation</tspan></text></g><g id="shape26" transform="translate(656.976500,357.451300)"><path fill="none" stroke-width="1" d="M110.4,29.3C111.9,29.3,113.2,28.1,113.2,26.6L113.2,2.8C113.2,1.2,111.9,.0,110.4,.0L2.8,.0C1.2,.0,.0,1.2,.0,2.8L.0,26.6C.0,28.1,1.2,29.3,2.8,29.3L110.4,29.3z" stroke="#454545"/><text style="fill:#282f37;font-family:HarmonyOS Sans;font-size:10.00pt;font-weight:bold" xml:space="preserve"><tspan y="18.2" x="32.3">Reward</tspan></text></g><g id="shape27" transform="translate(631.976000,270.785000)"><path fill="none" stroke-width="1" d="M.0,.0L.0,24.0L16.3,24.0" stroke="#454545"/><path fill="none" stroke-width="1.33333" stroke-linejoin="round" stroke-linecap="round" d="M25.0,20.5L18.1,24.0L25.0,27.5" stroke="#454545"/></g><g id="shape28" transform="translate(631.976000,270.785000)"><path fill="none" stroke-width="1" d="M.0,.0L.0,62.7L16.3,62.7" stroke="#454545"/><path fill="none" stroke-width="1.33333" stroke-linejoin="round" stroke-linecap="round" d="M25.0,59.2L18.1,62.7L25.0,66.1" stroke="#454545"/></g><g id="shape29" transform="translate(631.976000,270.785000)"><path fill="none" stroke-width="1" d="M.0,.0L.0,101.3L16.3,101.3" stroke="#454545"/><path fill="none" stroke-width="1.33333" stroke-linejoin="round" stroke-linecap="round" d="M25.0,97.9L18.1,101.3L25.0,104.8" stroke="#454545"/></g><path fill="#eef4ff" fill-rule="nonzero" id="shape30" d="M740.3,162.0L740.3,11.0C740.3,4.9,735.4,.0,729.3,.0L11.0,.0C4.9,.0,.0,4.9,.0,11.0L.0,162.0C.0,168.1,4.9,173.0,11.0,173.0L729.3,173.0C735.4,173.0,740.3,168.1,740.3,162.0z" transform="translate(37.655000,38.226000)"/><g id="shape31" transform="translate(37.653900,38.226100)"><path fill="#017fff" fill-rule="nonzero" d="M115.9,162.0L115.9,11.0C115.9,4.9,111.0,.0,104.9,.0L11.0,.0C4.9,.0,.0,4.9,.0,11.0L.0,162.0C.0,168.1,4.9,173.0,11.0,173.0L104.9,173.0C111.0,173.0,115.9,168.1,115.9,162.0z"/><text style="fill:#ffffff;font-family:HarmonyOS Sans;font-size:22.00pt;font-weight:bold" xml:space="preserve"><tspan y="96.5" x="29.2">Tool</tspan></text></g><g id="shape32" transform="translate(248.973500,98.386300)"><path fill="none" stroke-width="1" d="M110.4,29.3C111.9,29.3,113.2,28.1,113.2,26.6L113.2,2.8C113.2,1.2,111.9,.0,110.4,.0L2.8,.0C1.2,.0,.0,1.2,.0,2.8L.0,26.6C.0,28.1,1.2,29.3,2.8,29.3L110.4,29.3z" stroke="#454545"/><text style="fill:#282f37;font-family:HarmonyOS Sans;font-size:10.00pt;font-weight:bold" xml:space="preserve"><tspan y="18.2" x="11.8">Env Wrappers</tspan></text></g><g id="shape33" transform="translate(166.139500,43.386600)"><path fill="#43b4ff" fill-rule="nonzero" d="M111.2,45.7C113.7,45.7,115.7,43.7,115.7,41.2L115.7,4.4C115.7,2.0,113.7,.0,111.2,.0L4.4,.0C2.0,.0,.0,2.0,.0,4.4L.0,41.2C.0,43.7,2.0,45.7,4.4,45.7L111.2,45.7z"/><text style="fill:#282f37;font-family:HarmonyOS Sans;font-size:12.00pt;font-weight:bold" xml:space="preserve"><tspan y="27.3" x="44.1">Env</tspan></text></g><g id="shape34" transform="translate(248.973500,137.053300)"><path fill="none" stroke-width="1" d="M110.4,29.3C111.9,29.3,113.2,28.1,113.2,26.6L113.2,2.8C113.2,1.2,111.9,.0,110.4,.0L2.8,.0C1.2,.0,.0,1.2,.0,2.8L.0,26.6C.0,28.1,1.2,29.3,2.8,29.3L110.4,29.3z" stroke="#454545"/><text style="fill:#282f37;font-family:HarmonyOS Sans;font-size:10.00pt;font-weight:bold" xml:space="preserve"><tspan y="18.2" x="22.3">Game APIs</tspan></text></g><g id="shape35" transform="translate(248.973500,175.720300)"><path fill="none" stroke-width="1" d="M110.4,29.3C111.9,29.3,113.2,28.1,113.2,26.6L113.2,2.8C113.2,1.2,111.9,.0,110.4,.0L2.8,.0C1.2,.0,.0,1.2,.0,2.8L.0,26.6C.0,28.1,1.2,29.3,2.8,29.3L110.4,29.3z" stroke="#454545"/><text style="fill:#282f37;font-family:HarmonyOS Sans;font-size:10.00pt;font-weight:bold" xml:space="preserve"><tspan y="18.2" x="51.3">...</tspan></text></g><g id="shape36" transform="translate(223.973000,89.053300)"><path fill="none" stroke-width="1" d="M.0,.0L.0,24.0L16.3,24.0" stroke="#454545"/><path fill="none" stroke-width="1.33333" stroke-linejoin="round" stroke-linecap="round" d="M25.0,20.5L18.1,24.0L25.0,27.5" stroke="#454545"/></g><g id="shape37" transform="translate(223.973000,89.053300)"><path fill="none" stroke-width="1" d="M.0,.0L.0,62.7L16.3,62.7" stroke="#454545"/><path fill="none" stroke-width="1.33333" stroke-linejoin="round" stroke-linecap="round" d="M25.0,59.2L18.1,62.7L25.0,66.1" stroke="#454545"/></g><g id="shape38" transform="translate(223.973000,89.053300)"><path fill="none" stroke-width="1" d="M.0,.0L.0,101.3L16.3,101.3" stroke="#454545"/><path fill="none" stroke-width="1.33333" stroke-linejoin="round" stroke-linecap="round" d="M25.0,97.9L18.1,101.3L25.0,104.8" stroke="#454545"/></g><g id="shape39" transform="translate(452.822500,98.385300)"><path fill="none" stroke-width="1" d="M110.4,29.3C111.9,29.3,113.2,28.1,113.2,26.6L113.2,2.8C113.2,1.2,111.9,.0,110.4,.0L2.8,.0C1.2,.0,.0,1.2,.0,2.8L.0,26.6C.0,28.1,1.2,29.3,2.8,29.3L110.4,29.3z" stroke="#454545"/><text style="fill:#282f37;font-family:HarmonyOS Sans;font-size:10.00pt;font-weight:bold" xml:space="preserve"><tspan y="18.2" x="15.8">Performance</tspan></text></g><g id="shape40" transform="translate(369.988500,43.385600)"><path fill="#43b4ff" fill-rule="nonzero" d="M111.2,45.7C113.7,45.7,115.7,43.7,115.7,41.2L115.7,4.4C115.7,2.0,113.7,.0,111.2,.0L4.4,.0C2.0,.0,.0,2.0,.0,4.4L.0,41.2C.0,43.7,2.0,45.7,4.4,45.7L111.2,45.7z"/><text style="fill:#282f37;font-family:HarmonyOS Sans;font-size:12.00pt;font-weight:bold" xml:space="preserve"><tspan y="27.3" x="17.8">Evaluation</tspan></text></g><g id="shape41" transform="translate(452.822500,137.052300)"><path fill="none" stroke-width="1" d="M110.4,29.3C111.9,29.3,113.2,28.1,113.2,26.6L113.2,2.8C113.2,1.2,111.9,.0,110.4,.0L2.8,.0C1.2,.0,.0,1.2,.0,2.8L.0,26.6C.0,28.1,1.2,29.3,2.8,29.3L110.4,29.3z" stroke="#454545"/><text style="fill:#282f37;font-family:HarmonyOS Sans;font-size:10.00pt;font-weight:bold" xml:space="preserve"><tspan y="18.2" x="18.1">Comparison</tspan></text></g><g id="shape42" transform="translate(452.822500,175.719300)"><path fill="none" stroke-width="1" d="M110.4,29.3C111.9,29.3,113.2,28.1,113.2,26.6L113.2,2.8C113.2,1.2,111.9,.0,110.4,.0L2.8,.0C1.2,.0,.0,1.2,.0,2.8L.0,26.6C.0,28.1,1.2,29.3,2.8,29.3L110.4,29.3z" stroke="#454545"/><text style="fill:#282f37;font-family:HarmonyOS Sans;font-size:10.00pt;font-weight:bold" xml:space="preserve"><tspan y="18.2" x="16.1">Visualization</tspan></text></g><g id="shape43" transform="translate(427.822000,89.052300)"><path fill="none" stroke-width="1" d="M.0,.0L.0,24.0L16.3,24.0" stroke="#454545"/><path fill="none" stroke-width="1.33333" stroke-linejoin="round" stroke-linecap="round" d="M25.0,20.5L18.1,24.0L25.0,27.5" stroke="#454545"/></g><g id="shape44" transform="translate(427.822000,89.052300)"><path fill="none" stroke-width="1" d="M.0,.0L.0,62.7L16.3,62.7" stroke="#454545"/><path fill="none" stroke-width="1.33333" stroke-linejoin="round" stroke-linecap="round" d="M25.0,59.2L18.1,62.7L25.0,66.1" stroke="#454545"/></g><g id="shape45" transform="translate(427.822000,89.052300)"><path fill="none" stroke-width="1" d="M.0,.0L.0,101.3L16.3,101.3" stroke="#454545"/><path fill="none" stroke-width="1.33333" stroke-linejoin="round" stroke-linecap="round" d="M25.0,97.9L18.1,101.3L25.0,104.8" stroke="#454545"/></g><g id="shape46" transform="translate(656.975500,98.385300)"><path fill="none" stroke-width="1" d="M110.4,29.3C111.9,29.3,113.2,28.1,113.2,26.6L113.2,2.8C113.2,1.2,111.9,.0,110.4,.0L2.8,.0C1.2,.0,.0,1.2,.0,2.8L.0,26.6C.0,28.1,1.2,29.3,2.8,29.3L110.4,29.3z" stroke="#454545"/><text style="fill:#282f37;font-family:HarmonyOS Sans;font-size:10.00pt;font-weight:bold" xml:space="preserve"><tspan y="18.2" x="28.3">Datasets</tspan></text></g><g id="shape47" transform="translate(574.141500,43.385600)"><path fill="#43b4ff" fill-rule="nonzero" d="M111.2,45.7C113.7,45.7,115.7,43.7,115.7,41.2L115.7,4.4C115.7,2.0,113.7,.0,111.2,.0L4.4,.0C2.0,.0,.0,2.0,.0,4.4L.0,41.2C.0,43.7,2.0,45.7,4.4,45.7L111.2,45.7z"/><text style="fill:#282f37;font-family:HarmonyOS Sans;font-size:12.00pt;font-weight:bold" xml:space="preserve"><tspan y="27.3" x="41.8">Hub</tspan></text></g><g id="shape48" transform="translate(656.975500,137.052300)"><path fill="none" stroke-width="1" d="M110.4,29.3C111.9,29.3,113.2,28.1,113.2,26.6L113.2,2.8C113.2,1.2,111.9,.0,110.4,.0L2.8,.0C1.2,.0,.0,1.2,.0,2.8L.0,26.6C.0,28.1,1.2,29.3,2.8,29.3L110.4,29.3z" stroke="#454545"/><text style="fill:#282f37;font-family:HarmonyOS Sans;font-size:10.00pt;font-weight:bold" xml:space="preserve"><tspan y="18.2" x="33.6">Models</tspan></text></g><g id="shape49" transform="translate(656.975500,175.719300)"><path fill="none" stroke-width="1" d="M110.4,29.3C111.9,29.3,113.2,28.1,113.2,26.6L113.2,2.8C113.2,1.2,111.9,.0,110.4,.0L2.8,.0C1.2,.0,.0,1.2,.0,2.8L.0,26.6C.0,28.1,1.2,29.3,2.8,29.3L110.4,29.3z" stroke="#454545"/><text style="fill:#282f37;font-family:HarmonyOS Sans;font-size:10.00pt;font-weight:bold" xml:space="preserve"><tspan y="18.2" x="51.3">...</tspan></text></g><g id="shape50" transform="translate(631.975000,89.052300)"><path fill="none" stroke-width="1" d="M.0,.0L.0,24.0L16.3,24.0" stroke="#454545"/><path fill="none" stroke-width="1.33333" stroke-linejoin="round" stroke-linecap="round" d="M25.0,20.5L18.1,24.0L25.0,27.5" stroke="#454545"/></g><g id="shape51" transform="translate(631.975000,89.052300)"><path fill="none" stroke-width="1" d="M.0,.0L.0,62.7L16.3,62.7" stroke="#454545"/><path fill="none" stroke-width="1.33333" stroke-linejoin="round" stroke-linecap="round" d="M25.0,59.2L18.1,62.7L25.0,66.1" stroke="#454545"/></g><g id="shape52" transform="translate(631.975000,89.052300)"><path fill="none" stroke-width="1" d="M.0,.0L.0,101.3L16.3,101.3" stroke="#454545"/><path fill="none" stroke-width="1.33333" stroke-linejoin="round" stroke-linecap="round" d="M25.0,97.9L18.1,101.3L25.0,104.8" stroke="#454545"/></g><g id="shape53" transform="translate(190.131000,418.855600)"><path fill="#90d6ab" fill-rule="nonzero" d="M111.2,45.7C113.7,45.7,115.7,43.7,115.7,41.2L115.7,4.4C115.7,2.0,113.7,.0,111.2,.0L4.4,.0C2.0,.0,.0,2.0,.0,4.4L.0,41.2C.0,43.7,2.0,45.7,4.4,45.7L111.2,45.7z"/><text style="fill:#282f37;font-family:HarmonyOS Sans;font-size:12.00pt;font-weight:bold" xml:space="preserve"><tspan y="27.3" x="11.3">Deployment</tspan></text></g><g id="shape54" transform="translate(335.198333,418.855600)"><path fill="#90d6ab" fill-rule="nonzero" d="M111.2,45.7C113.7,45.7,115.7,43.7,115.7,41.2L115.7,4.4C115.7,2.0,113.7,.0,111.2,.0L4.4,.0C2.0,.0,.0,2.0,.0,4.4L.0,41.2C.0,43.7,2.0,45.7,4.4,45.7L111.2,45.7z"/><text style="fill:#282f37;font-family:HarmonyOS Sans;font-size:12.00pt;font-weight:bold" xml:space="preserve"><tspan y="27.3" x="10.8">Pre-training</tspan></text></g><g id="shape55" transform="translate(480.265667,418.855600)"><path fill="#fbdd2d" fill-rule="nonzero" d="M111.2,45.7C113.7,45.7,115.7,43.7,115.7,41.2L115.7,4.4C115.7,2.0,113.7,.0,111.2,.0L4.4,.0C2.0,.0,.0,2.0,.0,4.4L.0,41.2C.0,43.7,2.0,45.7,4.4,45.7L111.2,45.7z"/><text style="fill:#282f37;font-family:HarmonyOS Sans;font-size:12.00pt;font-weight:bold" xml:space="preserve"><tspan y="27.3" x="34.3">Agent</tspan></text></g><g id="shape56" transform="translate(625.333000,418.855600)"><path fill="#90d6ab" fill-rule="nonzero" d="M111.2,45.7C113.7,45.7,115.7,43.7,115.7,41.2L115.7,4.4C115.7,2.0,113.7,.0,111.2,.0L4.4,.0C2.0,.0,.0,2.0,.0,4.4L.0,41.2C.0,43.7,2.0,45.7,4.4,45.7L111.2,45.7z"/><text style="fill:#282f37;font-family:HarmonyOS Sans;font-size:12.00pt;font-weight:bold" xml:space="preserve"><tspan y="27.3" x="29.8">Copilot</tspan></text></g></g></svg>