<svg viewBox="0 0 799 437" xmlns:xlink="http://www.w3.org/1999/xlink" width="799" xmlns="http://www.w3.org/2000/svg" height="437" xmlns:ev="http://www.w3.org/2001/xml-events"><defs/><g id="page1" transform="translate(5.5,5.5)"><rect fill="none" x="0" width="789" height="427" y="0"/><g id="group1" transform="translate(38.654546,38.553701)"><path fill="#cce6ff" d="M710.9,119.4L710.9,11.0C710.9,4.9,706.0,.0,699.9,.0L11.0,.0C4.9,.0,.0,4.9,.0,11.0L.0,119.4C.0,125.5,4.9,130.4,11.0,130.4L699.9,130.4C706.0,130.4,710.9,125.5,710.9,119.4z" id="shape2" fill-rule="nonzero" transform="translate(0.000000,0.000000)"/><g id="shape3" transform="translate(-0.000000,0.000000)"><path fill="#017fff" d="M115.9,119.4L115.9,11.0C115.9,4.9,111.0,.0,104.9,.0L11.0,.0C4.9,.0,.0,4.9,.0,11.0L.0,119.4C.0,125.5,4.9,130.4,11.0,130.4L104.9,130.4C111.0,130.4,115.9,125.5,115.9,119.4z" fill-rule="nonzero"/><text xml:space="preserve" style="fill:#ffffff;font-family:微软雅黑;font-size:22.00pt;font-weight:bold"><tspan x="24.9" y="74.7">Tool</tspan></text></g><g id="group4" transform="translate(128.486011,2.830517)"><path fill="#b2e8df" d="M182.0,84.8L182.0,11.0C182.0,4.9,177.1,.0,171.0,.0L11.0,.0C4.9,.0,.0,4.9,.0,11.0L.0,84.8C.0,90.8,4.9,95.8,11.0,95.8L171.0,95.8C177.1,95.8,182.0,90.8,182.0,84.8z" id="shape5" fill-rule="nonzero" transform="translate(0.000000,29.000000)"/><g id="shape6" transform="translate(15.859500,36.127850)"><path fill="#d0f0ea" d="M150.3,13.0L150.3,11.0C150.3,4.9,145.4,.0,139.3,.0L11.0,.0C4.9,.0,.0,4.9,.0,11.0L.0,13.0C.0,19.1,4.9,24.0,11.0,24.0L139.3,24.0C145.4,24.0,150.3,19.1,150.3,13.0z" fill-rule="nonzero"/><text xml:space="preserve" style="fill:#191919;font-family:微软雅黑;font-size:10.00pt;font-weight:bold"><tspan x="27.9" y="15.0">Env Wrappers</tspan></text></g><g id="shape7" transform="translate(15.859500,64.864450)"><path fill="#d0f0ea" d="M150.3,13.0L150.3,11.0C150.3,4.9,145.4,.0,139.3,.0L11.0,.0C4.9,.0,.0,4.9,.0,11.0L.0,13.0C.0,19.1,4.9,24.0,11.0,24.0L139.3,24.0C145.4,24.0,150.3,19.1,150.3,13.0z" fill-rule="nonzero"/><text xml:space="preserve" style="fill:#191919;font-family:微软雅黑;font-size:10.00pt;font-weight:bold"><tspan x="38.1" y="15.0">Games API</tspan></text></g><g id="shape8" transform="translate(15.859500,93.601050)"><path fill="#d0f0ea" d="M150.3,13.0L150.3,11.0C150.3,4.9,145.4,.0,139.3,.0L11.0,.0C4.9,.0,.0,4.9,.0,11.0L.0,13.0C.0,19.1,4.9,24.0,11.0,24.0L139.3,24.0C145.4,24.0,150.3,19.1,150.3,13.0z" fill-rule="nonzero"/><text xml:space="preserve" style="fill:#191919;font-family:微软雅黑;font-size:10.00pt;font-weight:bold"><tspan x="69.1" y="15.0">...</tspan></text></g><g id="shape9" transform="translate(0.000000,0.000000)"><text xml:space="preserve" style="fill:#191919;font-family:微软雅黑;font-size:12.00pt;font-weight:bold"><tspan x="2.5" y="18.5">Env</tspan></text></g></g><g id="group10" transform="translate(323.486011,2.830467)"><path fill="#b2e8df" d="M182.0,84.8L182.0,11.0C182.0,4.9,177.1,.0,171.0,.0L11.0,.0C4.9,.0,.0,4.9,.0,11.0L.0,84.8C.0,90.8,4.9,95.8,11.0,95.8L171.0,95.8C177.1,95.8,182.0,90.8,182.0,84.8z" id="shape11" fill-rule="nonzero" transform="translate(0.000000,29.000000)"/><g id="shape12" transform="translate(15.859500,36.127800)"><path fill="#d0f0ea" d="M150.3,13.0L150.3,11.0C150.3,4.9,145.4,.0,139.3,.0L11.0,.0C4.9,.0,.0,4.9,.0,11.0L.0,13.0C.0,19.1,4.9,24.0,11.0,24.0L139.3,24.0C145.4,24.0,150.3,19.1,150.3,13.0z" fill-rule="nonzero"/><text xml:space="preserve" style="fill:#191919;font-family:微软雅黑;font-size:10.00pt;font-weight:bold"><tspan x="31.1" y="15.5">Performance</tspan></text></g><g id="shape13" transform="translate(15.859500,64.864400)"><path fill="#d0f0ea" d="M150.3,13.0L150.3,11.0C150.3,4.9,145.4,.0,139.3,.0L11.0,.0C4.9,.0,.0,4.9,.0,11.0L.0,13.0C.0,19.1,4.9,24.0,11.0,24.0L139.3,24.0C145.4,24.0,150.3,19.1,150.3,13.0z" fill-rule="nonzero"/><text xml:space="preserve" style="fill:#191919;font-family:微软雅黑;font-size:10.00pt;font-weight:bold"><tspan x="33.9" y="15.5">Comparison</tspan></text></g><g id="shape14" transform="translate(15.859500,93.601500)"><path fill="#d0f0ea" d="M150.3,13.0L150.3,11.0C150.3,4.9,145.4,.0,139.3,.0L11.0,.0C4.9,.0,.0,4.9,.0,11.0L.0,13.0C.0,19.1,4.9,24.0,11.0,24.0L139.3,24.0C145.4,24.0,150.3,19.1,150.3,13.0z" fill-rule="nonzero"/><text xml:space="preserve" style="fill:#191919;font-family:微软雅黑;font-size:10.00pt;font-weight:bold"><tspan x="31.4" y="15.5">Visualization</tspan></text></g><g id="shape15"><text xml:space="preserve" style="fill:#191919;font-family:微软雅黑;font-size:12.00pt;font-weight:bold"><tspan x="2.4" y="18.5">Evaluation</tspan></text></g></g><g id="group16" transform="translate(518.486011,2.830467)"><path fill="#b2e8df" d="M182.0,84.8L182.0,11.0C182.0,4.9,177.1,.0,171.0,.0L11.0,.0C4.9,.0,.0,4.9,.0,11.0L.0,84.8C.0,90.8,4.9,95.8,11.0,95.8L171.0,95.8C177.1,95.8,182.0,90.8,182.0,84.8z" id="shape17" fill-rule="nonzero" transform="translate(0.000000,29.000000)"/><g id="shape18" transform="translate(15.859500,36.127800)"><path fill="#d0f0ea" d="M150.3,13.0L150.3,11.0C150.3,4.9,145.4,.0,139.3,.0L11.0,.0C4.9,.0,.0,4.9,.0,11.0L.0,13.0C.0,19.1,4.9,24.0,11.0,24.0L139.3,24.0C145.4,24.0,150.3,19.1,150.3,13.0z" fill-rule="nonzero"/><text xml:space="preserve" style="fill:#191919;font-family:微软雅黑;font-size:10.00pt;font-weight:bold"><tspan x="45.9" y="15.5">Datasets</tspan></text></g><g id="shape19" transform="translate(15.859500,64.864400)"><path fill="#d0f0ea" d="M150.3,13.0L150.3,11.0C150.3,4.9,145.4,.0,139.3,.0L11.0,.0C4.9,.0,.0,4.9,.0,11.0L.0,13.0C.0,19.1,4.9,24.0,11.0,24.0L139.3,24.0C145.4,24.0,150.3,19.1,150.3,13.0z" fill-rule="nonzero"/><text xml:space="preserve" style="fill:#191919;font-family:微软雅黑;font-size:10.00pt;font-weight:bold"><tspan x="49.9" y="15.5">Models</tspan></text></g><g id="shape20" transform="translate(15.859500,93.601500)"><path fill="#d0f0ea" d="M150.3,13.0L150.3,11.0C150.3,4.9,145.4,.0,139.3,.0L11.0,.0C4.9,.0,.0,4.9,.0,11.0L.0,13.0C.0,19.1,4.9,24.0,11.0,24.0L139.3,24.0C145.4,24.0,150.3,19.1,150.3,13.0z" fill-rule="nonzero"/><text xml:space="preserve" style="fill:#191919;font-family:微软雅黑;font-size:10.00pt;font-weight:bold"><tspan x="69.1" y="15.5">...</tspan></text></g><g id="shape21"><text xml:space="preserve" style="fill:#191919;font-family:微软雅黑;font-size:12.00pt;font-weight:bold"><tspan x="2.0" y="18.5">Hub</tspan></text></g></g></g><g id="group22" transform="translate(38.654546,174.958447)"><path fill="#cce6ff" d="M710.9,119.4L710.9,11.0C710.9,4.9,706.0,.0,699.9,.0L11.0,.0C4.9,.0,.0,4.9,.0,11.0L.0,119.4C.0,125.5,4.9,130.4,11.0,130.4L699.9,130.4C706.0,130.4,710.9,125.5,710.9,119.4z" id="shape23" fill-rule="nonzero" transform="translate(0.000000,-0.000000)"/><g id="shape24" transform="translate(0.000000,-0.000000)"><path fill="#fd6969" d="M115.9,119.4L115.9,11.0C115.9,4.9,111.0,.0,104.9,.0L11.0,.0C4.9,.0,.0,4.9,.0,11.0L.0,119.4C.0,125.5,4.9,130.4,11.0,130.4L104.9,130.4C111.0,130.4,115.9,125.5,115.9,119.4z" fill-rule="nonzero"/><text xml:space="preserve" style="fill:#ffffff;font-family:微软雅黑;font-size:22.00pt;font-weight:bold"><tspan x="23.4" y="74.7">Core</tspan></text></g><g id="group25" transform="translate(128.486011,2.289453)"><path fill="#b2e8df" d="M182.0,84.8L182.0,11.0C182.0,4.9,177.1,.0,171.0,.0L11.0,.0C4.9,.0,.0,4.9,.0,11.0L.0,84.8C.0,90.8,4.9,95.8,11.0,95.8L171.0,95.8C177.1,95.8,182.0,90.8,182.0,84.8z" id="shape26" fill-rule="nonzero" transform="translate(0.000000,29.000000)"/><g id="shape27" transform="translate(15.859500,36.127800)"><path fill="#d0f0ea" d="M150.3,13.0L150.3,11.0C150.3,4.9,145.4,.0,139.3,.0L11.0,.0C4.9,.0,.0,4.9,.0,11.0L.0,13.0C.0,19.1,4.9,24.0,11.0,24.0L139.3,24.0C145.4,24.0,150.3,19.1,150.3,13.0z" fill-rule="nonzero"/><text xml:space="preserve" style="fill:#191919;font-family:微软雅黑;font-size:10.00pt;font-weight:bold"><tspan x="33.1" y="15.5">Base Classes</tspan></text></g><g id="shape28" transform="translate(15.859500,64.864400)"><path fill="#d0f0ea" d="M150.3,13.0L150.3,11.0C150.3,4.9,145.4,.0,139.3,.0L11.0,.0C4.9,.0,.0,4.9,.0,11.0L.0,13.0C.0,19.1,4.9,24.0,11.0,24.0L139.3,24.0C145.4,24.0,150.3,19.1,150.3,13.0z" fill-rule="nonzero"/><text xml:space="preserve" style="fill:#191919;font-family:微软雅黑;font-size:10.00pt;font-weight:bold"><tspan x="51.1" y="15.5">Logger</tspan></text></g><g id="shape29" transform="translate(15.859500,93.601500)"><path fill="#d0f0ea" d="M150.3,13.0L150.3,11.0C150.3,4.9,145.4,.0,139.3,.0L11.0,.0C4.9,.0,.0,4.9,.0,11.0L.0,13.0C.0,19.1,4.9,24.0,11.0,24.0L139.3,24.0C145.4,24.0,150.3,19.1,150.3,13.0z" fill-rule="nonzero"/><text xml:space="preserve" style="fill:#191919;font-family:微软雅黑;font-size:10.00pt;font-weight:bold"><tspan x="69.1" y="15.0">...</tspan></text></g><g id="shape30"><text xml:space="preserve" style="fill:#191919;font-family:微软雅黑;font-size:12.00pt;font-weight:bold"><tspan x="2.4" y="18.5">Common</tspan></text></g></g><g id="group31" transform="translate(323.486011,2.289453)"><path fill="#b2e8df" d="M182.0,84.8L182.0,11.0C182.0,4.9,177.1,.0,171.0,.0L11.0,.0C4.9,.0,.0,4.9,.0,11.0L.0,84.8C.0,90.8,4.9,95.8,11.0,95.8L171.0,95.8C177.1,95.8,182.0,90.8,182.0,84.8z" id="shape32" fill-rule="nonzero" transform="translate(0.000000,29.000000)"/><g id="shape33" transform="translate(15.859500,36.127800)"><path fill="#d0f0ea" d="M150.3,13.0L150.3,11.0C150.3,4.9,145.4,.0,139.3,.0L11.0,.0C4.9,.0,.0,4.9,.0,11.0L.0,13.0C.0,19.1,4.9,24.0,11.0,24.0L139.3,24.0C145.4,24.0,150.3,19.1,150.3,13.0z" fill-rule="nonzero"/><text xml:space="preserve" style="fill:#191919;font-family:微软雅黑;font-size:10.00pt;font-weight:bold"><tspan x="54.4" y="15.5">Agent</tspan></text></g><g id="shape34" transform="translate(15.859500,64.864400)"><path fill="#d0f0ea" d="M150.3,13.0L150.3,11.0C150.3,4.9,145.4,.0,139.3,.0L11.0,.0C4.9,.0,.0,4.9,.0,11.0L.0,13.0C.0,19.1,4.9,24.0,11.0,24.0L139.3,24.0C145.4,24.0,150.3,19.1,150.3,13.0z" fill-rule="nonzero"/><text xml:space="preserve" style="fill:#191919;font-family:微软雅黑;font-size:10.00pt;font-weight:bold"><tspan x="47.6" y="15.5">Encoder</tspan></text></g><g id="shape35" transform="translate(15.859500,93.601500)"><path fill="#d0f0ea" d="M150.3,13.0L150.3,11.0C150.3,4.9,145.4,.0,139.3,.0L11.0,.0C4.9,.0,.0,4.9,.0,11.0L.0,13.0C.0,19.1,4.9,24.0,11.0,24.0L139.3,24.0C145.4,24.0,150.3,19.1,150.3,13.0z" fill-rule="nonzero"/><text xml:space="preserve" style="fill:#191919;font-family:微软雅黑;font-size:10.00pt;font-weight:bold"><tspan x="48.6" y="15.5">Storage</tspan></text></g><g id="shape36"><text xml:space="preserve" style="fill:#191919;font-family:微软雅黑;font-size:12.00pt;font-weight:bold"><tspan x="2.4" y="18.5">Xploit</tspan></text></g></g><g id="group37" transform="translate(520.345454,2.289453)"><path fill="#b2e8df" d="M182.0,84.8L182.0,11.0C182.0,4.9,177.1,.0,171.0,.0L11.0,.0C4.9,.0,.0,4.9,.0,11.0L.0,84.8C.0,90.8,4.9,95.8,11.0,95.8L171.0,95.8C177.1,95.8,182.0,90.8,182.0,84.8z" id="shape38" fill-rule="nonzero" transform="translate(0.000000,29.000000)"/><g id="shape39" transform="translate(15.859500,36.127800)"><path fill="#d0f0ea" d="M150.3,13.0L150.3,11.0C150.3,4.9,145.4,.0,139.3,.0L11.0,.0C4.9,.0,.0,4.9,.0,11.0L.0,13.0C.0,19.1,4.9,24.0,11.0,24.0L139.3,24.0C145.4,24.0,150.3,19.1,150.3,13.0z" fill-rule="nonzero"/><text xml:space="preserve" style="fill:#191919;font-family:微软雅黑;font-size:10.00pt;font-weight:bold"><tspan x="34.4" y="15.5">Distribution</tspan></text></g><g id="shape40" transform="translate(15.859500,64.864400)"><path fill="#d0f0ea" d="M150.3,13.0L150.3,11.0C150.3,4.9,145.4,.0,139.3,.0L11.0,.0C4.9,.0,.0,4.9,.0,11.0L.0,13.0C.0,19.1,4.9,24.0,11.0,24.0L139.3,24.0C145.4,24.0,150.3,19.1,150.3,13.0z" fill-rule="nonzero"/><text xml:space="preserve" style="fill:#191919;font-family:微软雅黑;font-size:10.00pt;font-weight:bold"><tspan x="25.4" y="15.5">Augmentation</tspan></text></g><g id="shape41" transform="translate(15.859500,93.601500)"><path fill="#d0f0ea" d="M150.3,13.0L150.3,11.0C150.3,4.9,145.4,.0,139.3,.0L11.0,.0C4.9,.0,.0,4.9,.0,11.0L.0,13.0C.0,19.1,4.9,24.0,11.0,24.0L139.3,24.0C145.4,24.0,150.3,19.1,150.3,13.0z" fill-rule="nonzero"/><text xml:space="preserve" style="fill:#191919;font-family:微软雅黑;font-size:10.00pt;font-weight:bold"><tspan x="49.4" y="15.5">Reward</tspan></text></g><g id="shape42"><text xml:space="preserve" style="fill:#191919;font-family:微软雅黑;font-size:12.00pt;font-weight:bold"><tspan x="2.4" y="18.5">Xplore</tspan></text></g></g></g><g id="group43" transform="translate(38.654546,311.678344)"><path fill="#cce6ff" d="M710.9,64.8L710.9,11.0C710.9,4.9,706.0,.0,699.9,.0L11.0,.0C4.9,.0,.0,4.9,.0,11.0L.0,64.8C.0,70.9,4.9,75.8,11.0,75.8L699.9,75.8C706.0,75.8,710.9,70.9,710.9,64.8z" id="shape44" fill-rule="nonzero" transform="translate(0.000000,-0.000000)"/><g id="shape45" transform="translate(0.000000,-0.000000)"><path fill="#017fff" d="M115.9,64.8L115.9,11.0C115.9,4.9,111.0,.0,104.9,.0L11.0,.0C4.9,.0,.0,4.9,.0,11.0L.0,64.8C.0,70.9,4.9,75.8,11.0,75.8L104.9,75.8C111.0,75.8,115.9,70.9,115.9,64.8z" fill-rule="nonzero"/><text xml:space="preserve" style="fill:#ffffff;font-family:微软雅黑;font-size:22.00pt;font-weight:bold"><tspan x="23.2" y="47.4">App.</tspan></text></g><g id="group46" transform="translate(149.419184,21.612389)"><g id="shape47" transform="translate(0.000000,0.000000)"><path fill="#b2e8df" d="M150.3,21.6L150.3,11.0C150.3,4.9,145.4,.0,139.3,.0L11.0,.0C4.9,.0,.0,4.9,.0,11.0L.0,21.6C.0,27.7,4.9,32.6,11.0,32.6L139.3,32.6C145.4,32.6,150.3,27.7,150.3,21.6z" fill-rule="nonzero"/><text xml:space="preserve" style="fill:#191919;font-family:微软雅黑;font-size:12.00pt;font-weight:bold"><tspan x="21.1" y="20.3">Deployement</tspan></text></g><g id="shape48" transform="translate(184.447132,0.000000)"><path fill="#b2e8df" d="M150.3,21.6L150.3,11.0C150.3,4.9,145.4,.0,139.3,.0L11.0,.0C4.9,.0,.0,4.9,.0,11.0L.0,21.6C.0,27.7,4.9,32.6,11.0,32.6L139.3,32.6C145.4,32.6,150.3,27.7,150.3,21.6z" fill-rule="nonzero"/><text xml:space="preserve" style="fill:#191919;font-family:微软雅黑;font-size:12.00pt;font-weight:bold"><tspan x="26.6" y="20.3">Pre-training</tspan></text></g><g id="shape49" transform="translate(368.894264,0.000000)"><path fill="#b2e8df" d="M150.3,21.6L150.3,11.0C150.3,4.9,145.4,.0,139.3,.0L11.0,.0C4.9,.0,.0,4.9,.0,11.0L.0,21.6C.0,27.7,4.9,32.6,11.0,32.6L139.3,32.6C145.4,32.6,150.3,27.7,150.3,21.6z" fill-rule="nonzero"/><text xml:space="preserve" style="fill:#191919;font-family:微软雅黑;font-size:12.00pt;font-weight:bold"><tspan x="68.4" y="20.3">...</tspan></text></g></g></g></g></svg>