<svg width="937" height="573" xmlns:xlink="http://www.w3.org/1999/xlink" xmlns="http://www.w3.org/2000/svg" xmlns:ev="http://www.w3.org/2001/xml-events" viewBox="0 0 937 573"><defs/><g id="page1" transform="translate(5.5,5.5)"><rect width="927" height="563" y="0" fill="none" x="0"/><path d="M13.1,.0L36.7,.0C38.4,.0,40.7,.0,42.7,.0C43.6,.0,44.6,.0,45.7,.0L76.1,.0" stroke-linecap="round" id="shape1" stroke="#454545" stroke-width="4" fill="none" transform="translate(533.69,287.50)"/><path d="M13.1,73.6L36.7,73.6C38.4,73.6,39.7,72.2,39.7,70.6L39.7,-64.6C39.7,-66.2,39.5,-68.7,40.4,-70.5C41.5,-72.3,43.4,-73.6,45.7,-73.6L76.1,-73.6" stroke-linecap="round" id="shape2" stroke="#454545" stroke-width="4" fill="none" transform="translate(533.69,213.93)"/><path d="M13.1,-73.6L36.7,-73.6C38.4,-73.6,39.7,-72.2,39.7,-70.6L39.7,64.6C39.7,66.2,39.5,68.7,40.4,70.5C41.5,72.3,43.4,73.6,45.7,73.6L76.1,73.6" stroke-linecap="round" id="shape3" stroke="#454545" stroke-width="4" fill="none" transform="translate(533.69,361.08)"/><path d="M-12.5,20.5L-0.3,20.5C1.4,20.5,2.7,19.1,2.7,17.5L2.7,-11.5C2.7,-13.1,2.5,-15.6,3.4,-17.4C4.5,-19.2,6.4,-20.5,8.7,-20.5L12.5,-20.5" stroke-linecap="round" id="shape4" stroke="#454545" stroke-width="4" fill="none" transform="translate(725.30,267.02)"/><path d="M-12.5,.0L-0.3,.0C1.4,.0,3.7,.0,5.7,.0C6.6,.0,7.6,.0,8.7,.0L12.5,.0" stroke-linecap="round" id="shape5" stroke="#454545" stroke-width="4" fill="none" transform="translate(725.30,287.50)"/><path d="M-12.5,-20.5L-0.3,-20.5C1.4,-20.5,2.7,-19.1,2.7,-17.5L2.7,11.5C2.7,13.1,2.5,15.6,3.4,17.4C4.5,19.2,6.4,20.5,8.7,20.5L12.5,20.5" stroke-linecap="round" id="shape6" stroke="#454545" stroke-width="4" fill="none" transform="translate(725.30,307.98)"/><path d="M-13.1,-97.3L-36.7,-97.3C-38.4,-97.3,-39.7,-95.9,-39.7,-94.3L-39.7,88.3C-39.7,89.9,-39.5,92.4,-40.4,94.1C-41.5,96.0,-43.4,97.3,-45.7,97.3L-76.1,97.3" stroke-linecap="round" id="shape7" stroke="#454545" stroke-width="4" fill="none" transform="translate(381.47,384.77)"/><path d="M-13.1,41.9L-36.7,41.9C-38.4,41.9,-39.7,40.6,-39.7,38.9L-39.7,-32.9C-39.7,-34.6,-39.5,-37.0,-40.4,-38.8C-41.5,-40.6,-43.4,-41.9,-45.7,-41.9L-76.1,-41.9" stroke-linecap="round" id="shape8" stroke="#454545" stroke-width="4" fill="none" transform="translate(381.47,245.59)"/><path d="M-13.1,-23.7L-36.7,-23.7C-38.4,-23.7,-39.7,-22.3,-39.7,-20.7L-39.7,14.7C-39.7,16.3,-39.5,18.8,-40.4,20.6C-41.5,22.4,-43.4,23.7,-45.7,23.7L-76.1,23.7" stroke-linecap="round" id="shape9" stroke="#454545" stroke-width="4" fill="none" transform="translate(381.47,311.19)"/><path d="M-12.5,20.5L-0.3,20.5C1.4,20.5,2.7,19.1,2.7,17.5L2.7,-11.5C2.7,-13.1,2.5,-15.6,3.4,-17.4C4.5,-19.2,6.4,-20.5,8.7,-20.5L12.5,-20.5" stroke-linecap="round" id="shape10" stroke="#454545" stroke-width="4" fill="none" transform="translate(730.30,119.88)"/><path d="M-12.5,.0L-0.3,.0C1.4,.0,3.7,.0,5.7,.0C6.6,.0,7.6,.0,8.7,.0L12.5,.0" stroke-linecap="round" id="shape11" stroke="#454545" stroke-width="4" fill="none" transform="translate(730.30,140.35)"/><path d="M-12.5,-20.5L-0.3,-20.5C1.4,-20.5,2.7,-19.1,2.7,-17.5L2.7,11.5C2.7,13.1,2.5,15.6,3.4,17.4C4.5,19.2,6.4,20.5,8.7,20.5L12.5,20.5" stroke-linecap="round" id="shape12" stroke="#454545" stroke-width="4" fill="none" transform="translate(730.30,160.82)"/><path d="M-12.5,20.5L-0.3,20.5C1.4,20.5,2.7,19.1,2.7,17.5L2.7,-11.5C2.7,-13.1,2.5,-15.6,3.4,-17.4C4.5,-19.2,6.4,-20.5,8.7,-20.5L12.5,-20.5" stroke-linecap="round" id="shape13" stroke="#454545" stroke-width="4" fill="none" transform="translate(754.30,414.18)"/><path d="M-12.5,-20.5L-0.3,-20.5C1.4,-20.5,2.7,-19.1,2.7,-17.5L2.7,11.5C2.7,13.1,2.5,15.6,3.4,17.4C4.5,19.2,6.4,20.5,8.7,20.5L12.5,20.5" stroke-linecap="round" id="shape14" stroke="#454545" stroke-width="4" fill="none" transform="translate(754.30,455.13)"/><path d="M12.5,20.5L.3,20.5C-1.4,20.5,-2.7,19.1,-2.7,17.5L-2.7,-11.5C-2.7,-13.1,-2.5,-15.6,-3.4,-17.4C-4.5,-19.2,-6.4,-20.5,-8.7,-20.5L-12.5,-20.5" stroke-linecap="round" id="shape15" stroke="#454545" stroke-width="4" fill="none" transform="translate(213.86,461.56)"/><path d="M-12.5,.0L-0.3,.0C1.4,.0,3.7,.0,5.7,.0C6.6,.0,7.6,.0,8.7,.0L12.5,.0" stroke-linecap="round" id="shape16" stroke="#454545" stroke-width="4" fill="none" transform="translate(754.30,434.65)"/><path d="M12.5,10.2L.3,10.2C-1.4,10.2,-2.7,8.9,-2.7,7.2L-2.7,-1.2C-2.7,-2.9,-2.5,-5.3,-3.4,-7.1C-4.5,-9.0,-6.4,-10.2,-8.7,-10.2L-12.5,-10.2" stroke-linecap="round" id="shape17" stroke="#454545" stroke-width="4" fill="none" transform="translate(129.86,193.45)"/><path d="M12.5,-10.2L.3,-10.2C-1.4,-10.2,-2.7,-8.9,-2.7,-7.2L-2.7,1.2C-2.7,2.9,-2.5,5.3,-3.4,7.1C-4.5,9.0,-6.4,10.2,-8.7,10.2L-12.5,10.2" stroke-linecap="round" id="shape18" stroke="#454545" stroke-width="4" fill="none" transform="translate(129.86,213.93)"/><path d="M12.5,20.5L.3,20.5C-1.4,20.5,-2.7,19.1,-2.7,17.5L-2.7,-11.5C-2.7,-13.1,-2.5,-15.6,-3.4,-17.4C-4.5,-19.2,-6.4,-20.5,-8.7,-20.5L-12.5,-20.5" stroke-linecap="round" id="shape19" stroke="#454545" stroke-width="4" fill="none" transform="translate(132.86,314.41)"/><path d="M12.5,.0L.3,.0C-1.4,.0,-3.7,.0,-5.7,.0C-6.6,.0,-7.6,.0,-8.7,.0L-12.5,.0" stroke-linecap="round" id="shape20" stroke="#454545" stroke-width="4" fill="none" transform="translate(132.86,334.89)"/><path d="M12.5,-20.5L.3,-20.5C-1.4,-20.5,-2.7,-19.1,-2.7,-17.5L-2.7,11.5C-2.7,13.1,-2.5,15.6,-3.4,17.4C-4.5,19.2,-6.4,20.5,-8.7,20.5L-12.5,20.5" stroke-linecap="round" id="shape21" stroke="#454545" stroke-width="4" fill="none" transform="translate(132.86,355.36)"/><path d="M12.5,.0L.3,.0C-1.4,.0,-3.7,.0,-5.7,.0C-6.6,.0,-7.6,.0,-8.7,.0L-12.5,.0" stroke-linecap="round" id="shape22" stroke="#454545" stroke-width="4" fill="none" transform="translate(213.86,482.04)"/><path d="M12.5,-20.5L.3,-20.5C-1.4,-20.5,-2.7,-19.1,-2.7,-17.5L-2.7,11.5C-2.7,13.1,-2.5,15.6,-3.4,17.4C-4.5,19.2,-6.4,20.5,-8.7,20.5L-12.5,20.5" stroke-linecap="round" id="shape23" stroke="#454545" stroke-width="4" fill="none" transform="translate(213.86,502.51)"/><path d="M-13.1,97.3L-36.7,97.3C-38.4,97.3,-39.7,95.9,-39.7,94.3L-39.7,-88.3C-39.7,-89.9,-39.5,-92.4,-40.4,-94.1C-41.5,-96.0,-43.4,-97.3,-45.7,-97.3L-76.1,-97.3" stroke-linecap="round" id="shape24" stroke="#454545" stroke-width="4" fill="none" transform="translate(381.47,190.23)"/><path d="M12.5,10.2C.1,10.2,.5,-10.2,-12.5,-10.2" stroke-linecap="round" id="shape25" stroke="#454545" stroke-width="4" fill="none" transform="translate(147.86,82.73)"/><path d="M12.5,-10.2C.1,-10.2,.5,10.2,-12.5,10.2" stroke-linecap="round" id="shape26" stroke="#454545" stroke-width="4" fill="none" transform="translate(147.86,103.20)"/><g id="shape27" transform="translate(368.361000,253.000000)"><path d="M34.5,.0L143.9,.0C163.0,.0,178.4,15.4,178.4,34.5C178.4,53.6,163.0,69.0,143.9,69.0L34.5,69.0C15.4,69.0,.0,53.6,.0,34.5C.0,15.4,15.4,.0,34.5,.0z" stroke="#303030" stroke-width="4" fill-rule="nonzero" fill="#0053d6"/><text style="fill:#ffffff;font-family:微软雅黑;font-size:18.00pt;font-weight:bold" xml:space="preserve"><tspan y="44.0" x="34.0">Hsuanwu</tspan></text></g><g id="shape28" transform="translate(609.801000,262.500000)"><path d="M4.0,.0L99.0,.0C101.2,.0,103.0,1.8,103.0,4.0L103.0,46.0C103.0,48.2,101.2,50.0,99.0,50.0L4.0,50.0C1.8,50.0,.0,48.2,.0,46.0L.0,4.0C.0,1.8,1.8,.0,4.0,.0z" stroke="#454545" stroke-width="4" fill-rule="nonzero" fill="#ffffff"/><text style="fill:#303030;font-family:微软雅黑;font-size:14.00pt;font-weight:bold" xml:space="preserve"><tspan y="32.0" x="24.3">Xploit</tspan></text></g><g id="shape29" transform="translate(609.801000,115.350000)"><path d="M4.0,.0L104.0,.0C106.2,.0,108.0,1.8,108.0,4.0L108.0,46.0C108.0,48.2,106.2,50.0,104.0,50.0L4.0,50.0C1.8,50.0,.0,48.2,.0,46.0L.0,4.0C.0,1.8,1.8,.0,4.0,.0z" stroke="#454545" stroke-width="4" fill-rule="nonzero" fill="#ffffff"/><text style="fill:#303030;font-family:微软雅黑;font-size:14.00pt;font-weight:bold" xml:space="preserve"><tspan y="32.0" x="24.3">Xplore</tspan></text></g><g id="shape30" transform="translate(609.801000,409.650000)"><path d="M4.0,.0L128.0,.0C130.2,.0,132.0,1.8,132.0,4.0L132.0,46.0C132.0,48.2,130.2,50.0,128.0,50.0L4.0,50.0C1.8,50.0,.0,48.2,.0,46.0L.0,4.0C.0,1.8,1.8,.0,4.0,.0z" stroke="#454545" stroke-width="4" fill-rule="nonzero" fill="#ffffff"/><text style="fill:#303030;font-family:微软雅黑;font-size:14.00pt;font-weight:bold" xml:space="preserve"><tspan y="32.0" x="24.3">Common</tspan></text></g><g id="shape31" transform="translate(737.801000,214.300000)"><path d="M.0,.0L85.0,.0L85.0,32.3L.0,32.3L.0,.0z" fill-rule="nonzero" fill="#ffffff"/><path d="M.0,32.3L85.0,32.3" stroke="#454545" stroke-width="4" fill="none"/><text style="fill:#303030;font-family:微软雅黑;font-size:11.00pt;font-weight:bold" xml:space="preserve"><tspan y="20.9" x="12.9">Encoder</tspan></text></g><g id="shape32" transform="translate(737.801000,255.250000)"><path d="M.0,.0L69.0,.0L69.0,32.3L.0,32.3L.0,.0z" fill-rule="nonzero" fill="#ffffff"/><path d="M.0,32.3L69.0,32.3" stroke="#454545" stroke-width="4" fill="none"/><text style="fill:#303030;font-family:微软雅黑;font-size:11.00pt;font-weight:bold" xml:space="preserve"><tspan y="20.9" x="12.9">Agent</tspan></text></g><g id="shape33" transform="translate(737.801000,296.200000)"><path d="M.0,.0L82.0,.0L82.0,32.3L.0,32.3L.0,.0z" fill-rule="nonzero" fill="#ffffff"/><path d="M.0,32.3L82.0,32.3" stroke="#454545" stroke-width="4" fill="none"/><text style="fill:#303030;font-family:微软雅黑;font-size:11.00pt;font-weight:bold" xml:space="preserve"><tspan y="20.9" x="12.9">Storage</tspan></text></g><g id="shape34" transform="translate(226.361000,457.037500)"><path d="M4.0,.0L75.0,.0C77.2,.0,79.0,1.8,79.0,4.0L79.0,46.0C79.0,48.2,77.2,50.0,75.0,50.0L4.0,50.0C1.8,50.0,.0,48.2,.0,46.0L.0,4.0C.0,1.8,1.8,.0,4.0,.0z" stroke="#454545" stroke-width="4" fill-rule="nonzero" fill="#ffffff"/><text style="fill:#303030;font-family:微软雅黑;font-size:14.00pt;font-weight:bold" xml:space="preserve"><tspan y="32.0" x="24.3">Env</tspan></text></g><g id="shape35" transform="translate(142.361000,178.687500)"><path d="M4.0,.0L159.0,.0C161.2,.0,163.0,1.8,163.0,4.0L163.0,46.0C163.0,48.2,161.2,50.0,159.0,50.0L4.0,50.0C1.8,50.0,.0,48.2,.0,46.0L.0,4.0C.0,1.8,1.8,.0,4.0,.0z" stroke="#454545" stroke-width="4" fill-rule="nonzero" fill="#ffffff"/><text style="fill:#303030;font-family:微软雅黑;font-size:14.00pt;font-weight:bold" xml:space="preserve"><tspan y="32.0" x="24.3">Deployment</tspan></text></g><g id="shape36" transform="translate(145.361000,309.887500)"><path d="M4.0,.0L156.0,.0C158.2,.0,160.0,1.8,160.0,4.0L160.0,46.0C160.0,48.2,158.2,50.0,156.0,50.0L4.0,50.0C1.8,50.0,.0,48.2,.0,46.0L.0,4.0C.0,1.8,1.8,.0,4.0,.0z" stroke="#454545" stroke-width="4" fill-rule="nonzero" fill="#ffffff"/><text style="fill:#303030;font-family:微软雅黑;font-size:14.00pt;font-weight:bold" xml:space="preserve"><tspan y="32.0" x="24.3">Pre-training</tspan></text></g><g id="shape37" transform="translate(742.801000,67.150000)"><path d="M.0,.0L144.0,.0L144.0,32.3L.0,32.3L.0,.0z" fill-rule="nonzero" fill="#ffffff"/><path d="M.0,32.3L144.0,32.3" stroke="#454545" stroke-width="4" fill="none"/><text style="fill:#303030;font-family:微软雅黑;font-size:11.00pt;font-weight:bold" xml:space="preserve"><tspan y="20.9" x="12.9">Intrinsic Reward</tspan></text></g><g id="shape38" transform="translate(742.801000,108.100000)"><path d="M.0,.0L133.0,.0L133.0,32.3L.0,32.3L.0,.0z" fill-rule="nonzero" fill="#ffffff"/><path d="M.0,32.3L133.0,32.3" stroke="#454545" stroke-width="4" fill="none"/><text style="fill:#303030;font-family:微软雅黑;font-size:11.00pt;font-weight:bold" xml:space="preserve"><tspan y="20.9" x="12.9">Augmentation</tspan></text></g><g id="shape39" transform="translate(742.801000,149.050000)"><path d="M.0,.0L112.0,.0L112.0,32.3L.0,32.3L.0,.0z" fill-rule="nonzero" fill="#ffffff"/><path d="M.0,32.3L112.0,32.3" stroke="#454545" stroke-width="4" fill="none"/><text style="fill:#303030;font-family:微软雅黑;font-size:11.00pt;font-weight:bold" xml:space="preserve"><tspan y="20.9" x="12.9">Distribution</tspan></text></g><g id="shape40" transform="translate(766.801000,361.450000)"><path d="M.0,.0L75.0,.0L75.0,32.3L.0,32.3L.0,.0z" fill-rule="nonzero" fill="#ffffff"/><path d="M.0,32.3L75.0,32.3" stroke="#454545" stroke-width="4" fill="none"/><text style="fill:#303030;font-family:微软雅黑;font-size:11.00pt;font-weight:bold" xml:space="preserve"><tspan y="20.9" x="12.9">Engine</tspan></text></g><g id="shape41" transform="translate(766.801000,443.350000)"><path d="M.0,.0L65.0,.0L65.0,32.3L.0,32.3L.0,.0z" fill-rule="nonzero" fill="#ffffff"/><path d="M.0,32.3L65.0,32.3" stroke="#454545" stroke-width="4" fill="none"/><text style="fill:#303030;font-family:微软雅黑;font-size:11.00pt;font-weight:bold" xml:space="preserve"><tspan y="20.9" x="12.9">······</tspan></text></g><g id="shape42" transform="translate(87.361000,408.837500)"><path d="M.0,.0L114.0,.0L114.0,32.3L.0,32.3L.0,.0z" fill-rule="nonzero" fill="#ffffff"/><path d="M.0,32.3L114.0,32.3" stroke="#454545" stroke-width="4" fill="none"/><text style="fill:#303030;font-family:微软雅黑;font-size:11.00pt;font-weight:bold" xml:space="preserve"><tspan y="20.9" x="12.9">Atari Games</tspan></text></g><g id="shape43" transform="translate(766.801000,402.400000)"><path d="M.0,.0L76.0,.0L76.0,32.3L.0,32.3L.0,.0z" fill-rule="nonzero" fill="#ffffff"/><path d="M.0,32.3L76.0,32.3" stroke="#454545" stroke-width="4" fill="none"/><text style="fill:#303030;font-family:微软雅黑;font-size:11.00pt;font-weight:bold" xml:space="preserve"><tspan y="20.9" x="12.9">Logger</tspan></text></g><g id="shape44" transform="translate(39.361000,150.962500)"><path d="M.0,.0L78.0,.0L78.0,32.3L.0,32.3L.0,.0z" fill-rule="nonzero" fill="#ffffff"/><path d="M.0,32.3L78.0,32.3" stroke="#454545" stroke-width="4" fill="none"/><text style="fill:#303030;font-family:微软雅黑;font-size:11.00pt;font-weight:bold" xml:space="preserve"><tspan y="20.9" x="12.9">Python</tspan></text></g><g id="shape45" transform="translate(62.361000,191.912500)"><path d="M.0,.0L55.0,.0L55.0,32.3L.0,32.3L.0,.0z" fill-rule="nonzero" fill="#ffffff"/><path d="M.0,32.3L55.0,32.3" stroke="#454545" stroke-width="4" fill="none"/><text style="fill:#303030;font-family:微软雅黑;font-size:11.00pt;font-weight:bold" xml:space="preserve"><tspan y="20.9" x="12.9">C++</tspan></text></g><g id="shape46" transform="translate(67.361000,261.687500)"><path d="M.0,.0L53.0,.0L53.0,32.3L.0,32.3L.0,.0z" fill-rule="nonzero" fill="#ffffff"/><path d="M.0,32.3L53.0,32.3" stroke="#454545" stroke-width="4" fill="none"/><text style="fill:#303030;font-family:微软雅黑;font-size:11.00pt;font-weight:bold" xml:space="preserve"><tspan y="20.9" x="12.9">ICM</tspan></text></g><g id="shape47" transform="translate(69.361000,302.637500)"><path d="M.0,.0L51.0,.0L51.0,32.3L.0,32.3L.0,.0z" fill-rule="nonzero" fill="#ffffff"/><path d="M.0,32.3L51.0,32.3" stroke="#454545" stroke-width="4" fill="none"/><text style="fill:#303030;font-family:微软雅黑;font-size:11.00pt;font-weight:bold" xml:space="preserve"><tspan y="20.9" x="12.9">RE3</tspan></text></g><g id="shape48" transform="translate(55.361000,343.587500)"><path d="M.0,.0L65.0,.0L65.0,32.3L.0,32.3L.0,.0z" fill-rule="nonzero" fill="#ffffff"/><path d="M.0,32.3L65.0,32.3" stroke="#454545" stroke-width="4" fill="none"/><text style="fill:#303030;font-family:微软雅黑;font-size:11.00pt;font-weight:bold" xml:space="preserve"><tspan y="20.9" x="12.9">······</tspan></text></g><g id="shape49" transform="translate(60.361000,449.787500)"><path d="M.0,.0L141.0,.0L141.0,32.3L.0,32.3L.0,.0z" fill-rule="nonzero" fill="#ffffff"/><path d="M.0,32.3L141.0,32.3" stroke="#454545" stroke-width="4" fill="none"/><text style="fill:#303030;font-family:微软雅黑;font-size:11.00pt;font-weight:bold" xml:space="preserve"><tspan y="20.9" x="12.9">Procgen Games</tspan></text></g><g id="shape50" transform="translate(136.361000,490.737500)"><path d="M.0,.0L65.0,.0L65.0,32.3L.0,32.3L.0,.0z" fill-rule="nonzero" fill="#ffffff"/><path d="M.0,32.3L65.0,32.3" stroke="#454545" stroke-width="4" fill="none"/><text style="fill:#303030;font-family:微软雅黑;font-size:11.00pt;font-weight:bold" xml:space="preserve"><tspan y="20.9" x="12.9">······</tspan></text></g><g id="shape51" transform="translate(160.361000,67.962500)"><path d="M4.0,.0L141.0,.0C143.2,.0,145.0,1.8,145.0,4.0L145.0,46.0C145.0,48.2,143.2,50.0,141.0,50.0L4.0,50.0C1.8,50.0,.0,48.2,.0,46.0L.0,4.0C.0,1.8,1.8,.0,4.0,.0z" stroke="#454545" stroke-width="4" fill-rule="nonzero" fill="#ffffff"/><text style="fill:#303030;font-family:微软雅黑;font-size:14.00pt;font-weight:bold" xml:space="preserve"><tspan y="32.0" x="24.3">Evaluation</tspan></text></g><g id="shape52" transform="translate(49.361000,40.237500)"><path d="M.0,.0L86.0,.0L86.0,32.3L.0,32.3L.0,.0z" fill-rule="nonzero" fill="#ffffff"/><path d="M.0,32.3L86.0,32.3" stroke="#454545" stroke-width="4" fill="none"/><text style="fill:#303030;font-family:微软雅黑;font-size:11.00pt;font-weight:bold" xml:space="preserve"><tspan y="20.9" x="12.9">IQM, OG</tspan></text></g><g id="shape53" transform="translate(70.361000,81.187500)"><path d="M.0,.0L65.0,.0L65.0,32.3L.0,32.3L.0,.0z" fill-rule="nonzero" fill="#ffffff"/><path d="M.0,32.3L65.0,32.3" stroke="#454545" stroke-width="4" fill="none"/><text style="fill:#303030;font-family:微软雅黑;font-size:11.00pt;font-weight:bold" xml:space="preserve"><tspan y="20.9" x="11.9">······</tspan></text></g></g></svg>