<svg xmlns:xlink="http://www.w3.org/1999/xlink" width="799" xmlns:ev="http://www.w3.org/2001/xml-events" viewBox="0 0 799 437" xmlns="http://www.w3.org/2000/svg" height="437"><defs/><g transform="translate(5.5,5.5)" id="page1"><rect width="789" x="0" fill="none" height="427" y="0"/><g transform="translate(38.655000,38.553500)" id="group1"><path d="M710.9,119.4L710.9,11.0C710.9,4.9,706.0,.0,699.9,.0L11.0,.0C4.9,.0,.0,4.9,.0,11.0L.0,119.4C.0,125.5,4.9,130.4,11.0,130.4L699.9,130.4C706.0,130.4,710.9,125.5,710.9,119.4z" fill-rule="nonzero" fill="#cce6ff" id="shape2"/><g id="shape3"><path d="M115.9,119.4L115.9,11.0C115.9,4.9,111.0,.0,104.9,.0L11.0,.0C4.9,.0,.0,4.9,.0,11.0L.0,119.4C.0,125.5,4.9,130.4,11.0,130.4L104.9,130.4C111.0,130.4,115.9,125.5,115.9,119.4z" fill-rule="nonzero" fill="#017fff"/><text xml:space="preserve" style="fill:#ffffff;font-family:微软雅黑;font-size:22.00pt;font-weight:bold"><tspan x="24.9" y="74.7">Tool</tspan></text></g><g transform="translate(128.486000,2.830600)" id="group4"><path d="M182.0,84.8L182.0,11.0C182.0,4.9,177.1,.0,171.0,.0L11.0,.0C4.9,.0,.0,4.9,.0,11.0L.0,84.8C.0,90.8,4.9,95.8,11.0,95.8L171.0,95.8C177.1,95.8,182.0,90.8,182.0,84.8z" fill-rule="nonzero" transform="translate(0.000000,29.000000)" fill="#b2e8df" id="shape5"/><g transform="translate(15.859500,36.127800)" id="shape6"><path d="M150.3,13.0L150.3,11.0C150.3,4.9,145.4,.0,139.3,.0L11.0,.0C4.9,.0,.0,4.9,.0,11.0L.0,13.0C.0,19.1,4.9,24.0,11.0,24.0L139.3,24.0C145.4,24.0,150.3,19.1,150.3,13.0z" fill-rule="nonzero" fill="#d0f0ea"/><text xml:space="preserve" style="fill:#191919;font-family:微软雅黑;font-size:10.00pt;font-weight:bold"><tspan x="27.9" y="15.0">Env Wrappers</tspan></text></g><g transform="translate(15.859500,64.864400)" id="shape7"><path d="M150.3,13.0L150.3,11.0C150.3,4.9,145.4,.0,139.3,.0L11.0,.0C4.9,.0,.0,4.9,.0,11.0L.0,13.0C.0,19.1,4.9,24.0,11.0,24.0L139.3,24.0C145.4,24.0,150.3,19.1,150.3,13.0z" fill-rule="nonzero" fill="#d0f0ea"/><text xml:space="preserve" style="fill:#191919;font-family:微软雅黑;font-size:10.00pt;font-weight:bold"><tspan x="38.1" y="15.0">Games API</tspan></text></g><g transform="translate(15.859500,93.601500)" id="shape8"><path d="M150.3,13.0L150.3,11.0C150.3,4.9,145.4,.0,139.3,.0L11.0,.0C4.9,.0,.0,4.9,.0,11.0L.0,13.0C.0,19.1,4.9,24.0,11.0,24.0L139.3,24.0C145.4,24.0,150.3,19.1,150.3,13.0z" fill-rule="nonzero" fill="#d0f0ea"/><text xml:space="preserve" style="fill:#191919;font-family:微软雅黑;font-size:10.00pt;font-weight:bold"><tspan x="69.1" y="15.0">...</tspan></text></g><g id="shape9"><text xml:space="preserve" style="fill:#191919;font-family:微软雅黑;font-size:12.00pt;font-weight:bold"><tspan x="2.0" y="18.5">Env</tspan></text></g></g><g transform="translate(323.486000,2.830500)" id="group10"><path d="M182.0,84.8L182.0,11.0C182.0,4.9,177.1,.0,171.0,.0L11.0,.0C4.9,.0,.0,4.9,.0,11.0L.0,84.8C.0,90.8,4.9,95.8,11.0,95.8L171.0,95.8C177.1,95.8,182.0,90.8,182.0,84.8z" fill-rule="nonzero" transform="translate(0.000000,29.000000)" fill="#b2e8df" id="shape11"/><g transform="translate(15.859500,36.127800)" id="shape12"><path d="M150.3,13.0L150.3,11.0C150.3,4.9,145.4,.0,139.3,.0L11.0,.0C4.9,.0,.0,4.9,.0,11.0L.0,13.0C.0,19.1,4.9,24.0,11.0,24.0L139.3,24.0C145.4,24.0,150.3,19.1,150.3,13.0z" fill-rule="nonzero" fill="#d0f0ea"/><text xml:space="preserve" style="fill:#191919;font-family:微软雅黑;font-size:10.00pt;font-weight:bold"><tspan x="31.1" y="15.5">Performance</tspan></text></g><g transform="translate(15.859500,64.864400)" id="shape13"><path d="M150.3,13.0L150.3,11.0C150.3,4.9,145.4,.0,139.3,.0L11.0,.0C4.9,.0,.0,4.9,.0,11.0L.0,13.0C.0,19.1,4.9,24.0,11.0,24.0L139.3,24.0C145.4,24.0,150.3,19.1,150.3,13.0z" fill-rule="nonzero" fill="#d0f0ea"/><text xml:space="preserve" style="fill:#191919;font-family:微软雅黑;font-size:10.00pt;font-weight:bold"><tspan x="33.9" y="15.5">Comparison</tspan></text></g><g transform="translate(15.859500,93.601500)" id="shape14"><path d="M150.3,13.0L150.3,11.0C150.3,4.9,145.4,.0,139.3,.0L11.0,.0C4.9,.0,.0,4.9,.0,11.0L.0,13.0C.0,19.1,4.9,24.0,11.0,24.0L139.3,24.0C145.4,24.0,150.3,19.1,150.3,13.0z" fill-rule="nonzero" fill="#d0f0ea"/><text xml:space="preserve" style="fill:#191919;font-family:微软雅黑;font-size:10.00pt;font-weight:bold"><tspan x="31.4" y="15.5">Visualization</tspan></text></g><g id="shape15"><text xml:space="preserve" style="fill:#191919;font-family:微软雅黑;font-size:12.00pt;font-weight:bold"><tspan x="2.4" y="18.5">Evaluation</tspan></text></g></g><g transform="translate(518.486000,2.830500)" id="group16"><path d="M182.0,84.8L182.0,11.0C182.0,4.9,177.1,.0,171.0,.0L11.0,.0C4.9,.0,.0,4.9,.0,11.0L.0,84.8C.0,90.8,4.9,95.8,11.0,95.8L171.0,95.8C177.1,95.8,182.0,90.8,182.0,84.8z" fill-rule="nonzero" transform="translate(0.000000,29.000000)" fill="#b2e8df" id="shape17"/><g transform="translate(15.859500,36.127800)" id="shape18"><path d="M150.3,13.0L150.3,11.0C150.3,4.9,145.4,.0,139.3,.0L11.0,.0C4.9,.0,.0,4.9,.0,11.0L.0,13.0C.0,19.1,4.9,24.0,11.0,24.0L139.3,24.0C145.4,24.0,150.3,19.1,150.3,13.0z" fill-rule="nonzero" fill="#d0f0ea"/><text xml:space="preserve" style="fill:#191919;font-family:微软雅黑;font-size:10.00pt;font-weight:bold"><tspan x="45.9" y="15.5">Datasets</tspan></text></g><g transform="translate(15.859500,64.864400)" id="shape19"><path d="M150.3,13.0L150.3,11.0C150.3,4.9,145.4,.0,139.3,.0L11.0,.0C4.9,.0,.0,4.9,.0,11.0L.0,13.0C.0,19.1,4.9,24.0,11.0,24.0L139.3,24.0C145.4,24.0,150.3,19.1,150.3,13.0z" fill-rule="nonzero" fill="#d0f0ea"/><text xml:space="preserve" style="fill:#191919;font-family:微软雅黑;font-size:10.00pt;font-weight:bold"><tspan x="49.9" y="15.5">Models</tspan></text></g><g transform="translate(15.859500,93.601500)" id="shape20"><path d="M150.3,13.0L150.3,11.0C150.3,4.9,145.4,.0,139.3,.0L11.0,.0C4.9,.0,.0,4.9,.0,11.0L.0,13.0C.0,19.1,4.9,24.0,11.0,24.0L139.3,24.0C145.4,24.0,150.3,19.1,150.3,13.0z" fill-rule="nonzero" fill="#d0f0ea"/><text xml:space="preserve" style="fill:#191919;font-family:微软雅黑;font-size:10.00pt;font-weight:bold"><tspan x="69.1" y="15.5">...</tspan></text></g><g id="shape21"><text xml:space="preserve" style="fill:#191919;font-family:微软雅黑;font-size:12.00pt;font-weight:bold"><tspan x="2.0" y="18.5">Hub</tspan></text></g></g></g><g transform="translate(38.655000,174.958400)" id="group22"><path d="M710.9,119.4L710.9,11.0C710.9,4.9,706.0,.0,699.9,.0L11.0,.0C4.9,.0,.0,4.9,.0,11.0L.0,119.4C.0,125.5,4.9,130.4,11.0,130.4L699.9,130.4C706.0,130.4,710.9,125.5,710.9,119.4z" fill-rule="nonzero" fill="#cce6ff" id="shape23"/><g id="shape24"><path d="M115.9,119.4L115.9,11.0C115.9,4.9,111.0,.0,104.9,.0L11.0,.0C4.9,.0,.0,4.9,.0,11.0L.0,119.4C.0,125.5,4.9,130.4,11.0,130.4L104.9,130.4C111.0,130.4,115.9,125.5,115.9,119.4z" fill-rule="nonzero" fill="#fd6969"/><text xml:space="preserve" style="fill:#ffffff;font-family:微软雅黑;font-size:22.00pt;font-weight:bold"><tspan x="23.4" y="74.7">Core</tspan></text></g><g transform="translate(128.486000,2.289500)" id="group25"><path d="M182.0,84.8L182.0,11.0C182.0,4.9,177.1,.0,171.0,.0L11.0,.0C4.9,.0,.0,4.9,.0,11.0L.0,84.8C.0,90.8,4.9,95.8,11.0,95.8L171.0,95.8C177.1,95.8,182.0,90.8,182.0,84.8z" fill-rule="nonzero" transform="translate(0.000000,29.000000)" fill="#b2e8df" id="shape26"/><g transform="translate(15.859500,36.127800)" id="shape27"><path d="M150.3,13.0L150.3,11.0C150.3,4.9,145.4,.0,139.3,.0L11.0,.0C4.9,.0,.0,4.9,.0,11.0L.0,13.0C.0,19.1,4.9,24.0,11.0,24.0L139.3,24.0C145.4,24.0,150.3,19.1,150.3,13.0z" fill-rule="nonzero" fill="#d0f0ea"/><text xml:space="preserve" style="fill:#191919;font-family:微软雅黑;font-size:10.00pt;font-weight:bold"><tspan x="33.1" y="15.5">Base Classes</tspan></text></g><g transform="translate(15.859500,64.864400)" id="shape28"><path d="M150.3,13.0L150.3,11.0C150.3,4.9,145.4,.0,139.3,.0L11.0,.0C4.9,.0,.0,4.9,.0,11.0L.0,13.0C.0,19.1,4.9,24.0,11.0,24.0L139.3,24.0C145.4,24.0,150.3,19.1,150.3,13.0z" fill-rule="nonzero" fill="#d0f0ea"/><text xml:space="preserve" style="fill:#191919;font-family:微软雅黑;font-size:10.00pt;font-weight:bold"><tspan x="51.1" y="15.5">Logger</tspan></text></g><g transform="translate(15.859500,93.601500)" id="shape29"><path d="M150.3,13.0L150.3,11.0C150.3,4.9,145.4,.0,139.3,.0L11.0,.0C4.9,.0,.0,4.9,.0,11.0L.0,13.0C.0,19.1,4.9,24.0,11.0,24.0L139.3,24.0C145.4,24.0,150.3,19.1,150.3,13.0z" fill-rule="nonzero" fill="#d0f0ea"/><text xml:space="preserve" style="fill:#191919;font-family:微软雅黑;font-size:10.00pt;font-weight:bold"><tspan x="69.1" y="15.0">...</tspan></text></g><g id="shape30"><text xml:space="preserve" style="fill:#191919;font-family:微软雅黑;font-size:12.00pt;font-weight:bold"><tspan x="2.4" y="18.5">Common</tspan></text></g></g><g transform="translate(323.486000,2.289500)" id="group31"><path d="M182.0,84.8L182.0,11.0C182.0,4.9,177.1,.0,171.0,.0L11.0,.0C4.9,.0,.0,4.9,.0,11.0L.0,84.8C.0,90.8,4.9,95.8,11.0,95.8L171.0,95.8C177.1,95.8,182.0,90.8,182.0,84.8z" fill-rule="nonzero" transform="translate(0.000000,29.000000)" fill="#b2e8df" id="shape32"/><g transform="translate(15.859500,36.127800)" id="shape33"><path d="M150.3,13.0L150.3,11.0C150.3,4.9,145.4,.0,139.3,.0L11.0,.0C4.9,.0,.0,4.9,.0,11.0L.0,13.0C.0,19.1,4.9,24.0,11.0,24.0L139.3,24.0C145.4,24.0,150.3,19.1,150.3,13.0z" fill-rule="nonzero" fill="#d0f0ea"/><text xml:space="preserve" style="fill:#191919;font-family:微软雅黑;font-size:10.00pt;font-weight:bold"><tspan x="54.4" y="15.5">Agent</tspan></text></g><g transform="translate(15.859500,64.864400)" id="shape34"><path d="M150.3,13.0L150.3,11.0C150.3,4.9,145.4,.0,139.3,.0L11.0,.0C4.9,.0,.0,4.9,.0,11.0L.0,13.0C.0,19.1,4.9,24.0,11.0,24.0L139.3,24.0C145.4,24.0,150.3,19.1,150.3,13.0z" fill-rule="nonzero" fill="#d0f0ea"/><text xml:space="preserve" style="fill:#191919;font-family:微软雅黑;font-size:10.00pt;font-weight:bold"><tspan x="47.6" y="15.5">Encoder</tspan></text></g><g transform="translate(15.859500,93.601500)" id="shape35"><path d="M150.3,13.0L150.3,11.0C150.3,4.9,145.4,.0,139.3,.0L11.0,.0C4.9,.0,.0,4.9,.0,11.0L.0,13.0C.0,19.1,4.9,24.0,11.0,24.0L139.3,24.0C145.4,24.0,150.3,19.1,150.3,13.0z" fill-rule="nonzero" fill="#d0f0ea"/><text xml:space="preserve" style="fill:#191919;font-family:微软雅黑;font-size:10.00pt;font-weight:bold"><tspan x="48.6" y="15.5">Storage</tspan></text></g><g id="shape36"><text xml:space="preserve" style="fill:#191919;font-family:微软雅黑;font-size:12.00pt;font-weight:bold"><tspan x="2.4" y="18.5">Xploit</tspan></text></g></g><g transform="translate(520.345000,2.289500)" id="group37"><path d="M182.0,84.8L182.0,11.0C182.0,4.9,177.1,.0,171.0,.0L11.0,.0C4.9,.0,.0,4.9,.0,11.0L.0,84.8C.0,90.8,4.9,95.8,11.0,95.8L171.0,95.8C177.1,95.8,182.0,90.8,182.0,84.8z" fill-rule="nonzero" transform="translate(0.000000,29.000000)" fill="#b2e8df" id="shape38"/><g transform="translate(15.859500,36.127800)" id="shape39"><path d="M150.3,13.0L150.3,11.0C150.3,4.9,145.4,.0,139.3,.0L11.0,.0C4.9,.0,.0,4.9,.0,11.0L.0,13.0C.0,19.1,4.9,24.0,11.0,24.0L139.3,24.0C145.4,24.0,150.3,19.1,150.3,13.0z" fill-rule="nonzero" fill="#d0f0ea"/><text xml:space="preserve" style="fill:#191919;font-family:微软雅黑;font-size:10.00pt;font-weight:bold"><tspan x="34.4" y="15.5">Distribution</tspan></text></g><g transform="translate(15.859500,64.864400)" id="shape40"><path d="M150.3,13.0L150.3,11.0C150.3,4.9,145.4,.0,139.3,.0L11.0,.0C4.9,.0,.0,4.9,.0,11.0L.0,13.0C.0,19.1,4.9,24.0,11.0,24.0L139.3,24.0C145.4,24.0,150.3,19.1,150.3,13.0z" fill-rule="nonzero" fill="#d0f0ea"/><text xml:space="preserve" style="fill:#191919;font-family:微软雅黑;font-size:10.00pt;font-weight:bold"><tspan x="25.4" y="15.5">Augmentation</tspan></text></g><g transform="translate(15.859500,93.601500)" id="shape41"><path d="M150.3,13.0L150.3,11.0C150.3,4.9,145.4,.0,139.3,.0L11.0,.0C4.9,.0,.0,4.9,.0,11.0L.0,13.0C.0,19.1,4.9,24.0,11.0,24.0L139.3,24.0C145.4,24.0,150.3,19.1,150.3,13.0z" fill-rule="nonzero" fill="#d0f0ea"/><text xml:space="preserve" style="fill:#191919;font-family:微软雅黑;font-size:10.00pt;font-weight:bold"><tspan x="49.4" y="15.5">Reward</tspan></text></g><g id="shape42"><text xml:space="preserve" style="fill:#191919;font-family:微软雅黑;font-size:12.00pt;font-weight:bold"><tspan x="2.4" y="18.5">Xplore</tspan></text></g></g></g><g transform="translate(38.655000,311.678100)" id="group43"><path d="M710.9,64.8L710.9,11.0C710.9,4.9,706.0,.0,699.9,.0L11.0,.0C4.9,.0,.0,4.9,.0,11.0L.0,64.8C.0,70.9,4.9,75.8,11.0,75.8L699.9,75.8C706.0,75.8,710.9,70.9,710.9,64.8z" fill-rule="nonzero" fill="#cce6ff" id="shape44"/><g id="shape45"><path d="M115.9,64.8L115.9,11.0C115.9,4.9,111.0,.0,104.9,.0L11.0,.0C4.9,.0,.0,4.9,.0,11.0L.0,64.8C.0,70.9,4.9,75.8,11.0,75.8L104.9,75.8C111.0,75.8,115.9,70.9,115.9,64.8z" fill-rule="nonzero" fill="#017fff"/><text xml:space="preserve" style="fill:#ffffff;font-family:微软雅黑;font-size:22.00pt;font-weight:bold"><tspan x="23.2" y="47.4">App.</tspan></text></g><g transform="translate(149.419000,21.612400)" id="group46"><g id="shape47"><path d="M150.3,21.6L150.3,11.0C150.3,4.9,145.4,.0,139.3,.0L11.0,.0C4.9,.0,.0,4.9,.0,11.0L.0,21.6C.0,27.7,4.9,32.6,11.0,32.6L139.3,32.6C145.4,32.6,150.3,27.7,150.3,21.6z" fill-rule="nonzero" fill="#b2e8df"/><text xml:space="preserve" style="fill:#191919;font-family:微软雅黑;font-size:12.00pt;font-weight:bold"><tspan x="21.1" y="20.3">Deployement</tspan></text></g><g transform="translate(184.447400,0.000000)" id="shape48"><path d="M150.3,21.6L150.3,11.0C150.3,4.9,145.4,.0,139.3,.0L11.0,.0C4.9,.0,.0,4.9,.0,11.0L.0,21.6C.0,27.7,4.9,32.6,11.0,32.6L139.3,32.6C145.4,32.6,150.3,27.7,150.3,21.6z" fill-rule="nonzero" fill="#b2e8df"/><text xml:space="preserve" style="fill:#191919;font-family:微软雅黑;font-size:12.00pt;font-weight:bold"><tspan x="26.6" y="20.3">Pre-training</tspan></text></g><g transform="translate(368.894400,0.000000)" id="shape49"><path d="M150.3,21.6L150.3,11.0C150.3,4.9,145.4,.0,139.3,.0L11.0,.0C4.9,.0,.0,4.9,.0,11.0L.0,21.6C.0,27.7,4.9,32.6,11.0,32.6L139.3,32.6C145.4,32.6,150.3,27.7,150.3,21.6z" fill-rule="nonzero" fill="#b2e8df"/><text xml:space="preserve" style="fill:#191919;font-family:微软雅黑;font-size:12.00pt;font-weight:bold"><tspan x="46.1" y="20.5">Copilot</tspan></text></g></g></g></g></svg>