<svg xmlns:ev="http://www.w3.org/2001/xml-events" xmlns="http://www.w3.org/2000/svg" viewBox="0 0 799 437" height="437" xmlns:xlink="http://www.w3.org/1999/xlink" width="799"><defs/><g id="page1" transform="translate(5.5,5.5)"><rect y="0" x="0" height="427" fill="none" width="789"/><g id="group1" transform="translate(38.655000,38.553500)"><path id="shape2" fill-rule="nonzero" d="M710.9,119.4L710.9,11.0C710.9,4.9,706.0,.0,699.9,.0L11.0,.0C4.9,.0,.0,4.9,.0,11.0L.0,119.4C.0,125.5,4.9,130.4,11.0,130.4L699.9,130.4C706.0,130.4,710.9,125.5,710.9,119.4z" fill="#cce6ff"/><g id="shape3"><path fill-rule="nonzero" d="M115.9,119.4L115.9,11.0C115.9,4.9,111.0,.0,104.9,.0L11.0,.0C4.9,.0,.0,4.9,.0,11.0L.0,119.4C.0,125.5,4.9,130.4,11.0,130.4L104.9,130.4C111.0,130.4,115.9,125.5,115.9,119.4z" fill="#017fff"/><text xml:space="preserve" style="fill:#ffffff;font-family:微软雅黑;font-size:22.00pt;font-weight:bold"><tspan y="74.7" x="24.9">Tool</tspan></text></g><g id="group4" transform="translate(128.486000,2.830600)"><path id="shape5" transform="translate(0.000000,29.000000)" fill-rule="nonzero" d="M182.0,84.8L182.0,11.0C182.0,4.9,177.1,.0,171.0,.0L11.0,.0C4.9,.0,.0,4.9,.0,11.0L.0,84.8C.0,90.8,4.9,95.8,11.0,95.8L171.0,95.8C177.1,95.8,182.0,90.8,182.0,84.8z" fill="#b2e8df"/><g id="shape6" transform="translate(15.859500,36.127800)"><path fill-rule="nonzero" d="M150.3,13.0L150.3,11.0C150.3,4.9,145.4,.0,139.3,.0L11.0,.0C4.9,.0,.0,4.9,.0,11.0L.0,13.0C.0,19.1,4.9,24.0,11.0,24.0L139.3,24.0C145.4,24.0,150.3,19.1,150.3,13.0z" fill="#d0f0ea"/><text xml:space="preserve" style="fill:#191919;font-family:微软雅黑;font-size:10.00pt;font-weight:bold"><tspan y="15.0" x="27.9">Env Wrappers</tspan></text></g><g id="shape7" transform="translate(15.859500,64.864400)"><path fill-rule="nonzero" d="M150.3,13.0L150.3,11.0C150.3,4.9,145.4,.0,139.3,.0L11.0,.0C4.9,.0,.0,4.9,.0,11.0L.0,13.0C.0,19.1,4.9,24.0,11.0,24.0L139.3,24.0C145.4,24.0,150.3,19.1,150.3,13.0z" fill="#d0f0ea"/><text xml:space="preserve" style="fill:#191919;font-family:微软雅黑;font-size:10.00pt;font-weight:bold"><tspan y="15.0" x="38.1">Games API</tspan></text></g><g id="shape8" transform="translate(15.859500,93.601500)"><path fill-rule="nonzero" d="M150.3,13.0L150.3,11.0C150.3,4.9,145.4,.0,139.3,.0L11.0,.0C4.9,.0,.0,4.9,.0,11.0L.0,13.0C.0,19.1,4.9,24.0,11.0,24.0L139.3,24.0C145.4,24.0,150.3,19.1,150.3,13.0z" fill="#d0f0ea"/><text xml:space="preserve" style="fill:#191919;font-family:微软雅黑;font-size:10.00pt;font-weight:bold"><tspan y="15.0" x="69.1">...</tspan></text></g><g id="shape9"><text xml:space="preserve" style="fill:#191919;font-family:微软雅黑;font-size:12.00pt;font-weight:bold"><tspan y="18.5" x="2.0">Env</tspan></text></g></g><g id="group10" transform="translate(323.486000,2.830500)"><path id="shape11" transform="translate(0.000000,29.000000)" fill-rule="nonzero" d="M182.0,84.8L182.0,11.0C182.0,4.9,177.1,.0,171.0,.0L11.0,.0C4.9,.0,.0,4.9,.0,11.0L.0,84.8C.0,90.8,4.9,95.8,11.0,95.8L171.0,95.8C177.1,95.8,182.0,90.8,182.0,84.8z" fill="#b2e8df"/><g id="shape12" transform="translate(15.859500,36.127800)"><path fill-rule="nonzero" d="M150.3,13.0L150.3,11.0C150.3,4.9,145.4,.0,139.3,.0L11.0,.0C4.9,.0,.0,4.9,.0,11.0L.0,13.0C.0,19.1,4.9,24.0,11.0,24.0L139.3,24.0C145.4,24.0,150.3,19.1,150.3,13.0z" fill="#d0f0ea"/><text xml:space="preserve" style="fill:#191919;font-family:微软雅黑;font-size:10.00pt;font-weight:bold"><tspan y="15.5" x="31.1">Performance</tspan></text></g><g id="shape13" transform="translate(15.859500,64.864400)"><path fill-rule="nonzero" d="M150.3,13.0L150.3,11.0C150.3,4.9,145.4,.0,139.3,.0L11.0,.0C4.9,.0,.0,4.9,.0,11.0L.0,13.0C.0,19.1,4.9,24.0,11.0,24.0L139.3,24.0C145.4,24.0,150.3,19.1,150.3,13.0z" fill="#d0f0ea"/><text xml:space="preserve" style="fill:#191919;font-family:微软雅黑;font-size:10.00pt;font-weight:bold"><tspan y="15.5" x="33.9">Comparison</tspan></text></g><g id="shape14" transform="translate(15.859500,93.601500)"><path fill-rule="nonzero" d="M150.3,13.0L150.3,11.0C150.3,4.9,145.4,.0,139.3,.0L11.0,.0C4.9,.0,.0,4.9,.0,11.0L.0,13.0C.0,19.1,4.9,24.0,11.0,24.0L139.3,24.0C145.4,24.0,150.3,19.1,150.3,13.0z" fill="#d0f0ea"/><text xml:space="preserve" style="fill:#191919;font-family:微软雅黑;font-size:10.00pt;font-weight:bold"><tspan y="15.5" x="31.4">Visualization</tspan></text></g><g id="shape15"><text xml:space="preserve" style="fill:#191919;font-family:微软雅黑;font-size:12.00pt;font-weight:bold"><tspan y="18.5" x="2.4">Evaluation</tspan></text></g></g><g id="group16" transform="translate(518.486000,2.830500)"><path id="shape17" transform="translate(0.000000,29.000000)" fill-rule="nonzero" d="M182.0,84.8L182.0,11.0C182.0,4.9,177.1,.0,171.0,.0L11.0,.0C4.9,.0,.0,4.9,.0,11.0L.0,84.8C.0,90.8,4.9,95.8,11.0,95.8L171.0,95.8C177.1,95.8,182.0,90.8,182.0,84.8z" fill="#b2e8df"/><g id="shape18" transform="translate(15.859500,36.127800)"><path fill-rule="nonzero" d="M150.3,13.0L150.3,11.0C150.3,4.9,145.4,.0,139.3,.0L11.0,.0C4.9,.0,.0,4.9,.0,11.0L.0,13.0C.0,19.1,4.9,24.0,11.0,24.0L139.3,24.0C145.4,24.0,150.3,19.1,150.3,13.0z" fill="#d0f0ea"/><text xml:space="preserve" style="fill:#191919;font-family:微软雅黑;font-size:10.00pt;font-weight:bold"><tspan y="15.5" x="45.9">Datasets</tspan></text></g><g id="shape19" transform="translate(15.859500,64.864400)"><path fill-rule="nonzero" d="M150.3,13.0L150.3,11.0C150.3,4.9,145.4,.0,139.3,.0L11.0,.0C4.9,.0,.0,4.9,.0,11.0L.0,13.0C.0,19.1,4.9,24.0,11.0,24.0L139.3,24.0C145.4,24.0,150.3,19.1,150.3,13.0z" fill="#d0f0ea"/><text xml:space="preserve" style="fill:#191919;font-family:微软雅黑;font-size:10.00pt;font-weight:bold"><tspan y="15.5" x="49.9">Models</tspan></text></g><g id="shape20" transform="translate(15.859500,93.601500)"><path fill-rule="nonzero" d="M150.3,13.0L150.3,11.0C150.3,4.9,145.4,.0,139.3,.0L11.0,.0C4.9,.0,.0,4.9,.0,11.0L.0,13.0C.0,19.1,4.9,24.0,11.0,24.0L139.3,24.0C145.4,24.0,150.3,19.1,150.3,13.0z" fill="#d0f0ea"/><text xml:space="preserve" style="fill:#191919;font-family:微软雅黑;font-size:10.00pt;font-weight:bold"><tspan y="15.5" x="69.1">...</tspan></text></g><g id="shape21"><text xml:space="preserve" style="fill:#191919;font-family:微软雅黑;font-size:12.00pt;font-weight:bold"><tspan y="18.5" x="2.0">Hub</tspan></text></g></g></g><path id="shape22" transform="translate(38.655000,174.958200)" fill-rule="nonzero" d="M710.9,124.0L710.9,11.0C710.9,4.9,706.0,.0,699.9,.0L11.0,.0C4.9,.0,.0,4.9,.0,11.0L.0,124.0C.0,130.1,4.9,135.0,11.0,135.0L699.9,135.0C706.0,135.0,710.9,130.1,710.9,124.0z" fill="#cce6ff"/><g id="shape23" transform="translate(38.654900,174.958200)"><path fill-rule="nonzero" d="M115.9,124.0L115.9,11.0C115.9,4.9,111.0,.0,104.9,.0L11.0,.0C4.9,.0,.0,4.9,.0,11.0L.0,124.0C.0,130.1,4.9,135.0,11.0,135.0L104.9,135.0C111.0,135.0,115.9,130.1,115.9,124.0z" fill="#fd6969"/><text xml:space="preserve" style="fill:#ffffff;font-family:微软雅黑;font-size:22.00pt;font-weight:bold"><tspan y="77.0" x="23.4">Core</tspan></text></g><g id="group24" transform="translate(167.141000,177.248000)"><path id="shape25" transform="translate(0.000000,29.000000)" fill-rule="nonzero" d="M182.0,84.8L182.0,11.0C182.0,4.9,177.1,.0,171.0,.0L11.0,.0C4.9,.0,.0,4.9,.0,11.0L.0,84.8C.0,90.8,4.9,95.8,11.0,95.8L171.0,95.8C177.1,95.8,182.0,90.8,182.0,84.8z" fill="#b2e8df"/><g id="shape26" transform="translate(15.859500,36.127800)"><path fill-rule="nonzero" d="M150.3,13.0L150.3,11.0C150.3,4.9,145.4,.0,139.3,.0L11.0,.0C4.9,.0,.0,4.9,.0,11.0L.0,13.0C.0,19.1,4.9,24.0,11.0,24.0L139.3,24.0C145.4,24.0,150.3,19.1,150.3,13.0z" fill="#d0f0ea"/><text xml:space="preserve" style="fill:#191919;font-family:微软雅黑;font-size:10.00pt;font-weight:bold"><tspan y="15.5" x="33.1">Base Classes</tspan></text></g><g id="shape27" transform="translate(15.859500,64.864400)"><path fill-rule="nonzero" d="M150.3,13.0L150.3,11.0C150.3,4.9,145.4,.0,139.3,.0L11.0,.0C4.9,.0,.0,4.9,.0,11.0L.0,13.0C.0,19.1,4.9,24.0,11.0,24.0L139.3,24.0C145.4,24.0,150.3,19.1,150.3,13.0z" fill="#d0f0ea"/><text xml:space="preserve" style="fill:#191919;font-family:微软雅黑;font-size:10.00pt;font-weight:bold"><tspan y="15.5" x="51.1">Logger</tspan></text></g><g id="shape28" transform="translate(15.859500,93.601500)"><path fill-rule="nonzero" d="M150.3,13.0L150.3,11.0C150.3,4.9,145.4,.0,139.3,.0L11.0,.0C4.9,.0,.0,4.9,.0,11.0L.0,13.0C.0,19.1,4.9,24.0,11.0,24.0L139.3,24.0C145.4,24.0,150.3,19.1,150.3,13.0z" fill="#d0f0ea"/><text xml:space="preserve" style="fill:#191919;font-family:微软雅黑;font-size:10.00pt;font-weight:bold"><tspan y="15.0" x="69.1">...</tspan></text></g><g id="shape29"><text xml:space="preserve" style="fill:#191919;font-family:微软雅黑;font-size:12.00pt;font-weight:bold"><tspan y="18.5" x="2.4">Common</tspan></text></g></g><g id="group30" transform="translate(362.141000,177.248000)"><path id="shape31" transform="translate(0.000000,29.000000)" fill-rule="nonzero" d="M182.0,84.8L182.0,11.0C182.0,4.9,177.1,.0,171.0,.0L11.0,.0C4.9,.0,.0,4.9,.0,11.0L.0,84.8C.0,90.8,4.9,95.8,11.0,95.8L171.0,95.8C177.1,95.8,182.0,90.8,182.0,84.8z" fill="#b2e8df"/><g id="shape32" transform="translate(15.859500,36.127800)"><path fill-rule="nonzero" d="M150.3,13.0L150.3,11.0C150.3,4.9,145.4,.0,139.3,.0L11.0,.0C4.9,.0,.0,4.9,.0,11.0L.0,13.0C.0,19.1,4.9,24.0,11.0,24.0L139.3,24.0C145.4,24.0,150.3,19.1,150.3,13.0z" fill="#d0f0ea"/><text xml:space="preserve" style="fill:#191919;font-family:微软雅黑;font-size:10.00pt;font-weight:bold"><tspan y="15.5" x="54.6">Policy</tspan></text></g><g id="shape33" transform="translate(15.859500,64.864400)"><path fill-rule="nonzero" d="M150.3,13.0L150.3,11.0C150.3,4.9,145.4,.0,139.3,.0L11.0,.0C4.9,.0,.0,4.9,.0,11.0L.0,13.0C.0,19.1,4.9,24.0,11.0,24.0L139.3,24.0C145.4,24.0,150.3,19.1,150.3,13.0z" fill="#d0f0ea"/><text xml:space="preserve" style="fill:#191919;font-family:微软雅黑;font-size:10.00pt;font-weight:bold"><tspan y="15.5" x="47.6">Encoder</tspan></text></g><g id="shape34" transform="translate(15.859500,93.601500)"><path fill-rule="nonzero" d="M150.3,13.0L150.3,11.0C150.3,4.9,145.4,.0,139.3,.0L11.0,.0C4.9,.0,.0,4.9,.0,11.0L.0,13.0C.0,19.1,4.9,24.0,11.0,24.0L139.3,24.0C145.4,24.0,150.3,19.1,150.3,13.0z" fill="#d0f0ea"/><text xml:space="preserve" style="fill:#191919;font-family:微软雅黑;font-size:10.00pt;font-weight:bold"><tspan y="15.5" x="48.6">Storage</tspan></text></g><g id="shape35"><text xml:space="preserve" style="fill:#191919;font-family:微软雅黑;font-size:12.00pt;font-weight:bold"><tspan y="18.5" x="2.4">Xploit</tspan></text></g></g><g id="group36" transform="translate(559.000000,177.248000)"><path id="shape37" transform="translate(0.000000,29.000000)" fill-rule="nonzero" d="M182.0,84.8L182.0,11.0C182.0,4.9,177.1,.0,171.0,.0L11.0,.0C4.9,.0,.0,4.9,.0,11.0L.0,84.8C.0,90.8,4.9,95.8,11.0,95.8L171.0,95.8C177.1,95.8,182.0,90.8,182.0,84.8z" fill="#b2e8df"/><g id="shape38" transform="translate(15.859500,36.127800)"><path fill-rule="nonzero" d="M150.3,13.0L150.3,11.0C150.3,4.9,145.4,.0,139.3,.0L11.0,.0C4.9,.0,.0,4.9,.0,11.0L.0,13.0C.0,19.1,4.9,24.0,11.0,24.0L139.3,24.0C145.4,24.0,150.3,19.1,150.3,13.0z" fill="#d0f0ea"/><text xml:space="preserve" style="fill:#191919;font-family:微软雅黑;font-size:10.00pt;font-weight:bold"><tspan y="15.5" x="34.4">Distribution</tspan></text></g><g id="shape39" transform="translate(15.859500,64.864400)"><path fill-rule="nonzero" d="M150.3,13.0L150.3,11.0C150.3,4.9,145.4,.0,139.3,.0L11.0,.0C4.9,.0,.0,4.9,.0,11.0L.0,13.0C.0,19.1,4.9,24.0,11.0,24.0L139.3,24.0C145.4,24.0,150.3,19.1,150.3,13.0z" fill="#d0f0ea"/><text xml:space="preserve" style="fill:#191919;font-family:微软雅黑;font-size:10.00pt;font-weight:bold"><tspan y="15.5" x="25.4">Augmentation</tspan></text></g><g id="shape40" transform="translate(15.859500,93.601500)"><path fill-rule="nonzero" d="M150.3,13.0L150.3,11.0C150.3,4.9,145.4,.0,139.3,.0L11.0,.0C4.9,.0,.0,4.9,.0,11.0L.0,13.0C.0,19.1,4.9,24.0,11.0,24.0L139.3,24.0C145.4,24.0,150.3,19.1,150.3,13.0z" fill="#d0f0ea"/><text xml:space="preserve" style="fill:#191919;font-family:微软雅黑;font-size:10.00pt;font-weight:bold"><tspan y="15.5" x="49.4">Reward</tspan></text></g><g id="shape41"><text xml:space="preserve" style="fill:#191919;font-family:微软雅黑;font-size:12.00pt;font-weight:bold"><tspan y="18.5" x="2.4">Xplore</tspan></text></g></g><path id="shape42" transform="translate(38.654500,313.563550)" fill-rule="nonzero" d="M710.9,64.8L710.9,11.0C710.9,4.9,706.0,.0,699.9,.0L11.0,.0C4.9,.0,.0,4.9,.0,11.0L.0,64.8C.0,70.9,4.9,75.8,11.0,75.8L699.9,75.8C706.0,75.8,710.9,70.9,710.9,64.8z" fill="#cce6ff"/><g id="shape43" transform="translate(38.654900,313.563550)"><path fill-rule="nonzero" d="M115.9,64.8L115.9,11.0C115.9,4.9,111.0,.0,104.9,.0L11.0,.0C4.9,.0,.0,4.9,.0,11.0L.0,64.8C.0,70.9,4.9,75.8,11.0,75.8L104.9,75.8C111.0,75.8,115.9,70.9,115.9,64.8z" fill="#017fff"/><text xml:space="preserve" style="fill:#ffffff;font-family:微软雅黑;font-size:22.00pt;font-weight:bold"><tspan y="47.4" x="23.2">App.</tspan></text></g><g id="group44" transform="translate(176.442074,335.175900)"><g id="shape45" transform="translate(0.000000,-0.000000)"><path fill-rule="nonzero" d="M118.2,21.6L118.2,11.0C118.2,4.9,113.3,.0,107.2,.0L11.0,.0C4.9,.0,.0,4.9,.0,11.0L.0,21.6C.0,27.7,4.9,32.6,11.0,32.6L107.2,32.6C113.3,32.6,118.2,27.7,118.2,21.6z" fill="#b2e8df"/><text xml:space="preserve" style="fill:#191919;font-family:微软雅黑;font-size:12.00pt;font-weight:bold"><tspan y="20.3" x="5.1">Deployement</tspan></text></g><g id="shape46" transform="translate(145.067560,-0.000000)"><path fill-rule="nonzero" d="M118.2,21.6L118.2,11.0C118.2,4.9,113.3,.0,107.2,.0L11.0,.0C4.9,.0,.0,4.9,.0,11.0L.0,21.6C.0,27.7,4.9,32.6,11.0,32.6L107.2,32.6C113.3,32.6,118.2,27.7,118.2,21.6z" fill="#b2e8df"/><text xml:space="preserve" style="fill:#191919;font-family:微软雅黑;font-size:12.00pt;font-weight:bold"><tspan y="20.3" x="10.6">Pre-training</tspan></text></g><g id="shape47" transform="translate(290.134806,-0.000000)"><path fill-rule="nonzero" d="M118.2,21.6L118.2,11.0C118.2,4.9,113.3,.0,107.2,.0L11.0,.0C4.9,.0,.0,4.9,.0,11.0L.0,21.6C.0,27.7,4.9,32.6,11.0,32.6L107.2,32.6C113.3,32.6,118.2,27.7,118.2,21.6z" fill="#ff7e37"/><text xml:space="preserve" style="fill:#191919;font-family:微软雅黑;font-size:12.00pt;font-weight:bold"><tspan y="20.3" x="34.6">Agent</tspan></text></g><g id="shape48" transform="translate(435.201952,0.000050)"><path fill-rule="nonzero" d="M118.2,21.6L118.2,11.0C118.2,4.9,113.3,.0,107.2,.0L11.0,.0C4.9,.0,.0,4.9,.0,11.0L.0,21.6C.0,27.7,4.9,32.6,11.0,32.6L107.2,32.6C113.3,32.6,118.2,27.7,118.2,21.6z" fill="#b2e8df"/><text xml:space="preserve" style="fill:#191919;font-family:微软雅黑;font-size:12.00pt;font-weight:bold"><tspan y="20.3" x="30.1">Copilot</tspan></text></g></g><path id="shape49" transform="matrix(0.000000,-1.000000,1.000000,0.000000,444.641050,327.814400)" d="M21.6,12.7L10.2,12.7L10.2,17.0L.0,8.5L10.2,.0L10.2,4.2L21.6,4.2L21.6,12.7z" fill="none" stroke="#101843" stroke-width="2"/><path id="shape50" transform="matrix(0.000000,-1.000000,1.000000,0.000000,641.500050,327.814400)" d="M21.6,12.7L10.2,12.7L10.2,17.0L.0,8.5L10.2,.0L10.2,4.2L21.6,4.2L21.6,12.7z" fill="none" stroke="#101843" stroke-width="2"/><path id="shape51" transform="matrix(0.000000,-1.000000,1.000000,0.000000,249.641050,327.814400)" d="M21.6,12.7L10.2,12.7L10.2,17.0L.0,8.5L10.2,.0L10.2,4.2L21.6,4.2L21.6,12.7z" fill="none" stroke="#101843" stroke-width="2"/></g></svg>