<svg xmlns:ev="http://www.w3.org/2001/xml-events" viewBox="0 0 937 573" xmlns:xlink="http://www.w3.org/1999/xlink" height="573" xmlns="http://www.w3.org/2000/svg" width="937"><defs/><g id="page1" transform="translate(5.5,5.5)"><rect x="0" fill="none" y="0" height="563" width="927"/><path id="shape1" fill="none" stroke-width="4" transform="translate(533.69,287.50)" stroke="#454545" d="M13.1,.0L36.7,.0C38.4,.0,40.7,.0,42.7,.0C43.6,.0,44.6,.0,45.7,.0L76.1,.0" stroke-linecap="round"/><path id="shape2" fill="none" stroke-width="4" transform="translate(533.69,213.92)" stroke="#454545" d="M13.1,73.6L36.7,73.6C38.4,73.6,39.7,72.2,39.7,70.6L39.7,-64.6C39.7,-66.2,39.5,-68.7,40.4,-70.5C41.5,-72.3,43.4,-73.6,45.7,-73.6L76.1,-73.6" stroke-linecap="round"/><path id="shape3" fill="none" stroke-width="4" transform="translate(533.69,361.07)" stroke="#454545" d="M13.1,-73.6L36.7,-73.6C38.4,-73.6,39.7,-72.2,39.7,-70.6L39.7,64.6C39.7,66.2,39.5,68.7,40.4,70.5C41.5,72.3,43.4,73.6,45.7,73.6L76.1,73.6" stroke-linecap="round"/><path id="shape4" fill="none" stroke-width="4" transform="translate(725.30,267.02)" stroke="#454545" d="M-12.5,20.5L-0.3,20.5C1.4,20.5,2.7,19.1,2.7,17.5L2.7,-11.5C2.7,-13.1,2.5,-15.6,3.4,-17.4C4.5,-19.2,6.4,-20.5,8.7,-20.5L12.5,-20.5" stroke-linecap="round"/><path id="shape5" fill="none" stroke-width="4" transform="translate(725.30,287.50)" stroke="#454545" d="M-12.5,.0L-0.3,.0C1.4,.0,3.7,.0,5.7,.0C6.6,.0,7.6,.0,8.7,.0L12.5,.0" stroke-linecap="round"/><path id="shape6" fill="none" stroke-width="4" transform="translate(725.30,307.97)" stroke="#454545" d="M-12.5,-20.5L-0.3,-20.5C1.4,-20.5,2.7,-19.1,2.7,-17.5L2.7,11.5C2.7,13.1,2.5,15.6,3.4,17.4C4.5,19.2,6.4,20.5,8.7,20.5L12.5,20.5" stroke-linecap="round"/><path id="shape7" fill="none" stroke-width="4" transform="translate(381.47,384.77)" stroke="#454545" d="M-13.1,-97.3L-36.7,-97.3C-38.4,-97.3,-39.7,-95.9,-39.7,-94.3L-39.7,88.3C-39.7,89.9,-39.5,92.4,-40.4,94.1C-41.5,96.0,-43.4,97.3,-45.7,97.3L-76.1,97.3" stroke-linecap="round"/><path id="shape8" fill="none" stroke-width="4" transform="translate(381.47,245.59)" stroke="#454545" d="M-13.1,41.9L-36.7,41.9C-38.4,41.9,-39.7,40.6,-39.7,38.9L-39.7,-32.9C-39.7,-34.6,-39.5,-37.0,-40.4,-38.8C-41.5,-40.6,-43.4,-41.9,-45.7,-41.9L-76.1,-41.9" stroke-linecap="round"/><path id="shape9" fill="none" stroke-width="4" transform="translate(381.47,311.19)" stroke="#454545" d="M-13.1,-23.7L-36.7,-23.7C-38.4,-23.7,-39.7,-22.3,-39.7,-20.7L-39.7,14.7C-39.7,16.3,-39.5,18.8,-40.4,20.6C-41.5,22.4,-43.4,23.7,-45.7,23.7L-76.1,23.7" stroke-linecap="round"/><path id="shape10" fill="none" stroke-width="4" transform="translate(730.30,119.87)" stroke="#454545" d="M-12.5,20.5L-0.3,20.5C1.4,20.5,2.7,19.1,2.7,17.5L2.7,-11.5C2.7,-13.1,2.5,-15.6,3.4,-17.4C4.5,-19.2,6.4,-20.5,8.7,-20.5L12.5,-20.5" stroke-linecap="round"/><path id="shape11" fill="none" stroke-width="4" transform="translate(730.30,140.35)" stroke="#454545" d="M-12.5,.0L-0.3,.0C1.4,.0,3.7,.0,5.7,.0C6.6,.0,7.6,.0,8.7,.0L12.5,.0" stroke-linecap="round"/><path id="shape12" fill="none" stroke-width="4" transform="translate(730.30,160.82)" stroke="#454545" d="M-12.5,-20.5L-0.3,-20.5C1.4,-20.5,2.7,-19.1,2.7,-17.5L2.7,11.5C2.7,13.1,2.5,15.6,3.4,17.4C4.5,19.2,6.4,20.5,8.7,20.5L12.5,20.5" stroke-linecap="round"/><path id="shape13" fill="none" stroke-width="4" transform="translate(754.30,414.17)" stroke="#454545" d="M-12.5,20.5L-0.3,20.5C1.4,20.5,2.7,19.1,2.7,17.5L2.7,-11.5C2.7,-13.1,2.5,-15.6,3.4,-17.4C4.5,-19.2,6.4,-20.5,8.7,-20.5L12.5,-20.5" stroke-linecap="round"/><path id="shape14" fill="none" stroke-width="4" transform="translate(754.30,455.12)" stroke="#454545" d="M-12.5,-20.5L-0.3,-20.5C1.4,-20.5,2.7,-19.1,2.7,-17.5L2.7,11.5C2.7,13.1,2.5,15.6,3.4,17.4C4.5,19.2,6.4,20.5,8.7,20.5L12.5,20.5" stroke-linecap="round"/><path id="shape15" fill="none" stroke-width="4" transform="translate(213.86,461.56)" stroke="#454545" d="M12.5,20.5L.3,20.5C-1.4,20.5,-2.7,19.1,-2.7,17.5L-2.7,-11.5C-2.7,-13.1,-2.5,-15.6,-3.4,-17.4C-4.5,-19.2,-6.4,-20.5,-8.7,-20.5L-12.5,-20.5" stroke-linecap="round"/><path id="shape16" fill="none" stroke-width="4" transform="translate(754.30,434.65)" stroke="#454545" d="M-12.5,.0L-0.3,.0C1.4,.0,3.7,.0,5.7,.0C6.6,.0,7.6,.0,8.7,.0L12.5,.0" stroke-linecap="round"/><path id="shape17" fill="none" stroke-width="4" transform="translate(129.86,193.45)" stroke="#454545" d="M12.5,10.2L.3,10.2C-1.4,10.2,-2.7,8.9,-2.7,7.2L-2.7,-1.2C-2.7,-2.9,-2.5,-5.3,-3.4,-7.1C-4.5,-9.0,-6.4,-10.2,-8.7,-10.2L-12.5,-10.2" stroke-linecap="round"/><path id="shape18" fill="none" stroke-width="4" transform="translate(129.86,213.92)" stroke="#454545" d="M12.5,-10.2L.3,-10.2C-1.4,-10.2,-2.7,-8.9,-2.7,-7.2L-2.7,1.2C-2.7,2.9,-2.5,5.3,-3.4,7.1C-4.5,9.0,-6.4,10.2,-8.7,10.2L-12.5,10.2" stroke-linecap="round"/><path id="shape19" fill="none" stroke-width="4" transform="translate(132.86,314.41)" stroke="#454545" d="M12.5,20.5L.3,20.5C-1.4,20.5,-2.7,19.1,-2.7,17.5L-2.7,-11.5C-2.7,-13.1,-2.5,-15.6,-3.4,-17.4C-4.5,-19.2,-6.4,-20.5,-8.7,-20.5L-12.5,-20.5" stroke-linecap="round"/><path id="shape20" fill="none" stroke-width="4" transform="translate(132.86,334.89)" stroke="#454545" d="M12.5,.0L.3,.0C-1.4,.0,-3.7,.0,-5.7,.0C-6.6,.0,-7.6,.0,-8.7,.0L-12.5,.0" stroke-linecap="round"/><path id="shape21" fill="none" stroke-width="4" transform="translate(132.86,355.36)" stroke="#454545" d="M12.5,-20.5L.3,-20.5C-1.4,-20.5,-2.7,-19.1,-2.7,-17.5L-2.7,11.5C-2.7,13.1,-2.5,15.6,-3.4,17.4C-4.5,19.2,-6.4,20.5,-8.7,20.5L-12.5,20.5" stroke-linecap="round"/><path id="shape22" fill="none" stroke-width="4" transform="translate(213.86,482.04)" stroke="#454545" d="M12.5,.0L.3,.0C-1.4,.0,-3.7,.0,-5.7,.0C-6.6,.0,-7.6,.0,-8.7,.0L-12.5,.0" stroke-linecap="round"/><path id="shape23" fill="none" stroke-width="4" transform="translate(213.86,502.51)" stroke="#454545" d="M12.5,-20.5L.3,-20.5C-1.4,-20.5,-2.7,-19.1,-2.7,-17.5L-2.7,11.5C-2.7,13.1,-2.5,15.6,-3.4,17.4C-4.5,19.2,-6.4,20.5,-8.7,20.5L-12.5,20.5" stroke-linecap="round"/><path id="shape24" fill="none" stroke-width="4" transform="translate(381.47,190.23)" stroke="#454545" d="M-13.1,97.3L-36.7,97.3C-38.4,97.3,-39.7,95.9,-39.7,94.3L-39.7,-88.3C-39.7,-89.9,-39.5,-92.4,-40.4,-94.1C-41.5,-96.0,-43.4,-97.3,-45.7,-97.3L-76.1,-97.3" stroke-linecap="round"/><path id="shape25" fill="none" stroke-width="4" transform="translate(147.86,82.72)" stroke="#454545" d="M12.5,10.2C.1,10.2,.5,-10.2,-12.5,-10.2" stroke-linecap="round"/><path id="shape26" fill="none" stroke-width="4" transform="translate(147.86,103.20)" stroke="#454545" d="M12.5,-10.2C.1,-10.2,.5,10.2,-12.5,10.2" stroke-linecap="round"/><g id="shape27" transform="translate(368.361429,252.999857)"><path fill="#0053d6" fill-rule="nonzero" stroke-width="4" stroke="#303030" d="M34.5,.0L143.9,.0C163.0,.0,178.4,15.4,178.4,34.5C178.4,53.6,163.0,69.0,143.9,69.0L34.5,69.0C15.4,69.0,.0,53.6,.0,34.5C.0,15.4,15.4,.0,34.5,.0z"/><text xml:space="preserve" style="fill:#ffffff;font-family:微软雅黑;font-size:18.00pt;font-weight:bold"><tspan x="34.0" y="44.0">Hsuanwu</tspan></text></g><g id="shape28" transform="translate(609.801429,262.499857)"><path fill="#ffffff" fill-rule="nonzero" stroke-width="4" stroke="#454545" d="M4.0,.0L99.0,.0C101.2,.0,103.0,1.8,103.0,4.0L103.0,46.0C103.0,48.2,101.2,50.0,99.0,50.0L4.0,50.0C1.8,50.0,.0,48.2,.0,46.0L.0,4.0C.0,1.8,1.8,.0,4.0,.0z"/><text xml:space="preserve" style="fill:#303030;font-family:微软雅黑;font-size:14.00pt;font-weight:bold"><tspan x="24.3" y="32.0">Xploit</tspan></text></g><g id="shape29" transform="translate(609.801429,115.349857)"><path fill="#ffffff" fill-rule="nonzero" stroke-width="4" stroke="#454545" d="M4.0,.0L104.0,.0C106.2,.0,108.0,1.8,108.0,4.0L108.0,46.0C108.0,48.2,106.2,50.0,104.0,50.0L4.0,50.0C1.8,50.0,.0,48.2,.0,46.0L.0,4.0C.0,1.8,1.8,.0,4.0,.0z"/><text xml:space="preserve" style="fill:#303030;font-family:微软雅黑;font-size:14.00pt;font-weight:bold"><tspan x="24.3" y="32.0">Xplore</tspan></text></g><g id="shape30" transform="translate(609.801429,409.649857)"><path fill="#ffffff" fill-rule="nonzero" stroke-width="4" stroke="#454545" d="M4.0,.0L128.0,.0C130.2,.0,132.0,1.8,132.0,4.0L132.0,46.0C132.0,48.2,130.2,50.0,128.0,50.0L4.0,50.0C1.8,50.0,.0,48.2,.0,46.0L.0,4.0C.0,1.8,1.8,.0,4.0,.0z"/><text xml:space="preserve" style="fill:#303030;font-family:微软雅黑;font-size:14.00pt;font-weight:bold"><tspan x="24.3" y="32.0">Common</tspan></text></g><g id="shape31" transform="translate(737.801429,214.299857)"><path fill="#ffffff" fill-rule="nonzero" d="M.0,.0L85.0,.0L85.0,32.3L.0,32.3L.0,.0z"/><path fill="none" stroke-width="4" stroke="#454545" d="M.0,32.3L85.0,32.3"/><text xml:space="preserve" style="fill:#303030;font-family:微软雅黑;font-size:11.00pt;font-weight:bold"><tspan x="12.9" y="20.9">Encoder</tspan></text></g><g id="shape32" transform="translate(737.801429,255.249857)"><path fill="#ffffff" fill-rule="nonzero" d="M.0,.0L80.0,.0L80.0,32.3L.0,32.3L.0,.0z"/><path fill="none" stroke-width="4" stroke="#454545" d="M.0,32.3L80.0,32.3"/><text xml:space="preserve" style="fill:#303030;font-family:微软雅黑;font-size:11.00pt;font-weight:bold"><tspan x="12.9" y="20.9">Learner</tspan></text></g><g id="shape33" transform="translate(737.801429,296.199857)"><path fill="#ffffff" fill-rule="nonzero" d="M.0,.0L82.0,.0L82.0,32.3L.0,32.3L.0,.0z"/><path fill="none" stroke-width="4" stroke="#454545" d="M.0,32.3L82.0,32.3"/><text xml:space="preserve" style="fill:#303030;font-family:微软雅黑;font-size:11.00pt;font-weight:bold"><tspan x="12.9" y="20.9">Storage</tspan></text></g><g id="shape34" transform="translate(226.361429,457.037357)"><path fill="#ffffff" fill-rule="nonzero" stroke-width="4" stroke="#454545" d="M4.0,.0L75.0,.0C77.2,.0,79.0,1.8,79.0,4.0L79.0,46.0C79.0,48.2,77.2,50.0,75.0,50.0L4.0,50.0C1.8,50.0,.0,48.2,.0,46.0L.0,4.0C.0,1.8,1.8,.0,4.0,.0z"/><text xml:space="preserve" style="fill:#303030;font-family:微软雅黑;font-size:14.00pt;font-weight:bold"><tspan x="24.3" y="32.0">Env</tspan></text></g><g id="shape35" transform="translate(142.361429,178.687357)"><path fill="#ffffff" fill-rule="nonzero" stroke-width="4" stroke="#454545" d="M4.0,.0L159.0,.0C161.2,.0,163.0,1.8,163.0,4.0L163.0,46.0C163.0,48.2,161.2,50.0,159.0,50.0L4.0,50.0C1.8,50.0,.0,48.2,.0,46.0L.0,4.0C.0,1.8,1.8,.0,4.0,.0z"/><text xml:space="preserve" style="fill:#303030;font-family:微软雅黑;font-size:14.00pt;font-weight:bold"><tspan x="24.3" y="32.0">Deployment</tspan></text></g><g id="shape36" transform="translate(145.361429,309.887357)"><path fill="#ffffff" fill-rule="nonzero" stroke-width="4" stroke="#454545" d="M4.0,.0L156.0,.0C158.2,.0,160.0,1.8,160.0,4.0L160.0,46.0C160.0,48.2,158.2,50.0,156.0,50.0L4.0,50.0C1.8,50.0,.0,48.2,.0,46.0L.0,4.0C.0,1.8,1.8,.0,4.0,.0z"/><text xml:space="preserve" style="fill:#303030;font-family:微软雅黑;font-size:14.00pt;font-weight:bold"><tspan x="24.3" y="32.0">Pre-training</tspan></text></g><g id="shape37" transform="translate(742.801429,67.149857)"><path fill="#ffffff" fill-rule="nonzero" d="M.0,.0L144.0,.0L144.0,32.3L.0,32.3L.0,.0z"/><path fill="none" stroke-width="4" stroke="#454545" d="M.0,32.3L144.0,32.3"/><text xml:space="preserve" style="fill:#303030;font-family:微软雅黑;font-size:11.00pt;font-weight:bold"><tspan x="12.9" y="20.9">Intrinsic Reward</tspan></text></g><g id="shape38" transform="translate(742.801429,108.099857)"><path fill="#ffffff" fill-rule="nonzero" d="M.0,.0L133.0,.0L133.0,32.3L.0,32.3L.0,.0z"/><path fill="none" stroke-width="4" stroke="#454545" d="M.0,32.3L133.0,32.3"/><text xml:space="preserve" style="fill:#303030;font-family:微软雅黑;font-size:11.00pt;font-weight:bold"><tspan x="12.9" y="20.9">Augmentation</tspan></text></g><g id="shape39" transform="translate(742.801429,149.049857)"><path fill="#ffffff" fill-rule="nonzero" d="M.0,.0L112.0,.0L112.0,32.3L.0,32.3L.0,.0z"/><path fill="none" stroke-width="4" stroke="#454545" d="M.0,32.3L112.0,32.3"/><text xml:space="preserve" style="fill:#303030;font-family:微软雅黑;font-size:11.00pt;font-weight:bold"><tspan x="12.9" y="20.9">Distribution</tspan></text></g><g id="shape40" transform="translate(766.801429,361.449857)"><path fill="#ffffff" fill-rule="nonzero" d="M.0,.0L75.0,.0L75.0,32.3L.0,32.3L.0,.0z"/><path fill="none" stroke-width="4" stroke="#454545" d="M.0,32.3L75.0,32.3"/><text xml:space="preserve" style="fill:#303030;font-family:微软雅黑;font-size:11.00pt;font-weight:bold"><tspan x="12.9" y="20.9">Engine</tspan></text></g><g id="shape41" transform="translate(766.801429,443.349857)"><path fill="#ffffff" fill-rule="nonzero" d="M.0,.0L65.0,.0L65.0,32.3L.0,32.3L.0,.0z"/><path fill="none" stroke-width="4" stroke="#454545" d="M.0,32.3L65.0,32.3"/><text xml:space="preserve" style="fill:#303030;font-family:微软雅黑;font-size:11.00pt;font-weight:bold"><tspan x="12.9" y="20.9">······</tspan></text></g><g id="shape42" transform="translate(87.361429,408.837357)"><path fill="#ffffff" fill-rule="nonzero" d="M.0,.0L114.0,.0L114.0,32.3L.0,32.3L.0,.0z"/><path fill="none" stroke-width="4" stroke="#454545" d="M.0,32.3L114.0,32.3"/><text xml:space="preserve" style="fill:#303030;font-family:微软雅黑;font-size:11.00pt;font-weight:bold"><tspan x="12.9" y="20.9">Atari Games</tspan></text></g><g id="shape43" transform="translate(766.801429,402.399857)"><path fill="#ffffff" fill-rule="nonzero" d="M.0,.0L76.0,.0L76.0,32.3L.0,32.3L.0,.0z"/><path fill="none" stroke-width="4" stroke="#454545" d="M.0,32.3L76.0,32.3"/><text xml:space="preserve" style="fill:#303030;font-family:微软雅黑;font-size:11.00pt;font-weight:bold"><tspan x="12.9" y="20.9">Logger</tspan></text></g><g id="shape44" transform="translate(39.361429,150.962357)"><path fill="#ffffff" fill-rule="nonzero" d="M.0,.0L78.0,.0L78.0,32.3L.0,32.3L.0,.0z"/><path fill="none" stroke-width="4" stroke="#454545" d="M.0,32.3L78.0,32.3"/><text xml:space="preserve" style="fill:#303030;font-family:微软雅黑;font-size:11.00pt;font-weight:bold"><tspan x="12.9" y="20.9">Python</tspan></text></g><g id="shape45" transform="translate(62.361429,191.912357)"><path fill="#ffffff" fill-rule="nonzero" d="M.0,.0L55.0,.0L55.0,32.3L.0,32.3L.0,.0z"/><path fill="none" stroke-width="4" stroke="#454545" d="M.0,32.3L55.0,32.3"/><text xml:space="preserve" style="fill:#303030;font-family:微软雅黑;font-size:11.00pt;font-weight:bold"><tspan x="12.9" y="20.9">C++</tspan></text></g><g id="shape46" transform="translate(67.361429,261.687357)"><path fill="#ffffff" fill-rule="nonzero" d="M.0,.0L53.0,.0L53.0,32.3L.0,32.3L.0,.0z"/><path fill="none" stroke-width="4" stroke="#454545" d="M.0,32.3L53.0,32.3"/><text xml:space="preserve" style="fill:#303030;font-family:微软雅黑;font-size:11.00pt;font-weight:bold"><tspan x="12.9" y="20.9">ATC</tspan></text></g><g id="shape47" transform="translate(67.361429,302.637357)"><path fill="#ffffff" fill-rule="nonzero" d="M.0,.0L53.0,.0L53.0,32.3L.0,32.3L.0,.0z"/><path fill="none" stroke-width="4" stroke="#454545" d="M.0,32.3L53.0,32.3"/><text xml:space="preserve" style="fill:#303030;font-family:微软雅黑;font-size:11.00pt;font-weight:bold"><tspan x="12.9" y="20.9">APS</tspan></text></g><g id="shape48" transform="translate(55.361429,343.587357)"><path fill="#ffffff" fill-rule="nonzero" d="M.0,.0L65.0,.0L65.0,32.3L.0,32.3L.0,.0z"/><path fill="none" stroke-width="4" stroke="#454545" d="M.0,32.3L65.0,32.3"/><text xml:space="preserve" style="fill:#303030;font-family:微软雅黑;font-size:11.00pt;font-weight:bold"><tspan x="12.9" y="20.9">······</tspan></text></g><g id="shape49" transform="translate(60.361429,449.787357)"><path fill="#ffffff" fill-rule="nonzero" d="M.0,.0L141.0,.0L141.0,32.3L.0,32.3L.0,.0z"/><path fill="none" stroke-width="4" stroke="#454545" d="M.0,32.3L141.0,32.3"/><text xml:space="preserve" style="fill:#303030;font-family:微软雅黑;font-size:11.00pt;font-weight:bold"><tspan x="12.9" y="20.9">Procgen Games</tspan></text></g><g id="shape50" transform="translate(136.361429,490.737357)"><path fill="#ffffff" fill-rule="nonzero" d="M.0,.0L65.0,.0L65.0,32.3L.0,32.3L.0,.0z"/><path fill="none" stroke-width="4" stroke="#454545" d="M.0,32.3L65.0,32.3"/><text xml:space="preserve" style="fill:#303030;font-family:微软雅黑;font-size:11.00pt;font-weight:bold"><tspan x="12.9" y="20.9">······</tspan></text></g><g id="shape51" transform="translate(160.361429,67.962357)"><path fill="#ffffff" fill-rule="nonzero" stroke-width="4" stroke="#454545" d="M4.0,.0L141.0,.0C143.2,.0,145.0,1.8,145.0,4.0L145.0,46.0C145.0,48.2,143.2,50.0,141.0,50.0L4.0,50.0C1.8,50.0,.0,48.2,.0,46.0L.0,4.0C.0,1.8,1.8,.0,4.0,.0z"/><text xml:space="preserve" style="fill:#303030;font-family:微软雅黑;font-size:14.00pt;font-weight:bold"><tspan x="24.3" y="32.0">Evaluation</tspan></text></g><g id="shape52" transform="translate(49.361429,40.237357)"><path fill="#ffffff" fill-rule="nonzero" d="M.0,.0L86.0,.0L86.0,32.3L.0,32.3L.0,.0z"/><path fill="none" stroke-width="4" stroke="#454545" d="M.0,32.3L86.0,32.3"/><text xml:space="preserve" style="fill:#303030;font-family:微软雅黑;font-size:11.00pt;font-weight:bold"><tspan x="12.9" y="20.9">IQM, OG</tspan></text></g><g id="shape53" transform="translate(70.361429,81.187357)"><path fill="#ffffff" fill-rule="nonzero" d="M.0,.0L65.0,.0L65.0,32.3L.0,32.3L.0,.0z"/><path fill="none" stroke-width="4" stroke="#454545" d="M.0,32.3L65.0,32.3"/><text xml:space="preserve" style="fill:#303030;font-family:微软雅黑;font-size:11.00pt;font-weight:bold"><tspan x="11.9" y="20.9">······</tspan></text></g></g></svg>