<svg xmlns="http://www.w3.org/2000/svg" version="1.1" xmlns:xlink="http://www.w3.org/1999/xlink" xmlns:svgjs="http://svgjs.dev/svgjs" width="2000" height="323" viewBox="0 0 2000 323"><g transform="matrix(1,0,0,1,-1.2121212121212466,-1.2413739236609729)"><svg viewBox="0 0 396 64" data-background-color="#ffffff" preserveAspectRatio="xMidYMid meet" height="323" width="2000" xmlns="http://www.w3.org/2000/svg" xmlns:xlink="http://www.w3.org/1999/xlink"><g id="tight-bounds" transform="matrix(1,0,0,1,0.2400000000000091,0.24596882697926503)"><svg viewBox="0 0 395.52 63.508062346041456" height="63.508062346041456" width="395.52"><g><svg viewBox="0 0 535.7015246755439 86.01680276083107" height="63.508062346041456" width="395.52"><g transform="matrix(1,0,0,1,140.1815246755438,0.6099548284970737)"><svg viewBox="0 0 395.52 84.79689310383692" height="84.79689310383692" width="395.52"><g id="textblocktransform"><svg viewBox="0 0 395.52 84.79689310383692" height="84.79689310383692" width="395.52" id="textblock"><g><svg viewBox="0 0 395.52 84.79689310383692" height="84.79689310383692" width="395.52"><g transform="matrix(1,0,0,1,0,0)"><svg width="395.52" viewBox="1.19 -37.51 182.94 40.01" height="84.79689310383692" data-palette-color="#0053d6"><path d="M38.67-27.29L38.67-23.24Q38.67-21.07 38.13-19.36 37.6-17.65 36.68-16.35 35.77-15.04 34.57-14.11 33.37-13.18 32.07-12.59 30.76-11.99 29.43-11.72 28.1-11.45 26.93-11.45L26.93-11.45 40.19 0 30.37 0 17.14-11.45 12.57-11.45 12.57-17.8 26.93-17.8Q28.13-17.9 29.11-18.3 30.1-18.7 30.82-19.38 31.54-20.07 31.93-21.03 32.32-22 32.32-23.24L32.32-23.24 32.32-27.25Q32.32-27.78 32.19-28.06 32.06-28.34 31.85-28.48 31.64-28.61 31.41-28.64 31.18-28.66 30.98-28.66L30.98-28.66 10.03-28.66 10.03 0 3.69 0 3.69-31.81Q3.69-32.47 3.93-33.06 4.17-33.64 4.6-34.08 5.03-34.52 5.62-34.77 6.2-35.01 6.88-35.01L6.88-35.01 30.98-35.01Q33.11-35.01 34.57-34.24 36.04-33.47 36.95-32.31 37.87-31.15 38.27-29.81 38.67-28.47 38.67-27.29L38.67-27.29ZM77.19-6.35L77.19 0 48.24 0Q47.56 0 46.97-0.24 46.38-0.49 45.96-0.92 45.53-1.34 45.29-1.93 45.04-2.51 45.04-3.2L45.04-3.2 45.04-35.01 51.39-35.01 51.39-6.35 77.19-6.35ZM114.01-6.35L114.01 0 85.05 0Q84.37 0 83.78-0.24 83.2-0.49 82.77-0.92 82.34-1.34 82.1-1.93 81.86-2.51 81.86-3.2L81.86-3.2 81.86-35.01 88.2-35.01 88.2-6.35 114.01-6.35ZM145.33-35.01L145.33-28.66 131.34-28.66 131.34 0 124.99 0 124.99-28.66 110.98-28.66 110.98-35.01 145.33-35.01ZM178.77-20.7L178.77-14.31 158.73-14.31 158.73-20.7 178.77-20.7ZM181.63-6.35L181.63 0 158.73 0Q157.41 0 155.85-0.46 154.29-0.93 152.96-1.99 151.63-3.05 150.73-4.75 149.84-6.45 149.84-8.91L149.84-8.91 149.84-31.81Q149.84-32.47 150.09-33.06 150.33-33.64 150.76-34.08 151.19-34.52 151.77-34.77 152.36-35.01 153.04-35.01L153.04-35.01 181.63-35.01 181.63-28.66 156.19-28.66 156.19-8.91Q156.19-7.67 156.85-7.01 157.51-6.35 158.78-6.35L158.78-6.35 181.63-6.35Z" opacity="1" transform="matrix(1,0,0,1,0,0)" fill="#0053d6" class="wordmark-text-0" data-fill-palette-color="primary" id="text-0"></path></svg></g></svg></g></svg></g></svg></g><g><svg viewBox="0 0 122.21567999999999 86.01680276083107" height="86.01680276083107" width="122.21567999999999"><g><svg xmlns="http://www.w3.org/2000/svg" xmlns:xlink="http://www.w3.org/1999/xlink" version="1.1" x="0" y="0" viewBox="8.114489311362373 19.779 78.77251068863762 55.441" enable-background="new 0 0 95 95" xml:space="preserve" height="86.01680276083107" width="122.21567999999999" class="icon-icon-0" data-fill-palette-color="accent" id="icon-0"><g fill="#282f37" data-fill-palette-color="accent"><path fill="#282f37" d="M28.662 51.769H14.97l-6.809-12.49 6.809-12.491h13.691l6.808 12.491L28.662 51.769zM15.861 50.269h11.91l5.989-10.99-5.989-10.991h-11.91L9.87 39.278 15.861 50.269zM80.078 55.167h-13.69l-6.81-12.49 6.81-12.491h13.69l6.809 12.491L80.078 55.167zM67.278 53.667h11.909l5.99-10.99-5.99-10.991H67.278l-5.991 10.991L67.278 53.667zM17.771 54.858v-1.5h-3.764l-1.73-3.175-1.317 0.718 1.757 3.223-1.558 2.538c-0.188-0.045-0.377-0.068-0.57-0.068-0.935 0-1.778 0.517-2.203 1.349-0.622 1.213-0.139 2.708 1.078 3.332 0.347 0.176 0.735 0.27 1.123 0.27 0.936 0 1.782-0.518 2.208-1.35 0.301-0.588 0.354-1.26 0.151-1.889-0.105-0.326-0.277-0.62-0.497-0.87l1.583-2.577H17.771zM11.458 59.513c-0.237 0.465-0.843 0.663-1.312 0.426-0.479-0.246-0.669-0.834-0.424-1.314 0.167-0.326 0.5-0.53 0.869-0.53 0.154 0 0.304 0.036 0.444 0.108 0.231 0.117 0.403 0.318 0.483 0.566S11.577 59.28 11.458 59.513zM21.897 24.73c-0.387 0-0.775-0.094-1.123-0.271-0.59-0.302-1.025-0.814-1.229-1.443s-0.15-1.3 0.152-1.889c0.424-0.831 1.268-1.348 2.203-1.348 0.389 0 0.778 0.094 1.126 0.272 0.588 0.299 1.024 0.812 1.229 1.44 0.203 0.629 0.149 1.299-0.151 1.888C23.678 24.214 22.833 24.73 21.897 24.73zM21.901 21.28c-0.369 0-0.701 0.203-0.868 0.53-0.119 0.233-0.141 0.497-0.061 0.745 0.081 0.248 0.253 0.449 0.484 0.568 0.469 0.238 1.075 0.04 1.312-0.426 0.118-0.231 0.14-0.495 0.06-0.743-0.08-0.247-0.252-0.449-0.484-0.566C22.204 21.316 22.055 21.28 21.901 21.28zM57.833 68.761H44.141l-6.809-12.49 6.809-12.49h13.691l6.809 12.49L57.833 68.761zM60.245 38.205l-1.281-0.78-1.829 3.002H53.29v1.5h4.687L60.245 38.205zM39.667 45.812l-1.307 2.282-4.609-2.723-0.764 1.291 4.628 2.734-1.292 2.257 1.303 0.745 3.344-5.842L39.667 45.812zM47.049 70.351h-3.764l-1.731-3.174-1.316 0.717 1.76 3.229-1.973 3.331 1.291 0.766 1.995-3.369h3.738V70.351zM71.664 66.147c-0.219-0.623-0.668-1.125-1.263-1.41-0.945-0.455-2.104-0.199-2.83 0.516l-3.35-1.825 1.348-2.474-1.316-0.717-3.55 6.513 1.316 0.718 1.483-2.723 3.391 1.848c-0.159 1.047 0.358 2.121 1.361 2.605 0.338 0.162 0.697 0.244 1.069 0.244 0.947 0 1.824-0.551 2.233-1.401C71.844 67.444 71.882 66.772 71.664 66.147zM70.206 67.391c-0.224 0.466-0.835 0.679-1.301 0.456-0.484-0.234-0.688-0.818-0.455-1.303 0.164-0.34 0.5-0.552 0.878-0.552 0.146 0 0.289 0.032 0.424 0.098 0.234 0.112 0.41 0.31 0.496 0.554C70.334 66.89 70.319 67.154 70.206 67.391z" data-fill-palette-color="accent"></path></g></svg></g></svg></g></svg></g><defs></defs></svg><rect width="395.52" height="63.508062346041456" fill="none" stroke="none" visibility="hidden"></rect></g></svg></g></svg>