<svg xmlns:xlink="http://www.w3.org/1999/xlink" xmlns:ev="http://www.w3.org/2001/xml-events" height="579" viewBox="0 0 1067 579" xmlns="http://www.w3.org/2000/svg" width="1067"><defs/><g id="page1" transform="translate(5.5,5.5)"><rect height="569" y="0" fill="#ffffff" x="0" width="1057"/><g id="shape1" transform="translate(107.844000,49.217000)"><path stroke-width="2.666670083999634" stroke="#323232" d="M87.2,33.9L107.2,65.9" fill="none"/><text style="fill:#191919;font-family:HarmonyOS Sans;font-size:10.00pt;font-weight:bold" xml:space="preserve"><tspan y="7.9" x="1.2">Proximal Policy Optimization</tspan><tspan y="25.9" x="70.2">(PPO)</tspan></text></g><g id="shape2" transform="translate(239.440000,157.803000)"><path stroke-width="2.666670083999634" stroke="#323232" d="M78.3,6.9L102.3,-30.1" fill="none"/><text style="fill:#191919;font-family:HarmonyOS Sans;font-size:10.00pt;font-weight:bold" xml:space="preserve"><tspan y="24.9" x="-11.7">Data-Regularized Actor Critic</tspan><tspan y="42.9" x="58.3">(DrAC)</tspan></text></g><g id="shape3" transform="translate(361.156000,49.217600)"><path stroke-width="2.666670083999634" stroke="#323232" d="M87.2,33.9L107.2,65.9" fill="none"/><text style="fill:#191919;font-family:HarmonyOS Sans;font-size:10.00pt;font-weight:bold" xml:space="preserve"><tspan y="7.9" x="20.7">Phasic Policy Gradient</tspan><tspan y="25.9" x="70.7">(PPG)</tspan></text></g><g id="shape4" transform="translate(492.813000,157.803000)"><path stroke-width="2.666670083999634" stroke="#323232" d="M78.2,6.9L102.2,-30.1" fill="none"/><text style="fill:#191919;font-family:HarmonyOS Sans;font-size:10.00pt;font-weight:bold" xml:space="preserve"><tspan y="24.9" x="-26.8">Decoupled Advantage Actor-Critic</tspan><tspan y="42.9" x="56.7">(DAAC)</tspan></text></g><g id="shape5" transform="translate(108.852000,214.704000)"><path stroke-width="2.666670083999634" stroke="#323232" d="M86.6,38.2L106.6,70.2" fill="none"/><text style="fill:#191919;font-family:HarmonyOS Sans;font-size:10.00pt;font-weight:bold" xml:space="preserve"><tspan y="12.2" x="-18.9">Deep Deterministic Policy Gradient</tspan><tspan y="30.2" x="64.1">(DDPG)</tspan></text></g><g id="shape6" transform="translate(240.509000,323.290000)"><path stroke-width="2.666670083999634" stroke="#323232" d="M77.6,11.2L101.6,-25.8" fill="none"/><text style="fill:#191919;font-family:HarmonyOS Sans;font-size:10.00pt;font-weight:bold" xml:space="preserve"><tspan y="29.2" x="26.1">Soft Actor Critic</tspan><tspan y="47.2" x="61.1">(SAC)</tspan></text></g><g id="shape7" transform="translate(362.165000,214.704000)"><path stroke-width="2.666670083999634" stroke="#323232" d="M86.6,38.2L106.6,70.2" fill="none"/><text style="fill:#191919;font-family:HarmonyOS Sans;font-size:10.00pt;font-weight:bold" xml:space="preserve"><tspan y="12.2" x="24.6">Data-Regularized Q</tspan><tspan y="30.2" x="69.6">(DrQ)</tspan></text></g><g id="shape8" transform="translate(493.821000,323.290000)"><path stroke-width="2.666670083999634" stroke="#323232" d="M77.6,11.2L101.6,-25.8" fill="none"/><text style="fill:#191919;font-family:HarmonyOS Sans;font-size:10.00pt;font-weight:bold" xml:space="preserve"><tspan y="29.2" x="6.6">Data-Regularized Q v2</tspan><tspan y="47.2" x="50.1">(DrQ-v2)</tspan></text></g><g id="group9" transform="translate(45.206000,103.846000)"><path fill-rule="nonzero" stroke-width="1" id="shape10" transform="matrix(-1.000000,0.000000,0.000000,-1.000000,972.000000,34.015700)" stroke="#b4bff3" fill="#000000" d="M.0,17.0L17.0,.0L17.0,11.2L844.4,11.2L844.4,22.8L17.0,22.8L17.0,34.0L.0,17.0z"/><g id="shape11"><path fill-rule="nonzero" fill="#ffc000" d="M.0,.0L120.0,.0L120.0,35.0L.0,35.0L.0,.0z"/><text style="fill:#ffffff;font-family:微软雅黑;font-size:10.00pt;font-weight:bold" xml:space="preserve"><tspan y="23.0" x="17.5">On-Policy RL</tspan></text></g></g><g id="shape12" transform="translate(109.245000,395.762000)"><path stroke-width="2.666670083999634" stroke="#323232" d="M86.2,27.0L106.2,59.0" fill="none"/><text style="fill:#191919;font-family:HarmonyOS Sans;font-size:10.00pt;font-weight:bold" xml:space="preserve"><tspan style="fill:#000000" y="1.0" x="-66.3">Importance Weighted Actor-Learner Architecture</tspan><tspan y="19.0" x="58.2">(IMPALA)</tspan></text></g><g id="shape13" transform="translate(240.901000,504.349000)"><path stroke-width="2.666670083999634" stroke="#323232" d="M77.2,.0L101.2,-37.0" fill="none"/><text style="fill:#191919;font-family:HarmonyOS Sans;font-size:10.00pt;font-weight:bold" xml:space="preserve"><tspan y="18.0" x="67.2">......</tspan></text></g><g id="group14" transform="translate(44.814000,273.691000)"><path fill-rule="nonzero" stroke-width="1" id="shape15" transform="matrix(-1.000000,0.000000,0.000000,-1.000000,972.785000,34.015700)" stroke="#b4bff3" fill="#000000" d="M.0,17.0L17.0,.0L17.0,11.2L844.4,11.2L844.4,22.8L17.0,22.8L17.0,34.0L.0,17.0z"/><g id="shape16"><path fill-rule="nonzero" fill="#00b050" d="M.0,.0L120.0,.0L120.0,35.0L.0,35.0L.0,.0z"/><text style="fill:#ffffff;font-family:微软雅黑;font-size:10.00pt;font-weight:bold" xml:space="preserve"><tspan y="23.0" x="16.5">Off-Policy RL</tspan></text></g></g><g id="group17" transform="translate(44.812000,443.537600)"><path fill-rule="nonzero" stroke-width="1" id="shape18" transform="matrix(-1.000000,0.000000,0.000000,-1.000000,972.787000,34.015700)" stroke="#b4bff3" fill="#000000" d="M.0,17.0L17.0,.0L17.0,11.2L844.4,11.2L844.4,22.8L17.0,22.8L17.0,34.0L.0,17.0z"/><g id="shape19" transform="translate(0.000000,0.000800)"><path fill-rule="nonzero" fill="#7030a0" d="M.0,.0L120.0,.0L120.0,35.0L.0,35.0L.0,.0z"/><text style="fill:#ffffff;font-family:微软雅黑;font-size:10.00pt;font-weight:bold" xml:space="preserve"><tspan y="23.0" x="13.0">Distributed RL</tspan></text></g></g><g id="shape20" transform="translate(679.068000,225.916000)"><path stroke-width="2.666670083999634" stroke="#323232" d="M23.0,27.0L43.0,59.0" fill="none"/><text style="fill:#191919;font-family:HarmonyOS Sans;font-size:10.00pt;font-weight:bold" xml:space="preserve"><tspan y="19.0" x="15.0">......</tspan></text></g><g id="shape21" transform="translate(669.175000,81.142400)"><path stroke-width="2.666670083999634" stroke="#323232" d="M32.5,1.9L52.5,33.9" fill="none"/><text style="fill:#191919;font-family:HarmonyOS Sans;font-size:10.00pt;font-weight:bold" xml:space="preserve"><tspan y="-6.1" x="24.5">......</tspan></text></g></g></svg>