<svg xmlns="http://www.w3.org/2000/svg" viewBox="0 0 826 531" xmlns:xlink="http://www.w3.org/1999/xlink" height="531" width="826" xmlns:ev="http://www.w3.org/2001/xml-events"><defs/><g transform="translate(5.5,5.5)" id="page1"><rect fill="none" y="0" x="0" height="521" width="816"/><path fill="#eef4ff" fill-rule="nonzero" d="M740.3,162.0L740.3,11.0C740.3,4.9,735.4,.0,729.3,.0L11.0,.0C4.9,.0,.0,4.9,.0,11.0L.0,162.0C.0,168.1,4.9,173.0,11.0,173.0L729.3,173.0C735.4,173.0,740.3,168.1,740.3,162.0z" transform="translate(37.656000,219.958000)" id="shape1"/><g transform="translate(37.654900,219.958100)" id="shape2"><path fill="#fd6969" fill-rule="nonzero" d="M115.9,162.0L115.9,11.0C115.9,4.9,111.0,.0,104.9,.0L11.0,.0C4.9,.0,.0,4.9,.0,11.0L.0,162.0C.0,168.1,4.9,173.0,11.0,173.0L104.9,173.0C111.0,173.0,115.9,168.1,115.9,162.0z"/><text xml:space="preserve" style="fill:#ffffff;font-family:HarmonyOS Sans;font-size:22.00pt;font-weight:bold"><tspan y="96.0" x="25.2">Core</tspan></text></g><path fill="#eef4ff" fill-rule="nonzero" d="M740.3,71.6L740.3,11.0C740.3,4.9,735.4,.0,729.3,.0L11.0,.0C4.9,.0,.0,4.9,.0,11.0L.0,71.6C.0,77.7,4.9,82.6,11.0,82.6L729.3,82.6C735.4,82.6,740.3,77.7,740.3,71.6z" transform="translate(37.655000,400.377800)" id="shape3"/><g transform="translate(37.653900,400.377800)" id="shape4"><path fill="#3ca057" fill-rule="nonzero" d="M115.9,71.6L115.9,11.0C115.9,4.9,111.0,.0,104.9,.0L11.0,.0C4.9,.0,.0,4.9,.0,11.0L.0,71.6C.0,77.7,4.9,82.6,11.0,82.6L104.9,82.6C111.0,82.6,115.9,77.7,115.9,71.6z"/><text xml:space="preserve" style="fill:#ffffff;font-family:HarmonyOS Sans;font-size:22.00pt;font-weight:bold"><tspan y="50.8" x="25.2">App.</tspan></text></g><path fill="none" stroke-width="2" d="M21.6,12.7L10.2,12.7L10.2,17.0L.0,8.5L10.2,.0L10.2,4.2L21.6,4.2L21.6,12.7z" stroke="#101843" transform="matrix(0.000000,-1.000000,1.000000,0.000000,443.641050,414.628400)" id="shape5"/><path fill="none" stroke-width="2" d="M21.6,12.7L10.2,12.7L10.2,17.0L.0,8.5L10.2,.0L10.2,4.2L21.6,4.2L21.6,12.7z" stroke="#101843" transform="matrix(0.000000,-1.000000,1.000000,0.000000,640.500050,414.628400)" id="shape6"/><path fill="none" stroke-width="2" d="M21.6,12.7L10.2,12.7L10.2,17.0L.0,8.5L10.2,.0L10.2,4.2L21.6,4.2L21.6,12.7z" stroke="#101843" transform="matrix(0.000000,-1.000000,1.000000,0.000000,248.641050,414.628400)" id="shape7"/><g transform="translate(248.974500,280.118300)" id="shape8"><path fill="none" stroke-width="1" d="M110.4,29.3C111.9,29.3,113.2,28.1,113.2,26.6L113.2,2.8C113.2,1.2,111.9,.0,110.4,.0L2.8,.0C1.2,.0,.0,1.2,.0,2.8L.0,26.6C.0,28.1,1.2,29.3,2.8,29.3L110.4,29.3z" stroke="#454545"/><text xml:space="preserve" style="fill:#282f37;font-family:HarmonyOS Sans;font-size:10.00pt;font-weight:bold"><tspan y="18.2" x="21.1">Prototypes</tspan></text></g><g transform="translate(166.140700,225.118700)" id="shape9"><path fill="#ff9189" fill-rule="nonzero" d="M111.2,45.7C113.7,45.7,115.7,43.7,115.7,41.2L115.7,4.4C115.7,2.0,113.7,.0,111.2,.0L4.4,.0C2.0,.0,.0,2.0,.0,4.4L.0,41.2C.0,43.7,2.0,45.7,4.4,45.7L111.2,45.7z"/><text xml:space="preserve" style="fill:#282f37;font-family:HarmonyOS Sans;font-size:12.00pt;font-weight:bold"><tspan y="27.3" x="24.1">Common</tspan></text></g><g transform="translate(248.974500,318.785300)" id="shape10"><path fill="none" stroke-width="1" d="M110.4,29.3C111.9,29.3,113.2,28.1,113.2,26.6L113.2,2.8C113.2,1.2,111.9,.0,110.4,.0L2.8,.0C1.2,.0,.0,1.2,.0,2.8L.0,26.6C.0,28.1,1.2,29.3,2.8,29.3L110.4,29.3z" stroke="#454545"/><text xml:space="preserve" style="fill:#282f37;font-family:HarmonyOS Sans;font-size:10.00pt;font-weight:bold"><tspan y="18.2" x="23.1">Auxiliaries</tspan></text></g><g transform="translate(248.974500,357.451300)" id="shape11"><path fill="none" stroke-width="1" d="M110.4,29.3C111.9,29.3,113.2,28.1,113.2,26.6L113.2,2.8C113.2,1.2,111.9,.0,110.4,.0L2.8,.0C1.2,.0,.0,1.2,.0,2.8L.0,26.6C.0,28.1,1.2,29.3,2.8,29.3L110.4,29.3z" stroke="#454545"/><text xml:space="preserve" style="fill:#282f37;font-family:HarmonyOS Sans;font-size:10.00pt;font-weight:bold"><tspan y="18.2" x="51.3">...</tspan></text></g><g transform="translate(223.974000,270.785000)" id="shape12"><path fill="none" stroke-width="1" d="M.0,.0L.0,24.0L16.3,24.0" stroke="#454545"/><path fill="none" stroke-width="1.33333" stroke-linecap="round" d="M25.0,20.5L18.1,24.0L25.0,27.5" stroke-linejoin="round" stroke="#454545"/></g><g transform="translate(223.974000,270.785000)" id="shape13"><path fill="none" stroke-width="1" d="M.0,.0L.0,62.7L16.3,62.7" stroke="#454545"/><path fill="none" stroke-width="1.33333" stroke-linecap="round" d="M25.0,59.2L18.1,62.7L25.0,66.1" stroke-linejoin="round" stroke="#454545"/></g><g transform="translate(223.974000,270.785000)" id="shape14"><path fill="none" stroke-width="1" d="M.0,.0L.0,101.3L16.3,101.3" stroke="#454545"/><path fill="none" stroke-width="1.33333" stroke-linecap="round" d="M25.0,97.9L18.1,101.3L25.0,104.8" stroke-linejoin="round" stroke="#454545"/></g><g transform="translate(452.823500,280.118300)" id="shape15"><path fill="none" stroke-width="1" d="M110.4,29.3C111.9,29.3,113.2,28.1,113.2,26.6L113.2,2.8C113.2,1.2,111.9,.0,110.4,.0L2.8,.0C1.2,.0,.0,1.2,.0,2.8L.0,26.6C.0,28.1,1.2,29.3,2.8,29.3L110.4,29.3z" stroke="#454545"/><text xml:space="preserve" style="fill:#282f37;font-family:HarmonyOS Sans;font-size:10.00pt;font-weight:bold"><tspan y="18.2" x="30.1">Encoder</tspan></text></g><g transform="translate(369.989500,225.117700)" id="shape16"><path fill="#ff9189" fill-rule="nonzero" d="M111.2,45.7C113.7,45.7,115.7,43.7,115.7,41.2L115.7,4.4C115.7,2.0,113.7,.0,111.2,.0L4.4,.0C2.0,.0,.0,2.0,.0,4.4L.0,41.2C.0,43.7,2.0,45.7,4.4,45.7L111.2,45.7z"/><text xml:space="preserve" style="fill:#282f37;font-family:HarmonyOS Sans;font-size:13.00pt;font-weight:bold"><tspan y="27.8" x="32.6">Xploit</tspan></text></g><g transform="translate(452.823500,318.784300)" id="shape17"><path fill="none" stroke-width="1" d="M110.4,29.3C111.9,29.3,113.2,28.1,113.2,26.6L113.2,2.8C113.2,1.2,111.9,.0,110.4,.0L2.8,.0C1.2,.0,.0,1.2,.0,2.8L.0,26.6C.0,28.1,1.2,29.3,2.8,29.3L110.4,29.3z" stroke="#454545"/><text xml:space="preserve" style="fill:#282f37;font-family:HarmonyOS Sans;font-size:10.00pt;font-weight:bold"><tspan y="18.2" x="37.8">Policy</tspan></text></g><g transform="translate(452.823500,357.451300)" id="shape18"><path fill="none" stroke-width="1" d="M110.4,29.3C111.9,29.3,113.2,28.1,113.2,26.6L113.2,2.8C113.2,1.2,111.9,.0,110.4,.0L2.8,.0C1.2,.0,.0,1.2,.0,2.8L.0,26.6C.0,28.1,1.2,29.3,2.8,29.3L110.4,29.3z" stroke="#454545"/><text xml:space="preserve" style="fill:#282f37;font-family:HarmonyOS Sans;font-size:10.00pt;font-weight:bold"><tspan y="18.2" x="31.3">Storage</tspan></text></g><g transform="translate(427.823000,270.785000)" id="shape19"><path fill="none" stroke-width="1" d="M.0,.0L.0,24.0L16.3,24.0" stroke="#454545"/><path fill="none" stroke-width="1.33333" stroke-linecap="round" d="M25.0,20.5L18.1,24.0L25.0,27.5" stroke-linejoin="round" stroke="#454545"/></g><g transform="translate(427.823000,270.785000)" id="shape20"><path fill="none" stroke-width="1" d="M.0,.0L.0,62.7L16.3,62.7" stroke="#454545"/><path fill="none" stroke-width="1.33333" stroke-linecap="round" d="M25.0,59.2L18.1,62.7L25.0,66.1" stroke-linejoin="round" stroke="#454545"/></g><g transform="translate(427.823000,270.785000)" id="shape21"><path fill="none" stroke-width="1" d="M.0,.0L.0,101.3L16.3,101.3" stroke="#454545"/><path fill="none" stroke-width="1.33333" stroke-linecap="round" d="M25.0,97.9L18.1,101.3L25.0,104.8" stroke-linejoin="round" stroke="#454545"/></g><g transform="translate(656.976500,280.118300)" id="shape22"><path fill="none" stroke-width="1" d="M110.4,29.3C111.9,29.3,113.2,28.1,113.2,26.6L113.2,2.8C113.2,1.2,111.9,.0,110.4,.0L2.8,.0C1.2,.0,.0,1.2,.0,2.8L.0,26.6C.0,28.1,1.2,29.3,2.8,29.3L110.4,29.3z" stroke="#454545"/><text xml:space="preserve" style="fill:#282f37;font-family:HarmonyOS Sans;font-size:10.00pt;font-weight:bold"><tspan y="18.2" x="18.3">Distribution</tspan></text></g><g transform="translate(574.142500,225.117700)" id="shape23"><path fill="#ff9189" fill-rule="nonzero" d="M111.2,45.7C113.7,45.7,115.7,43.7,115.7,41.2L115.7,4.4C115.7,2.0,113.7,.0,111.2,.0L4.4,.0C2.0,.0,.0,2.0,.0,4.4L.0,41.2C.0,43.7,2.0,45.7,4.4,45.7L111.2,45.7z"/><text xml:space="preserve" style="fill:#282f37;font-family:HarmonyOS Sans;font-size:13.00pt;font-weight:bold"><tspan y="27.8" x="30.3">Xplore</tspan></text></g><g transform="translate(656.976500,318.784300)" id="shape24"><path fill="none" stroke-width="1" d="M110.4,29.3C111.9,29.3,113.2,28.1,113.2,26.6L113.2,2.8C113.2,1.2,111.9,.0,110.4,.0L2.8,.0C1.2,.0,.0,1.2,.0,2.8L.0,26.6C.0,28.1,1.2,29.3,2.8,29.3L110.4,29.3z" stroke="#454545"/><text xml:space="preserve" style="fill:#282f37;font-family:HarmonyOS Sans;font-size:10.00pt;font-weight:bold"><tspan y="18.2" x="10.6">Augmentation</tspan></text></g><g transform="translate(656.976500,357.451300)" id="shape25"><path fill="none" stroke-width="1" d="M110.4,29.3C111.9,29.3,113.2,28.1,113.2,26.6L113.2,2.8C113.2,1.2,111.9,.0,110.4,.0L2.8,.0C1.2,.0,.0,1.2,.0,2.8L.0,26.6C.0,28.1,1.2,29.3,2.8,29.3L110.4,29.3z" stroke="#454545"/><text xml:space="preserve" style="fill:#282f37;font-family:HarmonyOS Sans;font-size:10.00pt;font-weight:bold"><tspan y="18.2" x="32.3">Reward</tspan></text></g><g transform="translate(631.976000,270.785000)" id="shape26"><path fill="none" stroke-width="1" d="M.0,.0L.0,24.0L16.3,24.0" stroke="#454545"/><path fill="none" stroke-width="1.33333" stroke-linecap="round" d="M25.0,20.5L18.1,24.0L25.0,27.5" stroke-linejoin="round" stroke="#454545"/></g><g transform="translate(631.976000,270.785000)" id="shape27"><path fill="none" stroke-width="1" d="M.0,.0L.0,62.7L16.3,62.7" stroke="#454545"/><path fill="none" stroke-width="1.33333" stroke-linecap="round" d="M25.0,59.2L18.1,62.7L25.0,66.1" stroke-linejoin="round" stroke="#454545"/></g><g transform="translate(631.976000,270.785000)" id="shape28"><path fill="none" stroke-width="1" d="M.0,.0L.0,101.3L16.3,101.3" stroke="#454545"/><path fill="none" stroke-width="1.33333" stroke-linecap="round" d="M25.0,97.9L18.1,101.3L25.0,104.8" stroke-linejoin="round" stroke="#454545"/></g><path fill="#eef4ff" fill-rule="nonzero" d="M740.3,162.0L740.3,11.0C740.3,4.9,735.4,.0,729.3,.0L11.0,.0C4.9,.0,.0,4.9,.0,11.0L.0,162.0C.0,168.1,4.9,173.0,11.0,173.0L729.3,173.0C735.4,173.0,740.3,168.1,740.3,162.0z" transform="translate(37.655000,38.226000)" id="shape29"/><g transform="translate(37.653900,38.226100)" id="shape30"><path fill="#017fff" fill-rule="nonzero" d="M115.9,162.0L115.9,11.0C115.9,4.9,111.0,.0,104.9,.0L11.0,.0C4.9,.0,.0,4.9,.0,11.0L.0,162.0C.0,168.1,4.9,173.0,11.0,173.0L104.9,173.0C111.0,173.0,115.9,168.1,115.9,162.0z"/><text xml:space="preserve" style="fill:#ffffff;font-family:HarmonyOS Sans;font-size:22.00pt;font-weight:bold"><tspan y="96.5" x="29.2">Tool</tspan></text></g><g transform="translate(248.973500,98.386300)" id="shape31"><path fill="none" stroke-width="1" d="M110.4,29.3C111.9,29.3,113.2,28.1,113.2,26.6L113.2,2.8C113.2,1.2,111.9,.0,110.4,.0L2.8,.0C1.2,.0,.0,1.2,.0,2.8L.0,26.6C.0,28.1,1.2,29.3,2.8,29.3L110.4,29.3z" stroke="#454545"/><text xml:space="preserve" style="fill:#282f37;font-family:HarmonyOS Sans;font-size:10.00pt;font-weight:bold"><tspan y="18.2" x="11.8">Env Wrappers</tspan></text></g><g transform="translate(166.139500,43.386600)" id="shape32"><path fill="#43b4ff" fill-rule="nonzero" d="M111.2,45.7C113.7,45.7,115.7,43.7,115.7,41.2L115.7,4.4C115.7,2.0,113.7,.0,111.2,.0L4.4,.0C2.0,.0,.0,2.0,.0,4.4L.0,41.2C.0,43.7,2.0,45.7,4.4,45.7L111.2,45.7z"/><text xml:space="preserve" style="fill:#282f37;font-family:HarmonyOS Sans;font-size:12.00pt;font-weight:bold"><tspan y="27.3" x="44.1">Env</tspan></text></g><g transform="translate(248.973500,137.053300)" id="shape33"><path fill="none" stroke-width="1" d="M110.4,29.3C111.9,29.3,113.2,28.1,113.2,26.6L113.2,2.8C113.2,1.2,111.9,.0,110.4,.0L2.8,.0C1.2,.0,.0,1.2,.0,2.8L.0,26.6C.0,28.1,1.2,29.3,2.8,29.3L110.4,29.3z" stroke="#454545"/><text xml:space="preserve" style="fill:#282f37;font-family:HarmonyOS Sans;font-size:10.00pt;font-weight:bold"><tspan y="18.2" x="22.3">Game APIs</tspan></text></g><g transform="translate(248.973500,175.720300)" id="shape34"><path fill="none" stroke-width="1" d="M110.4,29.3C111.9,29.3,113.2,28.1,113.2,26.6L113.2,2.8C113.2,1.2,111.9,.0,110.4,.0L2.8,.0C1.2,.0,.0,1.2,.0,2.8L.0,26.6C.0,28.1,1.2,29.3,2.8,29.3L110.4,29.3z" stroke="#454545"/><text xml:space="preserve" style="fill:#282f37;font-family:HarmonyOS Sans;font-size:10.00pt;font-weight:bold"><tspan y="18.2" x="51.3">...</tspan></text></g><g transform="translate(223.973000,89.053300)" id="shape35"><path fill="none" stroke-width="1" d="M.0,.0L.0,24.0L16.3,24.0" stroke="#454545"/><path fill="none" stroke-width="1.33333" stroke-linecap="round" d="M25.0,20.5L18.1,24.0L25.0,27.5" stroke-linejoin="round" stroke="#454545"/></g><g transform="translate(223.973000,89.053300)" id="shape36"><path fill="none" stroke-width="1" d="M.0,.0L.0,62.7L16.3,62.7" stroke="#454545"/><path fill="none" stroke-width="1.33333" stroke-linecap="round" d="M25.0,59.2L18.1,62.7L25.0,66.1" stroke-linejoin="round" stroke="#454545"/></g><g transform="translate(223.973000,89.053300)" id="shape37"><path fill="none" stroke-width="1" d="M.0,.0L.0,101.3L16.3,101.3" stroke="#454545"/><path fill="none" stroke-width="1.33333" stroke-linecap="round" d="M25.0,97.9L18.1,101.3L25.0,104.8" stroke-linejoin="round" stroke="#454545"/></g><g transform="translate(452.822500,98.385300)" id="shape38"><path fill="none" stroke-width="1" d="M110.4,29.3C111.9,29.3,113.2,28.1,113.2,26.6L113.2,2.8C113.2,1.2,111.9,.0,110.4,.0L2.8,.0C1.2,.0,.0,1.2,.0,2.8L.0,26.6C.0,28.1,1.2,29.3,2.8,29.3L110.4,29.3z" stroke="#454545"/><text xml:space="preserve" style="fill:#282f37;font-family:HarmonyOS Sans;font-size:10.00pt;font-weight:bold"><tspan y="18.2" x="15.8">Performance</tspan></text></g><g transform="translate(369.988500,43.385600)" id="shape39"><path fill="#43b4ff" fill-rule="nonzero" d="M111.2,45.7C113.7,45.7,115.7,43.7,115.7,41.2L115.7,4.4C115.7,2.0,113.7,.0,111.2,.0L4.4,.0C2.0,.0,.0,2.0,.0,4.4L.0,41.2C.0,43.7,2.0,45.7,4.4,45.7L111.2,45.7z"/><text xml:space="preserve" style="fill:#282f37;font-family:HarmonyOS Sans;font-size:12.00pt;font-weight:bold"><tspan y="27.3" x="17.8">Evaluation</tspan></text></g><g transform="translate(452.822500,137.052300)" id="shape40"><path fill="none" stroke-width="1" d="M110.4,29.3C111.9,29.3,113.2,28.1,113.2,26.6L113.2,2.8C113.2,1.2,111.9,.0,110.4,.0L2.8,.0C1.2,.0,.0,1.2,.0,2.8L.0,26.6C.0,28.1,1.2,29.3,2.8,29.3L110.4,29.3z" stroke="#454545"/><text xml:space="preserve" style="fill:#282f37;font-family:HarmonyOS Sans;font-size:10.00pt;font-weight:bold"><tspan y="18.2" x="18.1">Comparison</tspan></text></g><g transform="translate(452.822500,175.719300)" id="shape41"><path fill="none" stroke-width="1" d="M110.4,29.3C111.9,29.3,113.2,28.1,113.2,26.6L113.2,2.8C113.2,1.2,111.9,.0,110.4,.0L2.8,.0C1.2,.0,.0,1.2,.0,2.8L.0,26.6C.0,28.1,1.2,29.3,2.8,29.3L110.4,29.3z" stroke="#454545"/><text xml:space="preserve" style="fill:#282f37;font-family:HarmonyOS Sans;font-size:10.00pt;font-weight:bold"><tspan y="18.2" x="16.1">Visualization</tspan></text></g><g transform="translate(427.822000,89.052300)" id="shape42"><path fill="none" stroke-width="1" d="M.0,.0L.0,24.0L16.3,24.0" stroke="#454545"/><path fill="none" stroke-width="1.33333" stroke-linecap="round" d="M25.0,20.5L18.1,24.0L25.0,27.5" stroke-linejoin="round" stroke="#454545"/></g><g transform="translate(427.822000,89.052300)" id="shape43"><path fill="none" stroke-width="1" d="M.0,.0L.0,62.7L16.3,62.7" stroke="#454545"/><path fill="none" stroke-width="1.33333" stroke-linecap="round" d="M25.0,59.2L18.1,62.7L25.0,66.1" stroke-linejoin="round" stroke="#454545"/></g><g transform="translate(427.822000,89.052300)" id="shape44"><path fill="none" stroke-width="1" d="M.0,.0L.0,101.3L16.3,101.3" stroke="#454545"/><path fill="none" stroke-width="1.33333" stroke-linecap="round" d="M25.0,97.9L18.1,101.3L25.0,104.8" stroke-linejoin="round" stroke="#454545"/></g><g transform="translate(656.975500,98.385300)" id="shape45"><path fill="none" stroke-width="1" d="M110.4,29.3C111.9,29.3,113.2,28.1,113.2,26.6L113.2,2.8C113.2,1.2,111.9,.0,110.4,.0L2.8,.0C1.2,.0,.0,1.2,.0,2.8L.0,26.6C.0,28.1,1.2,29.3,2.8,29.3L110.4,29.3z" stroke="#454545"/><text xml:space="preserve" style="fill:#282f37;font-family:HarmonyOS Sans;font-size:10.00pt;font-weight:bold"><tspan y="18.2" x="28.3">Datasets</tspan></text></g><g transform="translate(574.141500,43.385600)" id="shape46"><path fill="#43b4ff" fill-rule="nonzero" d="M111.2,45.7C113.7,45.7,115.7,43.7,115.7,41.2L115.7,4.4C115.7,2.0,113.7,.0,111.2,.0L4.4,.0C2.0,.0,.0,2.0,.0,4.4L.0,41.2C.0,43.7,2.0,45.7,4.4,45.7L111.2,45.7z"/><text xml:space="preserve" style="fill:#282f37;font-family:HarmonyOS Sans;font-size:12.00pt;font-weight:bold"><tspan y="27.3" x="41.8">Hub</tspan></text></g><g transform="translate(656.975500,137.052300)" id="shape47"><path fill="none" stroke-width="1" d="M110.4,29.3C111.9,29.3,113.2,28.1,113.2,26.6L113.2,2.8C113.2,1.2,111.9,.0,110.4,.0L2.8,.0C1.2,.0,.0,1.2,.0,2.8L.0,26.6C.0,28.1,1.2,29.3,2.8,29.3L110.4,29.3z" stroke="#454545"/><text xml:space="preserve" style="fill:#282f37;font-family:HarmonyOS Sans;font-size:10.00pt;font-weight:bold"><tspan y="18.2" x="33.6">Models</tspan></text></g><g transform="translate(656.975500,175.719300)" id="shape48"><path fill="none" stroke-width="1" d="M110.4,29.3C111.9,29.3,113.2,28.1,113.2,26.6L113.2,2.8C113.2,1.2,111.9,.0,110.4,.0L2.8,.0C1.2,.0,.0,1.2,.0,2.8L.0,26.6C.0,28.1,1.2,29.3,2.8,29.3L110.4,29.3z" stroke="#454545"/><text xml:space="preserve" style="fill:#282f37;font-family:HarmonyOS Sans;font-size:10.00pt;font-weight:bold"><tspan y="18.2" x="51.3">...</tspan></text></g><g transform="translate(631.975000,89.052300)" id="shape49"><path fill="none" stroke-width="1" d="M.0,.0L.0,24.0L16.3,24.0" stroke="#454545"/><path fill="none" stroke-width="1.33333" stroke-linecap="round" d="M25.0,20.5L18.1,24.0L25.0,27.5" stroke-linejoin="round" stroke="#454545"/></g><g transform="translate(631.975000,89.052300)" id="shape50"><path fill="none" stroke-width="1" d="M.0,.0L.0,62.7L16.3,62.7" stroke="#454545"/><path fill="none" stroke-width="1.33333" stroke-linecap="round" d="M25.0,59.2L18.1,62.7L25.0,66.1" stroke-linejoin="round" stroke="#454545"/></g><g transform="translate(631.975000,89.052300)" id="shape51"><path fill="none" stroke-width="1" d="M.0,.0L.0,101.3L16.3,101.3" stroke="#454545"/><path fill="none" stroke-width="1.33333" stroke-linecap="round" d="M25.0,97.9L18.1,101.3L25.0,104.8" stroke-linejoin="round" stroke="#454545"/></g><g transform="translate(190.130500,418.855700)" id="shape52"><path fill="#90d6ab" fill-rule="nonzero" d="M111.2,45.7C113.7,45.7,115.7,43.7,115.7,41.2L115.7,4.4C115.7,2.0,113.7,.0,111.2,.0L4.4,.0C2.0,.0,.0,2.0,.0,4.4L.0,41.2C.0,43.7,2.0,45.7,4.4,45.7L111.2,45.7z"/><text xml:space="preserve" style="fill:#282f37;font-family:HarmonyOS Sans;font-size:12.00pt;font-weight:bold"><tspan y="27.3" x="11.3">Deployment</tspan></text></g><g transform="translate(335.198500,418.855700)" id="shape53"><path fill="#90d6ab" fill-rule="nonzero" d="M111.2,45.7C113.7,45.7,115.7,43.7,115.7,41.2L115.7,4.4C115.7,2.0,113.7,.0,111.2,.0L4.4,.0C2.0,.0,.0,2.0,.0,4.4L.0,41.2C.0,43.7,2.0,45.7,4.4,45.7L111.2,45.7z"/><text xml:space="preserve" style="fill:#282f37;font-family:HarmonyOS Sans;font-size:12.00pt;font-weight:bold"><tspan y="27.3" x="10.8">Pre-training</tspan></text></g><g transform="translate(480.265500,418.855700)" id="shape54"><path fill="#fbdd2d" fill-rule="nonzero" d="M111.2,45.7C113.7,45.7,115.7,43.7,115.7,41.2L115.7,4.4C115.7,2.0,113.7,.0,111.2,.0L4.4,.0C2.0,.0,.0,2.0,.0,4.4L.0,41.2C.0,43.7,2.0,45.7,4.4,45.7L111.2,45.7z"/><text xml:space="preserve" style="fill:#282f37;font-family:HarmonyOS Sans;font-size:12.00pt;font-weight:bold"><tspan y="27.3" x="34.3">Agent</tspan></text></g><g transform="translate(625.332500,418.855700)" id="shape55"><path fill="#90d6ab" fill-rule="nonzero" d="M111.2,45.7C113.7,45.7,115.7,43.7,115.7,41.2L115.7,4.4C115.7,2.0,113.7,.0,111.2,.0L4.4,.0C2.0,.0,.0,2.0,.0,4.4L.0,41.2C.0,43.7,2.0,45.7,4.4,45.7L111.2,45.7z"/><text xml:space="preserve" style="fill:#282f37;font-family:HarmonyOS Sans;font-size:12.00pt;font-weight:bold"><tspan y="27.3" x="29.8">Copilot</tspan></text></g></g></svg>